<svg xmlns="http://www.w3.org/2000/svg" width="20.44" height="20.449" xmlns:v="https://vecta.io/nano"><defs><clipPath id="A"><path d="M20.553,9.844a10.216,10.216,0,1,1-20.4,1.084,6.879,6.879,0,0,1,0-1.084,10.215,10.215,0,0,1,20.4,0Z" transform="translate(5479.433 -11762.177)" fill="#fff"/></clipPath></defs><g transform="translate(-5479.561 11762.023)" clip-path="url(#A)"><path d="M5502.811-11761.955h-26.054a1.61 1.61 0 0 0-1.607 1.607v17.141a1.61 1.61 0 0 0 1.607 1.607h26.048a1.61 1.61 0 0 0 1.607-1.607v-17.141a1.6 1.6 0 0 0-1.601-1.607z" fill="#00008b"/><g fill="#fff"><g fill-rule="evenodd"><path d="M5483.671-11749.792l.536 1.675 1.649-.626-.976 1.474 1.516.9-1.755.154.244 1.75-1.214-1.287-1.219 1.283.244-1.75-1.756-.153 1.516-.9-.976-1.474 1.649.626zm14.363 3.022l.254.8.785-.3-.461.7.721.429-.838.074.117.832-.578-.61-.578.61.111-.832-.832-.074.721-.429-.467-.7.785.3zm0-12.444l.254.8.785-.3-.461.7.721.429-.838.074.117.832-.578-.61-.578.61.111-.832-.832-.073.721-.429-.467-.7.785.3zm-3.663 5.053l.26.8.785-.3-.467.7.721.429-.832.069.111.832-.578-.61-.578.61.117-.832-.838-.069.721-.429-.461-.7.785.3zm7.809-1.246l.26.8.785-.3-.467.7.721.429-.832.074.111.827-.578-.6-.578.6.117-.827-.838-.074.721-.429-.461-.7.785.3zm-2.28 3.749l.2.5.535.037-.408.345.127.525-.456-.281-.456.281.127-.525-.414-.345.541-.037z"/></g><path d="M5475.272-11760.964l14.644 7.323h1.861v-.928l-14.766-7.386h-.254c-.649.002-1.234.392-1.485.991zm16.505-.991v.928l-14.766 7.386h-1.861v-.928l14.766-7.386z"/><path d="M5482.08-11761.955v8.314h2.77v-8.314zm-6.93 2.773v2.773h16.627v-2.773z"/></g><g fill="red"><path d="M5475.15-11758.631v1.665h16.627v-1.665zm7.481-3.324v8.314h1.665v-8.314zm-7.481 8.314l5.541-2.773h1.24l-5.54 2.773zm.254-7.566c.105-.164.238-.307.393-.425l4.9 2.45h-1.242l-4.051-2.025zm9.592 2.025l5.54-2.773h1.241l-5.546 2.773zm6.781 5.541l-5.546-2.773h1.241l4.3 2.153v.62z"/></g></g></svg>