<svg width="48" height="48" viewBox="0 0 48 48" fill="none" xmlns="http://www.w3.org/2000/svg">
<g clip-path="url(#clip0_14100_80)">
<path d="M24.4959 13.37C23.1839 18.758 23.2679 18.47 22.0779 23.398C22.0519 23.852 21.6759 24.21 21.2179 24.21C21.1679 24.21 21.1179 24.206 21.0699 24.198H21.0759H19.7259C19.6859 24.206 19.6379 24.21 19.5919 24.21C19.1859 24.21 18.8519 23.908 18.7999 23.518V23.514C17.6459 19.822 16.0999 14.694 15.0599 11.264C14.6759 9.998 14.9279 10.028 15.9319 10.054C16.2799 10.064 16.6159 10.054 16.9619 10.054C16.9859 10.052 17.0139 10.05 17.0439 10.05C17.4359 10.05 17.7599 10.34 17.8139 10.716V10.72C18.1519 11.93 18.3759 12.858 20.3059 20.48C20.3419 20.63 20.3899 20.772 20.4379 20.91H20.5399C20.5859 20.722 20.6419 20.546 20.6899 20.356C21.4206 17.272 22.1486 14.1853 22.8739 11.096C23.0999 10.136 23.5019 10.046 24.4739 10.046H25.1859C25.8259 10.056 26.0299 10.186 26.1899 10.824C26.7519 13.018 28.3939 20.364 28.6919 21.172C29.1719 19.456 28.5239 21.912 31.3639 10.956C31.5599 10.198 31.7479 10.048 32.5179 10.048H33.6999C34.2059 10.058 34.3559 10.216 34.2339 10.714C34.0079 11.606 33.9619 11.642 30.3639 23.17C30.0719 24.098 29.9699 24.182 28.9959 24.182H28.0019C27.3179 24.182 27.1399 24.06 26.9719 23.394C26.5679 21.876 24.7879 14.424 24.4959 13.374V13.37ZM11.7679 23.792C11.9039 24.07 12.1839 24.258 12.5079 24.258C12.7359 24.258 12.9399 24.166 13.0899 24.016L13.6799 23.622C14.3199 23.2 14.3639 23.032 14.0179 22.356C13.6459 21.648 13.4259 20.81 13.4259 19.92C13.4259 19.89 13.4259 19.86 13.4259 19.83V19.834C13.4259 19.542 13.4819 14.614 13.3419 13.574C13.2179 11.834 12.0119 10.406 10.3999 9.952L10.3719 9.946C9.66594 9.75 8.85594 9.638 8.01794 9.638C7.76594 9.638 7.51394 9.648 7.26794 9.668L7.29994 9.666C5.82794 9.724 4.45994 10.114 3.24994 10.76L3.29994 10.736C3.11794 10.834 2.98194 10.996 2.91794 11.19L2.91594 11.196C2.86394 11.432 2.83394 11.704 2.83394 11.982C2.83394 12.104 2.83994 12.226 2.84994 12.346L2.84794 12.33C2.90394 12.884 3.09194 12.986 3.61594 12.81C4.09594 12.65 4.55394 12.446 5.03194 12.304C5.72194 12.048 6.51794 11.9 7.34994 11.9C7.99594 11.9 8.61994 11.99 9.21194 12.156L9.16394 12.144C9.79794 12.334 10.2919 12.812 10.4999 13.422L10.5039 13.436C10.6579 13.952 10.7479 14.544 10.7479 15.158C10.7479 15.346 10.7399 15.534 10.7239 15.718L10.7259 15.694C10.7259 16.21 10.7159 16.21 10.2099 16.116C9.34994 15.902 8.36394 15.778 7.34794 15.778C6.97394 15.778 6.60194 15.794 6.23594 15.828L6.28394 15.824C4.83194 15.93 3.56394 16.636 2.70994 17.69L2.70194 17.7C2.18194 18.42 1.86994 19.322 1.86994 20.296C1.86994 20.69 1.91994 21.07 2.01594 21.434L2.00994 21.402C2.21794 22.766 3.18594 23.858 4.45994 24.246L4.48394 24.252C5.04394 24.452 5.68994 24.568 6.36394 24.568C7.69794 24.568 8.92794 24.114 9.90394 23.352L9.89194 23.362C10.2479 23.1 10.5679 22.782 10.9319 22.47C11.2239 22.938 11.4759 23.378 11.7659 23.782L11.7679 23.792ZM10.3279 18.018H10.3379C10.5599 18.018 10.7399 18.198 10.7399 18.42C10.7399 18.448 10.7379 18.474 10.7319 18.502V18.5C10.7119 18.856 10.7419 19.212 10.7039 19.568C10.6039 20.614 9.94994 21.486 9.04394 21.896L9.02594 21.904C8.43794 22.212 7.74394 22.394 7.00594 22.394C6.85594 22.394 6.70794 22.386 6.56194 22.372L6.57994 22.374C5.52194 22.312 4.68794 21.44 4.68794 20.372C4.68794 20.208 4.70794 20.048 4.74594 19.894L4.74394 19.908C4.79594 18.812 5.66394 17.934 6.75194 17.866H6.75794C7.17794 17.798 7.66194 17.76 8.15394 17.76C8.92994 17.76 9.68594 17.856 10.4059 18.036L10.3419 18.022L10.3279 18.018ZM43.0199 24.12C44.6699 23.566 45.8359 22.034 45.8359 20.23C45.8359 19.948 45.8079 19.672 45.7539 19.406L45.7579 19.432C45.5439 18.126 44.6299 17.078 43.4199 16.674L43.3959 16.666C41.5719 16.094 40.0779 15.516 38.6299 14.856L38.8879 14.962C38.4699 14.752 38.1859 14.332 38.1759 13.844C38.1639 13.77 38.1579 13.684 38.1579 13.598C38.1579 12.76 38.7939 12.072 39.6099 11.988H39.6159C40.0379 11.888 40.5219 11.832 41.0199 11.832C41.4539 11.832 41.8799 11.876 42.2899 11.958L42.2499 11.952C42.9339 12.084 43.5899 12.346 44.2559 12.542C44.5179 12.626 44.8099 12.738 44.9879 12.392C45.0799 12.198 45.1339 11.97 45.1339 11.732C45.1339 11.136 44.8019 10.618 44.3119 10.354L44.3039 10.35C43.3159 9.878 42.1559 9.604 40.9319 9.604C39.8399 9.604 38.7999 9.824 37.8519 10.22L37.9039 10.2C36.4539 10.776 35.4479 12.168 35.4479 13.794C35.4479 15.352 36.3719 16.696 37.7019 17.304L37.7259 17.314C38.4479 17.662 39.2339 17.868 39.9939 18.148C40.7539 18.428 41.5119 18.692 42.2539 19C42.7659 19.284 43.1079 19.822 43.1079 20.44C43.1079 21.012 42.8159 21.514 42.3719 21.808L42.3659 21.812C39.7699 23.252 36.2859 21.586 35.8799 21.456C35.5719 21.354 35.3839 21.476 35.2899 21.804C35.2139 21.982 35.1699 22.19 35.1699 22.408C35.1699 23.146 35.6799 23.766 36.3679 23.93L36.3779 23.932C37.4399 24.358 38.6699 24.604 39.9579 24.604C41.0499 24.604 42.1019 24.426 43.0839 24.098L43.0139 24.118L43.0199 24.12ZM27.7519 39.37C32.7479 38.834 37.2839 37.266 41.2779 34.882L41.1259 34.966C41.8759 34.526 42.5779 34.006 43.2899 33.494C43.9739 33.014 43.5899 31.77 42.2299 32.35C37.5419 34.408 32.0979 35.724 26.3799 35.992L26.2779 35.996C25.6779 36.026 24.9759 36.042 24.2699 36.042C21.9659 36.042 19.7019 35.866 17.4919 35.526L17.7379 35.558C11.5039 34.66 5.88994 32.642 0.879944 29.704L1.09794 29.822C0.921944 29.704 0.719944 29.608 0.503944 29.544L0.487944 29.54C0.0279442 29.438 -0.234056 29.98 0.261944 30.448C6.39994 36.124 14.6399 39.604 23.6939 39.604H23.7219H23.7199C25.0699 39.528 26.4199 39.52 27.7499 39.37H27.7519ZM44.1259 30.73C45.5139 30.806 45.9439 31.284 45.5979 32.622C45.2419 34.01 44.7259 35.36 44.2959 36.728C44.2119 37 43.9019 37.318 44.2199 37.554C44.5679 37.798 44.8299 37.46 45.0639 37.246C45.9739 36.38 46.6899 35.322 47.1519 34.136L47.1719 34.078C47.6879 32.95 47.9879 31.63 47.9879 30.24C47.9879 30.208 47.9879 30.178 47.9879 30.146V30.15C47.9679 29.57 47.8199 29.324 47.2559 29.166C46.8079 29.028 46.2819 28.922 45.7419 28.87L45.7099 28.868C45.3439 28.822 44.9219 28.796 44.4919 28.796C42.8199 28.796 41.2399 29.19 39.8379 29.888L39.8979 29.86C39.5879 30.028 39.3199 30.212 39.0739 30.42L39.0819 30.414C38.9799 30.498 38.7819 30.91 39.3079 30.986C39.3559 30.99 39.4139 30.992 39.4699 30.992C39.6079 30.992 39.7439 30.98 39.8739 30.956L39.8599 30.958C40.9119 30.808 42.1279 30.722 43.3619 30.722C43.6299 30.722 43.8959 30.726 44.1619 30.734H44.1239L44.1259 30.73Z" fill="#8D88A3"/>
</g>
<defs>
<clipPath id="clip0_14100_80">
<rect width="48" height="48" fill="white"/>
</clipPath>
</defs>
</svg>
