<svg width="76" height="46" viewBox="0 0 76 46" fill="none" xmlns="http://www.w3.org/2000/svg">
<path d="M21.422 16.5632C21.422 17.499 21.517 18.259 21.6975 18.8195C21.897 19.3752 22.1535 19.9832 22.505 20.6435C22.6172 20.8179 22.6781 21.0204 22.6808 21.2277C22.6808 21.4795 22.5288 21.736 22.2058 21.9878L20.6098 23.0518C20.4182 23.1901 20.1904 23.2693 19.9543 23.2798C19.6978 23.2798 19.446 23.1563 19.1943 22.9283C18.8529 22.5609 18.5475 22.1616 18.2823 21.736C18.0013 21.2486 17.7414 20.7494 17.5033 20.2398C15.5273 22.572 13.0525 23.7405 10.0695 23.7405C7.94629 23.7405 6.25054 23.1277 5.01554 21.9117C3.77579 20.6957 3.14404 19.0713 3.14404 17.043C3.14404 14.8865 3.90404 13.1385 5.44304 11.818C6.98679 10.4975 9.03404 9.842 11.637 9.842C12.492 9.842 13.3803 9.918 14.316 10.0415C15.2518 10.1698 16.216 10.374 17.223 10.602V8.7495C17.223 6.821 16.8193 5.47675 16.0355 4.693C15.228 3.9045 13.86 3.5245 11.9125 3.5245C11.029 3.5245 10.1218 3.629 9.18604 3.857C8.25634 4.07827 7.3436 4.36558 6.45479 4.71675C6.16784 4.84668 5.87271 4.95775 5.57129 5.04925C5.44068 5.0924 5.3049 5.11796 5.16754 5.12525C4.81129 5.12525 4.63554 4.86875 4.63554 4.33675V3.09225C4.63554 2.6885 4.68304 2.37975 4.81129 2.20875C5.0027 1.97569 5.24697 1.79168 5.52379 1.672C6.40254 1.216 7.46654 0.836 8.70629 0.532C9.94129 0.1995 11.257 0.0522507 12.6488 0.0522507C15.6555 0.0522507 17.8548 0.736252 19.2703 2.10425C20.662 3.47225 21.3698 5.55275 21.3698 8.34575V16.5632H21.4173H21.422ZM11.1573 20.4155C11.9885 20.4155 12.8483 20.2635 13.7603 19.9595C14.6723 19.6555 15.4798 19.095 16.159 18.335C16.5664 17.8684 16.8606 17.3141 17.0188 16.7153C17.1708 16.1025 17.2753 15.371 17.2753 14.5065V13.4425C16.5081 13.2565 15.731 13.1137 14.9478 13.015C14.1602 12.9131 13.367 12.8608 12.5728 12.8583C10.877 12.8583 9.64204 13.1908 8.80604 13.8748C7.97004 14.5587 7.57104 15.523 7.57104 16.7913C7.57104 17.9788 7.87029 18.867 8.50204 19.4797C9.11004 20.1115 9.99354 20.4155 11.1573 20.4155ZM31.454 23.1562C30.998 23.1562 30.694 23.0803 30.4945 22.8998C30.2903 22.7478 30.1145 22.3962 29.9625 21.9117L24.025 2.3085C23.9096 1.97975 23.833 1.63858 23.797 1.292C23.797 0.888251 23.9965 0.660252 24.4003 0.660252H26.8798C27.3548 0.660252 27.6873 0.736252 27.863 0.912002C28.0673 1.064 28.2193 1.42025 28.3713 1.9L32.6178 18.6913L36.5603 1.9C36.6838 1.3965 36.8358 1.064 37.04 0.912002C37.3435 0.726267 37.6967 0.638376 38.0518 0.660252H40.0753C40.5503 0.660252 40.8828 0.736252 41.0823 0.912002C41.2865 1.064 41.4623 1.42025 41.5668 1.9L45.5568 18.8955L49.9268 1.9C50.008 1.5323 50.1831 1.19192 50.435 0.912002C50.7295 0.725775 51.0754 0.637641 51.423 0.660252H53.7743C54.178 0.660252 54.406 0.864501 54.406 1.292C54.406 1.42025 54.3775 1.5485 54.3585 1.7005C54.3175 1.91609 54.2571 2.12753 54.178 2.33225L48.0838 21.9355C47.9365 22.4438 47.756 22.7763 47.5565 22.9283C47.2697 23.1117 46.9322 23.1998 46.5923 23.18H44.4215C43.9418 23.18 43.614 23.104 43.4098 22.9283C43.2055 22.7478 43.0298 22.42 42.93 21.9117L39.0113 5.5575L35.1163 21.8928C34.9928 22.401 34.8408 22.7288 34.6413 22.9045C34.437 23.085 34.0808 23.161 33.6295 23.161H31.454V23.1562ZM63.9345 23.8403C62.6228 23.842 61.3154 23.6889 60.0395 23.3843C58.776 23.0803 57.7928 22.7478 57.1325 22.3678C56.7288 22.1398 56.4533 21.888 56.3488 21.6553C56.2525 21.4317 56.2024 21.1909 56.2015 20.9475V19.6555C56.2015 19.1235 56.401 18.867 56.781 18.867C56.9362 18.8673 57.0902 18.893 57.237 18.943C57.389 18.9952 57.617 19.095 57.8688 19.1995C58.7238 19.5795 59.6643 19.8835 60.6475 20.0878C61.6593 20.2873 62.6425 20.3918 63.6543 20.3918C65.2503 20.3918 66.4853 20.1115 67.345 19.5558C67.7581 19.3057 68.0974 18.9507 68.3285 18.5268C68.5597 18.1029 68.6743 17.6254 68.6608 17.1428C68.6693 16.8169 68.6133 16.4926 68.4959 16.1885C68.3785 15.8844 68.2021 15.6066 67.9768 15.371C67.5255 14.8865 66.6658 14.4543 65.426 14.0505L61.759 12.9105C59.916 12.3263 58.548 11.4618 57.7168 10.3218C56.9031 9.2684 56.459 7.9763 56.4533 6.64525C56.4533 5.58125 56.6813 4.64075 57.1325 3.8285C57.5885 3.021 58.1965 2.3085 58.9565 1.748C59.7165 1.1685 60.5715 0.73625 61.5833 0.43225C62.595 0.12825 63.6543 0 64.7658 0C65.3263 0 65.9058 0.0237518 66.4615 0.0997518C67.041 0.175752 67.573 0.280252 68.105 0.384752C68.6085 0.508252 69.093 0.631752 69.5443 0.788502C70.0003 0.940502 70.3518 1.0925 70.6083 1.2445C70.9065 1.39442 71.1664 1.6105 71.3683 1.87625C71.5309 2.12356 71.6092 2.4168 71.5915 2.71225V3.9045C71.5915 4.4365 71.392 4.71675 71.012 4.71675C70.6756 4.67833 70.3497 4.5751 70.0525 4.41275C68.5251 3.73566 66.8687 3.39855 65.198 3.42475C63.7588 3.42475 62.6188 3.65275 61.835 4.13725C61.0513 4.61225 60.6475 5.35325 60.6475 6.3935C60.6475 7.10125 60.8993 7.70925 61.4075 8.19375C61.911 8.6735 62.8468 9.15325 64.1863 9.5855L67.7773 10.7255C69.5965 11.3098 70.9123 12.122 71.696 13.1623C72.4798 14.2025 72.855 15.3948 72.855 16.7153C72.855 17.8078 72.6318 18.791 72.1995 19.6555C71.7521 20.523 71.1236 21.2844 70.3565 21.888C69.5728 22.5197 68.637 22.9805 67.5493 23.3083C66.4093 23.6645 65.2218 23.8403 63.9345 23.8403Z" fill="#D1D3D3"/>
<path fill-rule="evenodd" clip-rule="evenodd" d="M68.7084 36.1619C60.3959 42.3227 48.3119 45.5954 37.9237 45.5954C23.3649 45.5954 10.2454 40.1947 0.336919 31.2172C-0.446831 30.5047 0.260919 29.5404 1.19192 30.1009C11.9127 36.3377 25.1319 40.1187 38.8119 40.1187C48.0317 40.1187 58.1682 38.1902 67.4972 34.2334C68.8889 33.6017 70.0764 35.1454 68.7084 36.1619Z" fill="#F49925"/>
<path fill-rule="evenodd" clip-rule="evenodd" d="M72.1713 32.205C71.112 30.8417 65.146 31.5495 62.4433 31.8772C61.6358 31.9817 61.5075 31.2692 62.239 30.7372C66.989 27.3885 74.8028 28.3527 75.71 29.469C76.622 30.609 75.4583 38.4465 71.0075 42.199C70.3283 42.7832 69.6728 42.484 69.9768 41.724C70.9838 39.2065 73.2353 33.554 72.1713 32.2097V32.205Z" fill="#F49925"/>
</svg>
