<svg width="40" height="40" viewBox="0 0 40 40" fill="none" xmlns="http://www.w3.org/2000/svg">
<path d="M32.7238 24.7208C34.1318 24.5493 37.2368 24.1802 37.7896 24.8922C38.3422 25.5912 37.1712 28.532 36.6448 29.8373C36.487 30.233 36.8291 30.3912 37.1843 30.088C39.5 28.1362 40.1054 24.0613 39.6318 23.468C39.1579 22.888 35.0923 22.3866 32.6184 24.1274C32.2368 24.4042 32.3027 24.7736 32.7238 24.7208Z" fill="#FF9900"/>
<path d="M19.9608 31.8549C25.3688 31.8549 31.6581 30.1536 35.9872 26.9493C36.6976 26.4218 36.0792 25.6176 35.3554 25.9472C30.5002 28.0042 25.224 29.0066 20.4213 29.0066C13.3029 29.0066 6.42131 27.0418 0.842643 23.7978C0.355443 23.5077 -0.0128239 24.0088 0.394909 24.3781C5.55304 29.0461 12.3818 31.8549 19.9608 31.8549Z" fill="#FF9900"/>
<path d="M11.3683 16.756C11.3683 17.244 11.4208 17.6394 11.5128 17.9296C11.6298 18.2559 11.7706 18.5732 11.9342 18.8789C11.9998 18.9845 12.0262 19.0901 12.0262 19.1824C12.0262 19.3144 11.9472 19.4464 11.776 19.5781L10.9472 20.132C10.8288 20.2109 10.7102 20.2506 10.6051 20.2506C10.4734 20.2506 10.3419 20.1845 10.2104 20.0658C10.033 19.8749 9.87437 19.6673 9.73658 19.4461C9.58948 19.1927 9.45335 18.9331 9.32858 18.668C8.30245 19.8813 7.01285 20.488 5.46031 20.488C4.35498 20.488 3.47365 20.1714 2.82885 19.5386C2.18405 18.9056 1.85498 18.0613 1.85498 17.0066C1.85498 15.8856 2.24965 14.9757 3.05231 14.2901C3.85498 13.6042 4.92085 13.2616 6.27631 13.2616C6.72351 13.2616 7.18405 13.301 7.67098 13.3669C8.15765 13.433 8.65765 13.5384 9.18405 13.657V12.6944C9.18405 11.6922 8.97338 10.9933 8.56538 10.5845C8.14458 10.1757 7.43391 9.97809 6.42085 9.97809C5.96031 9.97809 5.48671 10.0306 4.99978 10.1493C4.51604 10.2648 4.04114 10.4147 3.57871 10.5978C3.42909 10.6649 3.27526 10.7222 3.11818 10.7693C3.02618 10.7954 2.96031 10.8088 2.90751 10.8088C2.72351 10.8088 2.63125 10.677 2.63125 10.4V9.75382C2.63125 9.54289 2.65791 9.38449 2.72351 9.29249C2.78911 9.19995 2.90751 9.10769 3.09178 9.01515C3.55231 8.77782 4.10511 8.58022 4.74965 8.42182C5.39445 8.25062 6.07898 8.17115 6.80245 8.17115C8.36831 8.17115 9.51285 8.52742 10.2496 9.23942C10.9734 9.95142 11.3419 11.033 11.3419 12.4834V16.756H11.3683ZM6.02618 18.7605C6.46031 18.7605 6.90778 18.6813 7.38138 18.5232C7.85498 18.3648 8.27605 18.0746 8.63125 17.6792C8.84191 17.4285 8.99978 17.1517 9.07871 16.8352C9.15765 16.5186 9.21018 16.1362 9.21018 15.688V15.1341C8.81123 15.0368 8.40712 14.962 7.99978 14.9101C7.58958 14.8578 7.1765 14.8312 6.76298 14.8306C5.88138 14.8306 5.23658 15.0021 4.80245 15.3581C4.36831 15.7144 4.15765 16.2154 4.15765 16.8746C4.15765 17.4944 4.31551 17.956 4.64458 18.2725C4.96031 18.6021 5.42085 18.7605 6.02591 18.7605H6.02618ZM16.5918 20.1845C16.355 20.1845 16.1971 20.145 16.0918 20.0528C15.9867 19.9736 15.8944 19.7888 15.8155 19.5384L12.7235 9.34502C12.6446 9.08102 12.6051 8.90982 12.6051 8.81755C12.6051 8.60662 12.7102 8.48795 12.9208 8.48795H14.2102C14.4603 8.48795 14.6315 8.52742 14.7235 8.61969C14.8288 8.69889 14.9075 8.88369 14.9867 9.13409L17.1974 17.8637L19.2499 9.13409C19.3155 8.87009 19.3944 8.69889 19.4998 8.61969C19.6051 8.54049 19.7891 8.48795 20.0262 8.48795H21.0787C21.3288 8.48795 21.4998 8.52742 21.6051 8.61969C21.7104 8.69889 21.8024 8.88369 21.855 9.13409L23.9339 17.9693L26.2104 9.13409C26.2891 8.87009 26.3811 8.69889 26.4734 8.61969C26.5787 8.54049 26.7496 8.48795 26.9867 8.48795H28.2102C28.4208 8.48795 28.5392 8.59329 28.5392 8.81755C28.5392 8.88342 28.5262 8.94929 28.5128 9.02849C28.4923 9.14092 28.4615 9.25125 28.4208 9.35809L25.2499 19.552C25.1707 19.8157 25.0787 19.9869 24.9734 20.0661C24.8683 20.1453 24.6971 20.1981 24.4734 20.1981H23.3419C23.0918 20.1981 22.9206 20.1584 22.8155 20.0661C22.7104 19.9738 22.6182 19.8024 22.5656 19.5386L20.5262 11.0333L18.4998 19.5256C18.4339 19.7893 18.355 19.9608 18.2496 20.053C18.1446 20.1453 17.9603 20.1848 17.7235 20.1848L16.5918 20.1845ZM33.4998 20.5408C32.8155 20.5408 32.1312 20.4616 31.4734 20.3034C30.8155 20.145 30.3024 19.9736 29.9603 19.7757C29.7496 19.657 29.6051 19.525 29.5523 19.4066C29.5011 19.2902 29.4743 19.1645 29.4734 19.0373V18.3648C29.4734 18.088 29.5787 17.956 29.776 17.956C29.855 17.956 29.9339 17.9693 30.0128 17.9954C30.0918 18.0221 30.2102 18.0746 30.3419 18.1274C30.8066 18.3322 31.2919 18.4869 31.7894 18.5888C32.3155 18.6944 32.8288 18.7472 33.355 18.7472C34.184 18.7472 34.8288 18.6021 35.276 18.312C35.7235 18.0218 35.9603 17.6 35.9603 17.0592C35.9603 16.6901 35.8419 16.3869 35.6051 16.1362C35.3683 15.8856 34.9208 15.6616 34.276 15.4506L32.3683 14.857C31.4078 14.5538 30.6971 14.1056 30.263 13.512C29.8288 12.9317 29.6051 12.2856 29.6051 11.6C29.6051 11.0461 29.7235 10.5581 29.9603 10.1362C30.1971 9.71435 30.5128 9.34502 30.9078 9.05489C31.3024 8.75169 31.7496 8.52742 32.276 8.36929C32.8024 8.21089 33.355 8.14502 33.9339 8.14502C34.2235 8.14502 34.5262 8.15835 34.8155 8.19782C35.1182 8.23729 35.3945 8.29009 35.6707 8.34289C35.9339 8.40875 36.184 8.47462 36.4208 8.55355C36.6576 8.63302 36.8419 8.71195 36.9734 8.79115C37.1576 8.89675 37.2894 9.00209 37.3683 9.12075C37.4472 9.22635 37.4867 9.37142 37.4867 9.55595V10.176C37.4867 10.453 37.3814 10.5981 37.184 10.5981C37.0787 10.5981 36.9078 10.5453 36.684 10.4397C35.9339 10.097 35.0918 9.92555 34.1576 9.92555C33.4078 9.92555 32.8155 10.0442 32.4078 10.2946C31.9998 10.5453 31.7894 10.9277 31.7894 11.4685C31.7894 11.8376 31.9208 12.1538 32.184 12.4045C32.4472 12.6552 32.9339 12.9058 33.6312 13.1298L35.4998 13.7234C36.4472 14.0266 37.1312 14.4488 37.5392 14.9893C37.9472 15.5298 38.1446 16.1496 38.1446 16.8354C38.1446 17.4024 38.0262 17.9168 37.8024 18.365C37.5656 18.8133 37.2499 19.209 36.8419 19.5256C36.4339 19.8552 35.9472 20.0925 35.3814 20.264C34.7894 20.4485 34.1707 20.5408 33.4998 20.5408Z" fill="#252F3E"/>
</svg>
