<svg xmlns="http://www.w3.org/2000/svg" width="20.438" height="20.447" xmlns:v="https://vecta.io/nano"><defs><clipPath id="A"><path d="M20.551,9.843a10.215,10.215,0,1,1-20.4,1.084,6.878,6.878,0,0,1,0-1.084,10.215,10.215,0,0,1,20.4,0Z" transform="translate(371.22 10142.407)" fill="#f5f5f5"/></clipPath></defs><g transform="translate(-371.347 -10142.561)" clip-path="url(#A)"><path d="M363.658 10142.561h35.817v20.447h-35.817" fill="#d0112c"/><path d="M380.344 10163.008h-16.686v-20.447h16.686l4.551 1.136-4.551 1.136 4.551 1.136-4.551 1.136 4.55 1.136-4.55 1.136 4.551 1.136-4.551 1.135 4.551 1.136-4.551 1.136 4.55 1.141-4.551 1.136 4.551 1.136-4.55 1.128 4.551 1.136-4.551 1.136 4.551 1.136z" fill="#fff"/></g></svg>