<svg width="90" height="189" viewBox="0 0 90 189" fill="none" xmlns="http://www.w3.org/2000/svg">
<g clip-path="url(#clip0_16137_189)">
<path d="M3.2 109.2C4.96731 109.2 6.4 107.767 6.4 106C6.4 104.233 4.96731 102.8 3.2 102.8C1.43269 102.8 0 104.233 0 106C0 107.767 1.43269 109.2 3.2 109.2Z" fill="#C4C4C4"/>
<path d="M34.3 106C34.3 107.8 32.9 109.2 31.1 109.2C29.3 109.2 27.9 107.8 27.9 106C27.9 104.2 29.3 102.8 31.1 102.8C32.9 102.7 34.3 104.2 34.3 106Z" fill="#C4C4C4"/>
<path d="M58.9 109.2C60.6673 109.2 62.0999 107.767 62.0999 106C62.0999 104.233 60.6673 102.8 58.9 102.8C57.1326 102.8 55.7 104.233 55.7 106C55.7 107.767 57.1326 109.2 58.9 109.2Z" fill="#C4C4C4"/>
<path d="M90 106C90 107.8 88.6 109.2 86.8 109.2C85 109.2 83.6 107.8 83.6 106C83.6 104.2 85 102.8 86.8 102.8C88.5 102.7 90 104.2 90 106Z" fill="#C4C4C4"/>
<path d="M6.49998 132.4C6.49998 134.2 5.09998 135.6 3.29998 135.6C1.49998 135.6 0.0999756 134.2 0.0999756 132.4C0.0999756 130.6 1.49998 129.2 3.29998 129.2C4.99998 129.1 6.49998 130.6 6.49998 132.4Z" fill="#C4C4C4"/>
<path d="M34.3 132.4C34.3 134.2 32.9 135.6 31.1 135.6C29.3 135.6 27.9 134.2 27.9 132.4C27.9 130.6 29.3 129.2 31.1 129.2C32.9 129.1 34.3 130.6 34.3 132.4Z" fill="#C4C4C4"/>
<path d="M62.0999 132.4C62.0999 134.2 60.7 135.6 58.9 135.6C57.1 135.6 55.7 134.2 55.7 132.4C55.7 130.6 57.1 129.2 58.9 129.2C60.7 129.1 62.0999 130.6 62.0999 132.4Z" fill="#C4C4C4"/>
<path d="M90 132.4C90 134.2 88.6 135.6 86.8 135.6C85 135.6 83.6 134.2 83.6 132.4C83.6 130.6 85 129.2 86.8 129.2C88.5 129.1 90 130.6 90 132.4Z" fill="#C4C4C4"/>
<path d="M3.2 162C4.96731 162 6.4 160.567 6.4 158.8C6.4 157.033 4.96731 155.6 3.2 155.6C1.43269 155.6 0 157.033 0 158.8C0 160.567 1.43269 162 3.2 162Z" fill="#C4C4C4"/>
<path d="M34.3 158.8C34.3 160.6 32.9 162 31.1 162C29.3 162 27.9 160.6 27.9 158.8C27.9 157 29.3 155.6 31.1 155.6C32.9 155.5 34.3 157 34.3 158.8Z" fill="#C4C4C4"/>
<path d="M58.9 162C60.6673 162 62.0999 160.567 62.0999 158.8C62.0999 157.033 60.6673 155.6 58.9 155.6C57.1326 155.6 55.7 157.033 55.7 158.8C55.7 160.567 57.1326 162 58.9 162Z" fill="#C4C4C4"/>
<path d="M90 158.8C90 160.6 88.6 162 86.8 162C85 162 83.6 160.6 83.6 158.8C83.6 157 85 155.6 86.8 155.6C88.5 155.5 90 157 90 158.8Z" fill="#C4C4C4"/>
<path d="M6.49998 185.2C6.49998 187 5.09998 188.4 3.29998 188.4C1.49998 188.4 0.0999756 187 0.0999756 185.2C0.0999756 183.4 1.49998 182 3.29998 182C4.99998 181.9 6.49998 183.4 6.49998 185.2Z" fill="#C4C4C4"/>
<path d="M34.3 185.2C34.3 187 32.9 188.4 31.1 188.4C29.3 188.4 27.9 187 27.9 185.2C27.9 183.4 29.3 182 31.1 182C32.9 181.9 34.3 183.4 34.3 185.2Z" fill="#C4C4C4"/>
<path d="M62.0999 185.2C62.0999 187 60.7 188.4 58.9 188.4C57.1 188.4 55.7 187 55.7 185.2C55.7 183.4 57.1 182 58.9 182C60.7 181.9 62.0999 183.4 62.0999 185.2Z" fill="#C4C4C4"/>
<path d="M90 185.2C90 187 88.6 188.4 86.8 188.4C85 188.4 83.6 187 83.6 185.2C83.6 183.4 85 182 86.8 182C88.5 181.9 90 183.4 90 185.2Z" fill="#C4C4C4"/>
<path d="M6.5 3.2C6.5 5 5 6.5 3.2 6.5C1.4 6.5 0 5 0 3.2C0 1.4 1.4 0 3.2 0C5 0 6.5 1.4 6.5 3.2Z" fill="#C4C4C4"/>
<path d="M34.3 3.2C34.3 5 32.9 6.4 31.1 6.4C29.3 6.4 27.9 5 27.9 3.2C27.9 1.4 29.3 0 31.1 0C32.9 0 34.3 1.4 34.3 3.2Z" fill="#C4C4C4"/>
<path d="M62.0999 3.2C62.0999 5 60.7 6.4 58.9 6.4C57.1 6.4 55.7 5 55.7 3.2C55.7 1.4 57.1 0 58.9 0C60.7 0 62.0999 1.4 62.0999 3.2Z" fill="#C4C4C4"/>
<path d="M90 3.2C90 5 88.6 6.4 86.8 6.4C85 6.4 83.6 5 83.6 3.2C83.6 1.4 85 0 86.8 0C88.5 0 90 1.4 90 3.2Z" fill="#C4C4C4"/>
<path d="M6.49998 29.5999C6.49998 31.3999 5.09998 32.7999 3.29998 32.7999C1.49998 32.7999 0.0999756 31.3999 0.0999756 29.5999C0.0999756 27.7999 1.49998 26.3999 3.29998 26.3999C4.99998 26.3999 6.49998 27.7999 6.49998 29.5999Z" fill="#C4C4C4"/>
<path d="M34.3 29.5999C34.3 31.3999 32.9 32.7999 31.1 32.7999C29.3 32.7999 27.9 31.3999 27.9 29.5999C27.9 27.7999 29.3 26.3999 31.1 26.3999C32.9 26.3999 34.3 27.7999 34.3 29.5999Z" fill="#C4C4C4"/>
<path d="M62.0999 29.5999C62.0999 31.3999 60.7 32.7999 58.9 32.7999C57.1 32.7999 55.7 31.3999 55.7 29.5999C55.7 27.7999 57.1 26.3999 58.9 26.3999C60.7 26.3999 62.0999 27.7999 62.0999 29.5999Z" fill="#C4C4C4"/>
<path d="M90 29.5999C90 31.3999 88.6 32.7999 86.8 32.7999C85 32.7999 83.6 31.3999 83.6 29.5999C83.6 27.7999 85 26.3999 86.8 26.3999C88.5 26.3999 90 27.7999 90 29.5999Z" fill="#C4C4C4"/>
<path d="M6.5 56C6.5 57.8 5.1 59.2001 3.3 59.2001C1.4 59.3001 0 57.8 0 56C0 54.2 1.4 52.8 3.2 52.8C5 52.8 6.5 54.2 6.5 56Z" fill="#C4C4C4"/>
<path d="M34.3 56C34.3 57.8 32.9 59.2001 31.1 59.2001C29.3 59.2001 27.9 57.8 27.9 56C27.9 54.2 29.3 52.8 31.1 52.8C32.9 52.8 34.3 54.2 34.3 56Z" fill="#C4C4C4"/>
<path d="M62.0999 56C62.0999 57.8 60.7 59.2001 58.9 59.2001C57.1 59.2001 55.7 57.8 55.7 56C55.7 54.2 57.1 52.8 58.9 52.8C60.7 52.8 62.0999 54.2 62.0999 56Z" fill="#C4C4C4"/>
<path d="M90 56C90 57.8 88.6 59.2001 86.8 59.2001C85 59.2001 83.6 57.8 83.6 56C83.6 54.2 85 52.8 86.8 52.8C88.5 52.8 90 54.2 90 56Z" fill="#C4C4C4"/>
<path d="M6.49998 82.4C6.49998 84.2 5.09998 85.6 3.29998 85.6C1.49998 85.6 0.0999756 84.2 0.0999756 82.4C0.0999756 80.6 1.49998 79.2 3.29998 79.2C4.99998 79.2 6.49998 80.6 6.49998 82.4Z" fill="#C4C4C4"/>
<path d="M34.3 82.4C34.3 84.2 32.9 85.6 31.1 85.6C29.3 85.6 27.9 84.2 27.9 82.4C27.9 80.6 29.3 79.2 31.1 79.2C32.9 79.2 34.3 80.6 34.3 82.4Z" fill="#C4C4C4"/>
<path d="M62.0999 82.4C62.0999 84.2 60.7 85.6 58.9 85.6C57.1 85.6 55.7 84.2 55.7 82.4C55.7 80.6 57.1 79.2 58.9 79.2C60.7 79.2 62.0999 80.6 62.0999 82.4Z" fill="#C4C4C4"/>
<path d="M90 82.4C90 84.2 88.6 85.6 86.8 85.6C85 85.6 83.6 84.2 83.6 82.4C83.6 80.6 85 79.2 86.8 79.2C88.5 79.2 90 80.6 90 82.4Z" fill="#C4C4C4"/>
</g>
<defs>
<clipPath id="clip0_16137_189">
<rect width="90" height="188.4" fill="white"/>
</clipPath>
</defs>
</svg>
