<svg width="158" height="76" viewBox="0 0 158 76" fill="none" xmlns="http://www.w3.org/2000/svg">
<g clip-path="url(#clip0_16137_240)">
<path d="M68.9 5.4C67.4 5.4 66.2 4.2 66.2 2.7C66.2 1.2 67.4 0 68.9 0C70.4 0 71.6 1.2 71.6 2.7C71.6 4.2 70.4 5.4 68.9 5.4Z" fill="#C4C4C4"/>
<path d="M68.9 28.7001C67.4 28.7001 66.2 27.5 66.2 26C66.2 24.5 67.4 23.3 68.9 23.3C70.4 23.3 71.6 24.5 71.6 26C71.6 27.5 70.4 28.7001 68.9 28.7001Z" fill="#C4C4C4"/>
<path d="M68.9 51.9C67.4 51.9 66.2 50.7 66.2 49.2C66.2 47.7 67.4 46.5 68.9 46.5C70.4 46.5 71.6 47.7 71.6 49.2C71.6 50.7 70.4 51.9 68.9 51.9Z" fill="#C4C4C4"/>
<path d="M68.9 75.2C67.4 75.2 66.2 74 66.2 72.5C66.2 71 67.4 69.8 68.9 69.8C70.4 69.8 71.6 71 71.6 72.5C71.6 74 70.4 75.2 68.9 75.2Z" fill="#C4C4C4"/>
<path d="M46.8 5.4C45.3 5.4 44.1 4.2 44.1 2.7C44.1 1.2 45.3 0 46.8 0C48.3 0 49.5 1.2 49.5 2.7C49.5 4.2 48.3 5.4 46.8 5.4Z" fill="#C4C4C4"/>
<path d="M46.8 28.7001C45.3 28.7001 44.1 27.5 44.1 26C44.1 24.5 45.3 23.3 46.8 23.3C48.3 23.3 49.5 24.5 49.5 26C49.5 27.5 48.3 28.7001 46.8 28.7001Z" fill="#C4C4C4"/>
<path d="M46.8 51.9C45.3 51.9 44.1 50.7 44.1 49.2C44.1 47.7 45.3 46.5 46.8 46.5C48.3 46.5 49.5 47.7 49.5 49.2C49.5 50.7 48.3 51.9 46.8 51.9Z" fill="#C4C4C4"/>
<path d="M46.8 75.2C45.3 75.2 44.1 74 44.1 72.5C44.1 71 45.3 69.8 46.8 69.8C48.3 69.8 49.5 71 49.5 72.5C49.5 74 48.3 75.2 46.8 75.2Z" fill="#C4C4C4"/>
<path d="M24.8 5.4C23.3 5.4 22.1 4.2 22.1 2.7C22.1 1.2 23.3 0 24.8 0C26.3 0 27.5 1.2 27.5 2.7C27.5 4.2 26.3 5.4 24.8 5.4Z" fill="#C4C4C4"/>
<path d="M24.8 28.7001C23.3 28.7001 22.1 27.5 22.1 26C22.1 24.5 23.3 23.3 24.8 23.3C26.3 23.3 27.5 24.5 27.5 26C27.5 27.5 26.3 28.7001 24.8 28.7001Z" fill="#C4C4C4"/>
<path d="M24.8 51.9C23.3 51.9 22.1 50.7 22.1 49.2C22.1 47.7 23.3 46.5 24.8 46.5C26.3 46.5 27.5 47.7 27.5 49.2C27.5 50.7 26.3 51.9 24.8 51.9Z" fill="#C4C4C4"/>
<path d="M24.8 75.2C23.3 75.2 22.1 74 22.1 72.5C22.1 71 23.3 69.8 24.8 69.8C26.3 69.8 27.5 71 27.5 72.5C27.5 74 26.3 75.2 24.8 75.2Z" fill="#C4C4C4"/>
<path d="M2.7 5.4C1.2 5.4 0 4.2 0 2.7C0 1.2 1.2 0 2.7 0C4.2 0 5.4 1.2 5.4 2.7C5.4 4.2 4.2 5.4 2.7 5.4Z" fill="#C4C4C4"/>
<path d="M2.7 28.7001C1.2 28.7001 0 27.5 0 26C0 24.5 1.2 23.3 2.7 23.3C4.2 23.3 5.4 24.5 5.4 26C5.4 27.5 4.2 28.7001 2.7 28.7001Z" fill="#C4C4C4"/>
<path d="M2.7 51.9C1.2 51.9 0 50.7 0 49.2C0 47.7 1.2 46.5 2.7 46.5C4.2 46.5 5.4 47.7 5.4 49.2C5.4 50.7 4.2 51.9 2.7 51.9Z" fill="#C4C4C4"/>
<path d="M2.7 75.2C1.2 75.2 0 74 0 72.5C0 71 1.2 69.8 2.7 69.8C4.2 69.8 5.4 71 5.4 72.5C5.4 74 4.2 75.2 2.7 75.2Z" fill="#C4C4C4"/>
<path d="M154.7 5.4C153.2 5.4 152 4.2 152 2.7C152 1.2 153.2 0 154.7 0C156.2 0 157.4 1.2 157.4 2.7C157.4 4.2 156.2 5.4 154.7 5.4Z" fill="#C4C4C4"/>
<path d="M154.7 28.7001C153.2 28.7001 152 27.5 152 26C152 24.5 153.2 23.3 154.7 23.3C156.2 23.3 157.4 24.5 157.4 26C157.4 27.5 156.2 28.7001 154.7 28.7001Z" fill="#C4C4C4"/>
<path d="M154.7 51.9C153.2 51.9 152 50.7 152 49.2C152 47.7 153.2 46.5 154.7 46.5C156.2 46.5 157.4 47.7 157.4 49.2C157.4 50.7 156.2 51.9 154.7 51.9Z" fill="#C4C4C4"/>
<path d="M154.7 75.2C153.2 75.2 152 74 152 72.5C152 71 153.2 69.8 154.7 69.8C156.2 69.8 157.4 71 157.4 72.5C157.4 74 156.2 75.2 154.7 75.2Z" fill="#C4C4C4"/>
<path d="M132.7 5.4C131.2 5.4 130 4.2 130 2.7C130 1.2 131.2 0 132.7 0C134.2 0 135.4 1.2 135.4 2.7C135.4 4.2 134.2 5.4 132.7 5.4Z" fill="#C4C4C4"/>
<path d="M132.7 28.7001C131.2 28.7001 130 27.5 130 26C130 24.5 131.2 23.3 132.7 23.3C134.2 23.3 135.4 24.5 135.4 26C135.4 27.5 134.2 28.7001 132.7 28.7001Z" fill="#C4C4C4"/>
<path d="M132.7 51.9C131.2 51.9 130 50.7 130 49.2C130 47.7 131.2 46.5 132.7 46.5C134.2 46.5 135.4 47.7 135.4 49.2C135.4 50.7 134.2 51.9 132.7 51.9Z" fill="#C4C4C4"/>
<path d="M132.7 75.2C131.2 75.2 130 74 130 72.5C130 71 131.2 69.8 132.7 69.8C134.2 69.8 135.4 71 135.4 72.5C135.4 74 134.2 75.2 132.7 75.2Z" fill="#C4C4C4"/>
<path d="M110.6 5.4C109.1 5.4 107.9 4.2 107.9 2.7C107.9 1.2 109.1 0 110.6 0C112.1 0 113.3 1.2 113.3 2.7C113.3 4.2 112.1 5.4 110.6 5.4Z" fill="#C4C4C4"/>
<path d="M110.6 28.7001C109.1 28.7001 107.9 27.5 107.9 26C107.9 24.5 109.1 23.3 110.6 23.3C112.1 23.3 113.3 24.5 113.3 26C113.3 27.5 112.1 28.7001 110.6 28.7001Z" fill="#C4C4C4"/>
<path d="M110.6 51.9C109.1 51.9 107.9 50.7 107.9 49.2C107.9 47.7 109.1 46.5 110.6 46.5C112.1 46.5 113.3 47.7 113.3 49.2C113.3 50.7 112.1 51.9 110.6 51.9Z" fill="#C4C4C4"/>
<path d="M110.6 75.2C109.1 75.2 107.9 74 107.9 72.5C107.9 71 109.1 69.8 110.6 69.8C112.1 69.8 113.3 71 113.3 72.5C113.3 74 112.1 75.2 110.6 75.2Z" fill="#C4C4C4"/>
<path d="M88.6 5.4C87.1 5.4 85.9 4.2 85.9 2.7C85.9 1.2 87.1 0 88.6 0C90.1 0 91.3 1.2 91.3 2.7C91.3 4.2 90 5.4 88.6 5.4Z" fill="#C4C4C4"/>
<path d="M88.6 28.7001C87.1 28.7001 85.9 27.5 85.9 26C85.9 24.5 87.1 23.3 88.6 23.3C90.1 23.3 91.3 24.5 91.3 26C91.3 27.5 90 28.7001 88.6 28.7001Z" fill="#C4C4C4"/>
<path d="M88.6 51.9C87.1 51.9 85.9 50.7 85.9 49.2C85.9 47.7 87.1 46.5 88.6 46.5C90.1 46.5 91.3 47.7 91.3 49.2C91.3 50.7 90 51.9 88.6 51.9Z" fill="#C4C4C4"/>
<path d="M88.6 75.2C87.1 75.2 85.9 74 85.9 72.5C85.9 71 87.1 69.8 88.6 69.8C90.1 69.8 91.3 71 91.3 72.5C91.3 74 90 75.2 88.6 75.2Z" fill="#C4C4C4"/>
</g>
<defs>
<clipPath id="clip0_16137_240">
<rect width="157.4" height="75.2" fill="white"/>
</clipPath>
</defs>
</svg>
