<svg xmlns="http://www.w3.org/2000/svg" width="20.44" height="20.449" xmlns:v="https://vecta.io/nano"><defs><clipPath id="A"><path d="M20.553,9.844a10.216,10.216,0,1,1-20.4,1.084,6.879,6.879,0,0,1,0-1.084,10.215,10.215,0,0,1,20.4,0Z" transform="translate(5162.433 -11762.177)" fill="#fff"/></clipPath></defs><g transform="translate(-5162.561 11762.023)" clip-path="url(#A)"><path d="M5162.117-11761.518h5.332l.22.425h10.224l.224-.425h5.332v20.593h-5.332l-.22-.425h-10.228l-.22.425h-5.332z" fill="red"/><path d="M5167.449-11762.331h10.664v21.4h-10.664zm5.532 15.04l-.1-1.917a.21.21 0 0 1 .247-.218l1.908.335-.258-.711c-.022-.058-.004-.123.044-.162l2.091-1.693-.471-.22c-.066-.031-.099-.107-.076-.176l.413-1.271-1.2.255c-.067.014-.135-.021-.162-.084l-.233-.549-.94 1.009c-.044.048-.114.06-.172.031s-.088-.094-.075-.158l.452-2.334-.727.42c-.033.02-.073.026-.111.016s-.07-.034-.089-.068v-.008l-.741-1.448-.738 1.449c-.017.034-.047.061-.083.073s-.076.009-.111-.008h-.008l-.727-.42.453 2.337c.013.063-.017.128-.075.158s-.128.017-.172-.031l-.94-1.009-.233.549c-.027.063-.095.098-.162.084l-1.2-.255.413 1.271c.023.069-.01.145-.076.176l-.471.22 2.091 1.693c.048.039.066.104.044.162l-.258.711 1.908-.335a.21.21 0 0 1 .247.218l-.1 1.917z" fill="#fff"/></g></svg>