<svg xmlns="http://www.w3.org/2000/svg" width="20.44" height="20.449" xmlns:v="https://vecta.io/nano"><defs><clipPath id="A"><path d="M20.553,9.844a10.216,10.216,0,1,1-20.4,1.084,6.879,6.879,0,0,1,0-1.084,10.215,10.215,0,0,1,20.4,0Z" transform="translate(5379.433 -11762.177)" fill="#fff"/></clipPath><path id="B" d="M5390.633-11758.09l-.072.824.745.332-.807.16-.092.821-.409-.713-.799.175.545-.619-.411-.702.76.338"/></defs><g transform="translate(-5379.561 11762.023)" clip-path="url(#A)"><path d="M5374.444-11762.023h30.674v20.449h-30.674z" fill="#ee1c25"/><g fill="#ffff3f"><path d="M5384.861-11757.086l.772 2.241h2.336l-1.926 1.359.718 2.255-1.9-1.39-1.886 1.39.705-2.255-1.9-1.359h2.381"/><use href="#B"/><path d="M5390.633-11750.259l-.072.824.745.332-.807.16-.092.821-.409-.713-.799.175.545-.619-.411-.702.76.338m3.022-6.064l-.363.743.576.576-.81-.14-.38.733-.126-.812-.808-.122.73-.383-.132-.803.588.588m.003 2.588l.269.783h.815l-.672.474.251.787-.663-.486-.658.486.245-.787-.662-.474h.831"/></g></g></svg>