<svg width="692" height="692" viewBox="0 0 692 692" fill="none" xmlns="http://www.w3.org/2000/svg">
<g clip-path="url(#clip0_16141_295)">
<g opacity="0.15">
<path d="M345.5 691.1C298.9 691.1 253.6 682 211 663.9C169.8 646.5 132.9 621.6 101.2 589.9C69.5 558.2 44.6 521.2 27.2 480.1C9.1 437.4 0 392.2 0 345.5C0 298.8 9.1 253.7 27.2 211C44.6 169.8 69.5 132.9 101.2 101.2C132.9 69.5 169.9 44.6 211 27.2C253.7 9.1 298.9 0 345.5 0C392.1 0 437.4 9.1 480 27.2C521.2 44.6 558.1 69.5 589.8 101.2C621.5 132.9 646.4 169.9 663.8 211C681.8 253.6 691 298.9 691 345.5C691 392.1 681.9 437.4 663.8 480C646.4 521.2 621.5 558.1 589.8 589.8C558.1 621.5 521.1 646.4 480 663.8C437.4 681.9 392.2 691.1 345.5 691.1ZM345.5 120C221.2 120 120 221.2 120 345.5C120 469.8 221.2 571 345.5 571C469.8 571 571 469.8 571 345.5C571 221.2 469.9 120 345.5 120Z" fill="#5952B9"/>
</g>
</g>
<defs>
<clipPath id="clip0_16141_295">
<rect width="691.1" height="691.1" fill="white"/>
</clipPath>
</defs>
</svg>
