<svg width="40" height="40" viewBox="0 0 40 40" fill="none" xmlns="http://www.w3.org/2000/svg">
<g clip-path="url(#clip0_14096_77)">
<path d="M20.0074 1.15287e-06C31.0503 0.00371357 40 8.95714 40 20V20.0074C39.9963 31.0521 31.0392 40.0037 19.9926 40C8.94786 39.9963 -0.00370896 31.0373 1.15287e-06 19.9926C0.00371357 8.94786 8.96085 -0.00370896 20.0074 1.15287e-06ZM19.9054 5.14381C19.3561 7.22212 17.5042 9.06847 15.565 11.0076C12.6647 13.9154 9.36723 17.2054 9.36723 22.147C9.37465 27.9588 14.0805 32.6703 19.8924 32.6851C25.7153 32.6851 30.4379 27.9681 30.4435 22.147C30.4435 17.2054 27.1553 13.9172 24.2457 11.0076L23.9858 10.7477C22.1432 8.90282 20.4283 7.13084 19.9054 5.14381ZM20.0482 20.9241C21.2581 22.2138 22.0264 23.1026 22.8224 24.0731C22.8818 24.1455 22.9356 24.2234 22.9839 24.3069C23.9581 25.7116 23.8263 27.6044 22.6665 28.8588C21.3008 30.3377 18.9961 30.4287 17.5172 29.0629C16.0382 27.6972 15.9473 25.3925 17.313 23.9135C18.0887 22.9968 19.0258 22.095 20.0482 20.9241ZM15.2329 16.0883L15.7413 16.5689L18.1017 18.9831C18.1908 19.0852 18.1908 19.2355 18.1017 19.3375L15.6337 22.0653L14.7708 23.1156C14.4424 23.5164 14.164 23.9525 13.9414 24.4201C13.9098 24.4981 13.843 24.5556 13.7614 24.5741H13.6742C13.4348 24.5537 13.1601 24.1121 13.1601 24.1121L13.1165 24.0459C13.0595 23.9571 13.0072 23.8657 12.9597 23.7706L12.9133 23.6704C12.5756 22.5719 12.5496 21.401 12.8336 20.2876L12.8655 20.1719C13.1276 19.2477 13.5411 18.3712 14.0898 17.5803C14.4424 17.0607 14.8246 16.5634 15.2329 16.0883ZM19.9202 11.208C20.5493 11.9224 21.2581 12.6387 21.9261 13.3067L21.941 13.3531C23.3383 14.6539 24.6001 16.092 25.7116 17.6452C26.6543 18.9701 27.1702 20.5511 27.1887 22.1785C27.1887 22.8818 27.0829 23.5795 26.8751 24.2513L26.8648 24.279C26.8089 24.4151 26.6872 24.5145 26.5411 24.5389H26.4743C26.3296 24.4925 26.2089 24.396 26.1329 24.2642L26.021 24.0962C25.4193 23.2036 24.7408 22.3657 23.9933 21.5903L23.0302 20.5734L19.82 17.2295C19.2782 16.7081 18.3095 15.7729 17.9013 15.2644C17.8883 15.2366 17.8734 15.2106 17.8549 15.1846C17.7436 15.0325 17.6582 14.8636 17.6007 14.6836V14.5834C17.545 14.2568 17.5895 13.921 17.7269 13.6203C17.8159 13.4292 17.9384 13.2548 18.0887 13.1063C18.7103 12.4847 19.332 11.876 19.9202 11.208Z" fill="#009DDE"/>
</g>
<defs>
<clipPath id="clip0_14096_77">
<rect width="40" height="40" fill="white"/>
</clipPath>
</defs>
</svg>
