<svg width="48" height="48" viewBox="0 0 48 48" fill="none" xmlns="http://www.w3.org/2000/svg">
<path d="M24.178 46.5882C13.6802 46.5882 4.23828 38.3266 4.23828 27.0889C4.23828 15.8682 12.9856 10.6757 14.6063 9.82586C16.5376 8.7981 17.9268 8.25598 20.1122 6.50821C21.1936 5.65833 22.0943 4.42163 22.3795 1.41174C23.9465 3.28939 25.827 5.4748 27.1625 6.37833C29.3507 7.81833 31.539 8.38586 33.826 9.82586C35.2152 10.6757 43.7592 15.8964 43.7592 27.4475C43.7592 38.9732 34.6505 46.5882 24.178 46.5882ZM39.6143 27.9614C37.5559 27.9614 33.3884 32.2334 31.203 32.2588C28.659 32.3096 25.1352 27.2132 20.0388 27.2612C16.0237 27.2894 12.8613 30.48 12.8077 33.8767C12.7823 35.7826 13.4006 37.1972 14.7136 38.095C15.5889 38.6852 16.3851 39.0466 18.9828 39.0466C23.3056 39.0466 28.786 33.6932 31.3075 33.775C33.3122 33.8484 36.4237 38.767 37.9964 38.8687C39.2303 38.9703 39.874 38.4056 40.9272 36.8894C41.955 35.3449 42.3955 32.9252 42.3955 31.5614C42.3955 30.2259 41.8025 27.9614 39.6143 27.9614ZM33.6482 41.6216C32.7729 42.2654 30.8162 43.0644 28.0378 43.0644C25.2595 43.0644 23.9493 42.4715 23.074 41.8023C22.947 41.7007 22.9978 41.7007 22.738 41.7007C22.4557 41.7007 22.3032 41.8306 22.0717 42.0084C21.8656 42.1892 21.7639 42.6268 22.0717 42.9346C23.9748 44.6823 27.1653 44.5299 29.506 44.3209C31.875 44.0894 33.8825 42.703 34.0858 42.4969C34.3936 42.192 34.3173 41.9322 34.2637 41.7515C34.2129 41.5708 34.0576 41.3167 33.6482 41.6216ZM32.2562 37.2254C31.7423 36.8922 30.9997 36.8386 30.3051 36.8386C29.6077 36.8386 29.2237 36.7877 28.4811 37.0955C27.73 37.4033 26.9592 38.0979 26.4736 38.5383C25.9823 38.9732 25.906 39.3092 26.163 39.6706C26.4228 40.0009 26.7051 39.7948 27.4251 39.1793C28.1705 38.5863 28.6618 38.047 30.178 38.047C31.6943 38.047 31.954 38.6146 32.259 39.1793C32.5696 39.744 32.595 39.823 32.9027 39.6706C33.2642 39.4899 33.4449 39.2301 33.2642 38.7896C33.0806 38.3548 32.7729 37.584 32.2562 37.2254Z" fill="#8D88A3"/>
</svg>
