<svg width="33" height="33" viewBox="0 0 33 33" fill="none" xmlns="http://www.w3.org/2000/svg">
<g clip-path="url(#clip0_16137_157)">
<path d="M1.5 31.5C-0.5 29.5 -0.5 26.4 1.5 24.4L24.5 1.40002C26.5 -0.599976 29.6 -0.599976 31.6 1.40002C33.6 3.40002 33.6 6.50002 31.6 8.50002L8.6 31.5C6.6 33.5 3.4 33.5 1.5 31.5Z" fill="#6F67D4"/>
<path d="M24.5 31.5L1.5 8.50002C-0.5 6.50002 -0.5 3.40002 1.5 1.40002C3.5 -0.599976 6.6 -0.599976 8.6 1.40002L31.6 24.4C33.6 26.4 33.6 29.5 31.6 31.5C29.6 33.5 26.4 33.5 24.5 31.5Z" fill="#6F67D4"/>
</g>
<defs>
<clipPath id="clip0_16137_157">
<rect width="33" height="33" fill="white"/>
</clipPath>
</defs>
</svg>
