<svg width="48" height="48" viewBox="0 0 48 48" fill="none" xmlns="http://www.w3.org/2000/svg">
<g clip-path="url(#clip0_14100_85)">
<path d="M24.3826 4.75804C15.7891 4.56304 8.16308 10.2495 5.91308 18.5475C5.80358 18.5715 6.01508 18.5085 5.91308 18.5475C-1.83742 23.649 -1.93042 34.7655 5.42108 40.431L5.42858 40.416L5.41358 40.479C7.76558 42.252 10.6246 43.1985 13.5706 43.1895H23.9146L23.9776 43.2435H34.3606C47.7361 43.353 53.1106 26.04 42.0331 18.5475C41.0806 15.024 39.1186 11.8605 36.3931 9.44554L36.3076 9.53104L36.3151 9.42904C33.0106 6.51454 28.7836 4.85854 24.3856 4.75654L24.3826 4.75804ZM23.6641 13.0545C26.1481 12.969 28.7026 13.7895 30.6331 15.351C33.0466 17.367 34.4221 20.367 34.3591 23.508V24.5475C41.4211 24.4065 41.4211 35.0715 34.3591 34.9305H23.9761L23.9611 34.9455V34.8675H13.5706C12.8356 34.8675 12.1096 34.7115 11.4376 34.407C8.13308 32.9145 7.34408 28.5705 9.90608 26.001C12.4771 23.439 16.8121 24.228 18.3121 27.5325L24.3361 21.5085C22.3366 18.8985 19.4461 17.1105 16.2196 16.4775C16.2586 16.4625 16.2976 16.431 16.3291 16.4385C18.2191 14.361 20.8681 13.1415 23.6731 13.056L23.6641 13.0545Z" fill="#8D88A3"/>
</g>
<defs>
<clipPath id="clip0_14100_85">
<rect width="48" height="48" fill="white"/>
</clipPath>
</defs>
</svg>
