<svg width="40" height="40" viewBox="0 0 40 40" fill="none" xmlns="http://www.w3.org/2000/svg">
<g clip-path="url(#clip0_14096_47)">
<path d="M26.6017 12.7841L30.0787 9.30712L30.3104 7.84305C23.9743 2.08165 13.9023 2.73493 8.19057 9.20618C6.604 11.0035 5.42697 13.2443 4.79932 15.5582L6.04463 15.3827L12.9985 14.236L13.5354 13.687C16.6287 10.2898 21.8588 9.83274 25.4304 12.7232L26.6017 12.7841Z" fill="#EA4335"/>
<path d="M35.0319 15.456C34.2326 12.5128 32.5919 9.86705 30.3104 7.84314L25.4304 12.7231C27.4911 14.4069 28.665 16.9435 28.6147 19.6039V20.4702C31.0133 20.4702 32.9579 22.4147 32.9579 24.8133C32.9579 27.212 31.0133 29.1078 28.6147 29.1078H19.9161L19.062 30.035V35.2444L19.9161 36.0617H28.6147C34.8537 36.1103 39.9509 31.1408 39.9995 24.9017C40.0289 21.12 38.1644 17.5747 35.0319 15.456Z" fill="#4285F4"/>
<path d="M11.2295 36.0618H19.9159V29.1077H11.2295C10.6106 29.1076 10.0112 28.9746 9.44842 28.7174L8.21607 29.0955L4.71467 32.5726L4.40967 33.756C6.37326 35.2387 8.76904 36.0724 11.2295 36.0618Z" fill="#34A853"/>
<path d="M11.2297 13.504C4.99052 13.5412 -0.0369825 18.6293 0.000204978 24.8684C0.0209862 28.3524 1.64817 31.6321 4.40989 33.756L9.44864 28.7174C7.26255 27.7298 6.29114 25.1571 7.2788 22.9712C8.2663 20.7852 10.8391 19.8138 13.0249 20.8013C13.9882 21.2365 14.7596 22.008 15.1947 22.9712L20.2335 17.9326C18.0896 15.1299 14.7583 13.4913 11.2297 13.504Z" fill="#FBBC05"/>
</g>
<defs>
<clipPath id="clip0_14096_47">
<rect width="40" height="40" fill="white"/>
</clipPath>
</defs>
</svg>
