<svg xmlns="http://www.w3.org/2000/svg" width="20.44" height="20.449" xmlns:v="https://vecta.io/nano"><defs><clipPath id="A"><path d="M20.553,9.844a10.216,10.216,0,1,1-20.4,1.084,6.879,6.879,0,0,1,0-1.084,10.215,10.215,0,0,1,20.4,0Z" transform="translate(5379.433 -11762.177)" fill="#fff"/></clipPath></defs><g transform="translate(-5379.561 11762.023)" clip-path="url(#A)"><path d="M5374.444-11762.023h30.674v20.449h-30.674z" fill="#ee1c25"/><path d="M5391.244-11757.756a.95.95 0 0 0-.508 1.424 1.54 1.54 0 0 1-.691 2.256c-.415.175-.712.55-.786.995s.083.896.417 1.197a2.33 2.33 0 0 1-.582-3.2q-.02-.017-.038-.036c-.722 1.064-.469 2.509.571 3.265a3.08 3.08 0 0 1 1.617-5.9" fill="#fff"/><path d="M5389.848-11755.852l-.939.41 1 .221-.68-.767.1 1.02" fill="#ee1c25"/><path d="M5395.894-11752.248a.95.95 0 0 0-1.512-.043 1.54 1.54 0 0 1-2.36.04c-.295-.341-.744-.508-1.19-.441s-.827.356-1.01.768a2.33 2.33 0 0 1 2.864-1.542l.022-.047c-1.235-.358-2.532.329-2.929 1.552a3.08 3.08 0 0 1 6.112-.286" fill="#fff"/><path d="M5393.655-11752.986l-.68-.767.1 1.02.519-.884-.939.41" fill="#ee1c25"/><path d="M5385.095-11747.839a.95.95 0 0 0 1.248-.854 1.54 1.54 0 0 1 1.886-1.419c.439.102.9-.027 1.221-.343s.46-.774.366-1.214a2.33 2.33 0 0 1-1.411 2.931c0 .017.007.034.01.051 1.21-.436 1.855-1.754 1.457-2.977a3.08 3.08 0 0 1-4.776 3.824" fill="#fff"/><path d="M5387.344-11748.56l1 .221-.68-.767.1 1.02.519-.884" fill="#ee1c25"/><path d="M5392.099-11746.119a.95.95 0 0 0-.426-1.451 1.54 1.54 0 0 1-.767-2.232c.233-.386.252-.864.051-1.267s-.593-.676-1.041-.723a2.33 2.33 0 0 1 2.352 2.248l.052.007c-.041-1.285-1.095-2.306-2.381-2.306a3.08 3.08 0 0 1 2.161 5.724" fill="#fff"/><path d="M5392.108-11748.48l.519-.884-.94.41 1 .221-.68-.767" fill="#ee1c25"/><path d="M5384.568-11755.031a.95.95 0 0 0 1.2.923 1.54 1.54 0 0 1 1.932 1.355c.038.449.304.847.703 1.055s.878.198 1.268-.027a2.33 2.33 0 0 1-3.224-.436l-.046.025c.789 1.015 2.241 1.222 3.281.466a3.08 3.08 0 0 1-5.113-3.361" fill="#fff"/><path d="M5385.948-11753.115l.1 1.02.519-.884-.939.41 1 .221" fill="#ee1c25"/></g></svg>