<svg width="68" height="68" viewBox="0 0 68 68" fill="none" xmlns="http://www.w3.org/2000/svg">
<path d="M44.5383 61.7632C54.6274 61.7632 62.8062 53.5844 62.8062 43.4954C62.8062 33.4063 54.6274 25.2275 44.5383 25.2275C34.4493 25.2275 26.2705 33.4063 26.2705 43.4954C26.2705 53.5844 34.4493 61.7632 44.5383 61.7632Z" stroke="#9098E9" stroke-width="2" stroke-miterlimit="10" stroke-linecap="round" stroke-linejoin="round"/>
<path d="M44.5387 55.0228C50.9055 55.0228 56.0667 49.8615 56.0667 43.4948C56.0667 37.1281 50.9055 31.9668 44.5387 31.9668C38.172 31.9668 33.0107 37.1281 33.0107 43.4948C33.0107 49.8615 38.172 55.0228 44.5387 55.0228Z" stroke="#9098E9" stroke-width="2" stroke-miterlimit="10" stroke-linecap="round" stroke-linejoin="round"/>
<path d="M39.9756 40.2979L41.6167 46.5956C41.677 46.7245 41.9178 46.7232 41.9759 46.5937L44.5384 40.3097" stroke="#9098E9" stroke-width="2" stroke-miterlimit="10" stroke-linecap="round" stroke-linejoin="round"/>
<path d="M44.5391 40.2979L47.095 46.5956C47.1553 46.7245 47.3961 46.7232 47.4542 46.5937L49.1018 40.3097" stroke="#9098E9" stroke-width="2" stroke-miterlimit="10" stroke-linecap="round" stroke-linejoin="round"/>
<path d="M23.3969 28.6615H10.9395C9.47241 28.6615 8.2832 27.4723 8.2832 26.0052V21.7539C8.2832 20.2869 9.47241 19.0977 10.9395 19.0977H23.3969C24.8639 19.0977 26.0531 20.2869 26.0531 21.7539V26.0052C26.0531 27.4721 24.8639 28.6615 23.3969 28.6615Z" stroke="#9098E9" stroke-width="2" stroke-miterlimit="10" stroke-linecap="round" stroke-linejoin="round"/>
<path d="M8.70996 36.083H19.5095" stroke="#9098E9" stroke-width="2" stroke-miterlimit="10" stroke-linecap="round" stroke-linejoin="round"/>
<path d="M8.70996 42.002H14.5067" stroke="#9098E9" stroke-width="2" stroke-miterlimit="10" stroke-linecap="round" stroke-linejoin="round"/>
<path d="M60.3283 53.0234L65.2506 57.9457C66.9692 59.6643 66.9692 62.4509 65.2506 64.1695C63.532 65.8881 60.7455 65.8881 59.0269 64.1695L54.1172 59.2598" stroke="#9098E9" stroke-width="2" stroke-miterlimit="10" stroke-linecap="round" stroke-linejoin="round"/>
<path d="M58.1902 30.5202V12.9355H1.46094V47.2232C1.46094 49.7704 3.52591 51.8354 6.07312 51.8354H27.6781" stroke="#9098E9" stroke-width="2" stroke-miterlimit="10" stroke-linecap="round" stroke-linejoin="round"/>
<path d="M58.1902 12.9358V7.15417C58.1902 4.60696 56.1252 2.54199 53.578 2.54199H6.07312C3.52591 2.54199 1.46094 4.60696 1.46094 7.15417V12.9358H58.1902Z" stroke="#9098E9" stroke-width="2" stroke-miterlimit="10" stroke-linecap="round" stroke-linejoin="round"/>
</svg>
