<svg width="16" height="16" viewBox="0 0 16 16" fill="none" xmlns="http://www.w3.org/2000/svg">
<path d="M8.00004 1.33301C4.32671 1.33301 1.33337 4.32634 1.33337 7.99967C1.33337 11.673 4.32671 14.6663 8.00004 14.6663C11.6734 14.6663 14.6667 11.673 14.6667 7.99967C14.6667 4.32634 11.6734 1.33301 8.00004 1.33301ZM2.00671 7.99967C2.00671 7.13301 2.19337 6.30634 2.52671 5.55967L5.38671 13.393C3.38671 12.4197 2.00671 10.373 2.00671 7.99967ZM8.00004 13.993C7.41337 13.993 6.84671 13.9063 6.30671 13.7463L8.10671 8.51967L9.94671 13.5663C9.96004 13.593 9.97337 13.6263 9.98671 13.6463C9.36671 13.873 8.70004 13.993 8.00004 13.993ZM8.82671 5.18634C9.18671 5.16634 9.51337 5.12634 9.51337 5.12634C9.83337 5.08634 9.80004 4.61301 9.47337 4.63301C9.47337 4.63301 8.50004 4.70634 7.87337 4.70634C7.28671 4.70634 6.29337 4.63301 6.29337 4.63301C5.97337 4.61967 5.93337 5.11301 6.26004 5.13301C6.26004 5.13301 6.56671 5.17301 6.88671 5.19301L7.82004 7.75301L6.50671 11.6863L4.32671 5.18634C4.68671 5.17301 5.01337 5.13301 5.01337 5.13301C5.33337 5.09301 5.30004 4.61967 4.97337 4.63967C4.97337 4.63967 4.00004 4.71301 3.37337 4.71301C3.26004 4.71301 3.12671 4.71301 2.98671 4.70634C4.06671 3.07967 5.90671 2.00634 8.00004 2.00634C9.56004 2.00634 10.98 2.59967 12.0467 3.57967C12.02 3.57967 11.9934 3.57301 11.9667 3.57301C11.38 3.57301 10.96 4.08634 10.96 4.63967C10.96 5.13301 11.2467 5.55301 11.5467 6.04634C11.7734 6.44634 12.04 6.95967 12.04 7.69967C12.04 8.21301 11.84 8.80634 11.5867 9.63967L10.9867 11.6397L8.82671 5.18634ZM13.26 5.12634C14.0085 6.49684 14.1925 8.10534 13.7729 9.60946C13.3533 11.1136 12.3632 12.3945 11.0134 13.1797L12.8467 7.88634C13.1867 7.03301 13.3 6.34634 13.3 5.73967C13.3 5.51967 13.2867 5.31301 13.26 5.12634Z" fill="#0D99FF"/>
</svg>
