<svg width="16" height="16" viewBox="0 0 16 16" fill="none" xmlns="http://www.w3.org/2000/svg">
<path d="M3.91547 1.27275C4.99387 0.786188 6.44594 0.5 8.01562 0.5C9.58531 0.5 11.0302 0.786219 12.1015 1.27338C13.1295 1.74081 14 2.5 14 3.5V3.50094C13.9997 3.67384 13.9032 3.935 13.6158 4.25781C13.3347 4.5735 12.909 4.90338 12.3573 5.20356C11.2551 5.80319 9.71231 6.25 8 6.25C6.28769 6.25 4.74494 5.80319 3.64275 5.20356C3.091 4.90338 2.66531 4.5735 2.38422 4.25781C2.09628 3.93441 2 3.67288 2 3.5C2 2.48662 2.88269 1.73875 3.91547 1.27275Z" fill="#6F67D4"/>
<path d="M12.8351 6.08189C13.1347 5.91895 13.4116 5.71454 13.6603 5.49114C13.787 5.37733 14 5.46333 14 5.63364V8.06242C14 8.23529 13.9037 8.43433 13.6158 8.75773C13.3347 9.07342 12.909 9.4033 12.3573 9.70348C11.2551 10.3031 9.71231 10.7499 8 10.7499C6.28769 10.7499 4.74494 10.3031 3.64275 9.70348C3.091 9.4033 2.66531 9.07342 2.38422 8.75773C2.09628 8.43433 2 8.23529 2 8.06242V5.63364C2 5.46333 2.213 5.37733 2.33969 5.49114C2.58838 5.71451 2.86531 5.91895 3.16488 6.08189C4.41519 6.76211 6.12244 7.24992 8 7.24992C9.87756 7.24992 11.5848 6.76211 12.8351 6.08189Z" fill="#6F67D4"/>
<path d="M2.33969 9.99114C2.213 9.87733 2 9.96333 2 10.1336V12.4999C2 13.5069 2.87513 14.2552 3.904 14.7229C4.97803 15.211 6.42666 15.4999 8 15.4999C9.57334 15.4999 11.022 15.211 12.096 14.7229C13.1249 14.2552 14 13.5069 14 12.4999V10.1336C14 9.96333 13.787 9.87733 13.6603 9.99114C13.4116 10.2145 13.1347 10.419 12.8351 10.5819C11.5848 11.2621 9.87756 11.7499 8 11.7499C6.12244 11.7499 4.41519 11.2621 3.16488 10.5819C2.86531 10.419 2.58838 10.2145 2.33969 9.99114Z" fill="#6F67D4"/>
</svg>
