<svg width="24" height="24" viewBox="0 0 24 24" fill="none" xmlns="http://www.w3.org/2000/svg">
<path d="M23.25 12C23.2547 13.7861 22.6753 15.5248 21.6 16.9509C21.5408 17.0297 21.4666 17.0961 21.3818 17.1462C21.2969 17.1964 21.203 17.2293 21.1054 17.2431C21.0078 17.257 20.9085 17.2514 20.813 17.2269C20.7175 17.2023 20.6279 17.1592 20.5491 17.1C20.4703 17.0408 20.4039 16.9666 20.3538 16.8818C20.3036 16.7969 20.2707 16.703 20.2569 16.6054C20.243 16.5078 20.2486 16.4085 20.2731 16.313C20.2977 16.2175 20.3408 16.1279 20.4 16.0491C21.2802 14.883 21.7543 13.4609 21.75 12C21.75 10.2098 21.0388 8.4929 19.773 7.22703C18.5071 5.96115 16.7902 5.25 15 5.25C13.2098 5.25 11.4929 5.96115 10.227 7.22703C8.96116 8.4929 8.25001 10.2098 8.25001 12C8.25001 12.1989 8.17099 12.3897 8.03033 12.5303C7.88968 12.671 7.69892 12.75 7.50001 12.75C7.30109 12.75 7.11033 12.671 6.96968 12.5303C6.82902 12.3897 6.75001 12.1989 6.75001 12C6.74964 11.2431 6.85342 10.4898 7.05844 9.76125C6.95626 9.75 6.85313 9.75 6.75001 9.75C5.55653 9.75 4.41194 10.2241 3.56802 11.068C2.72411 11.9119 2.25001 13.0565 2.25001 14.25C2.25001 15.4435 2.72411 16.5881 3.56802 17.432C4.41194 18.2759 5.55653 18.75 6.75001 18.75H9.00001C9.19892 18.75 9.38968 18.829 9.53033 18.9697C9.67099 19.1103 9.75001 19.3011 9.75001 19.5C9.75001 19.6989 9.67099 19.8897 9.53033 20.0303C9.38968 20.171 9.19892 20.25 9.00001 20.25H6.75001C5.92517 20.2502 5.10915 20.0803 4.35292 19.751C3.59669 19.4216 2.91649 18.9399 2.35479 18.3359C1.7931 17.7318 1.36198 17.0185 1.08837 16.2403C0.814749 15.4622 0.704511 14.636 0.764536 13.8134C0.824561 12.9907 1.05356 12.1893 1.43723 11.4591C1.8209 10.7289 2.351 10.0857 2.99443 9.56961C3.63785 9.05351 4.38078 8.67562 5.17681 8.45954C5.97284 8.24346 6.80487 8.19383 7.62094 8.31375C8.45194 6.65171 9.8197 5.31888 11.5027 4.53115C13.1857 3.74342 15.0853 3.54693 16.8939 3.9735C18.7025 4.40007 20.3141 5.42472 21.4677 6.88148C22.6213 8.33824 23.2493 10.1418 23.25 12ZM16.7194 15.9694L15 17.6897V12C15 11.8011 14.921 11.6103 14.7803 11.4697C14.6397 11.329 14.4489 11.25 14.25 11.25C14.0511 11.25 13.8603 11.329 13.7197 11.4697C13.579 11.6103 13.5 11.8011 13.5 12V17.6897L11.7806 15.9694C11.6399 15.8286 11.449 15.7496 11.25 15.7496C11.051 15.7496 10.8601 15.8286 10.7194 15.9694C10.5786 16.1101 10.4996 16.301 10.4996 16.5C10.4996 16.699 10.5786 16.8899 10.7194 17.0306L13.7194 20.0306C13.789 20.1004 13.8718 20.1557 13.9628 20.1934C14.0538 20.2312 14.1514 20.2506 14.25 20.2506C14.3486 20.2506 14.4462 20.2312 14.5372 20.1934C14.6283 20.1557 14.711 20.1004 14.7806 20.0306L17.7806 17.0306C17.9214 16.8899 18.0004 16.699 18.0004 16.5C18.0004 16.301 17.9214 16.1101 17.7806 15.9694C17.6399 15.8286 17.449 15.7496 17.25 15.7496C17.051 15.7496 16.8601 15.8286 16.7194 15.9694Z" fill="#6F67D4"/>
</svg>
