<svg width="68" height="68" viewBox="0 0 68 68" fill="none" xmlns="http://www.w3.org/2000/svg">
<g clip-path="url(#clip0_16679_1023)">
<path d="M62.7109 58.4174H49.8313C47.4601 58.4174 45.5381 56.4953 45.5381 54.1242C45.5381 51.7531 47.4601 49.8311 49.8313 49.8311H62.7109C65.082 49.8311 67.004 51.7531 67.004 54.1242C67.004 56.4952 65.082 58.4174 62.7109 58.4174Z" stroke="#9098E9" stroke-width="2" stroke-miterlimit="10" stroke-linecap="round" stroke-linejoin="round"/>
<circle cx="49.8311" cy="54.124" r="0.996094" fill="#9098E9"/>
<path d="M62.7105 54.124H54.124" stroke="#9098E9" stroke-width="2" stroke-miterlimit="10" stroke-linecap="round" stroke-linejoin="round"/>
<path d="M62.7109 67.0043H49.8313C47.4601 67.0043 45.5381 65.0822 45.5381 62.7111C45.5381 60.34 47.4601 58.418 49.8313 58.418H62.7109C65.082 58.418 67.004 60.34 67.004 62.7111C67.004 65.0822 65.082 67.0043 62.7109 67.0043Z" stroke="#9098E9" stroke-width="2" stroke-miterlimit="10" stroke-linecap="round" stroke-linejoin="round"/>
<circle cx="49.8311" cy="62.7109" r="0.996094" fill="#9098E9"/>
<path d="M62.7105 62.7109H54.124" stroke="#9098E9" stroke-width="2" stroke-miterlimit="10" stroke-linecap="round" stroke-linejoin="round"/>
<path d="M62.7109 9.58242H49.8313C47.4601 9.58242 45.5381 7.66036 45.5381 5.28926C45.5381 2.91816 47.4601 0.996094 49.8313 0.996094H62.7109C65.082 0.996094 67.004 2.91816 67.004 5.28926C67.004 7.66036 65.082 9.58242 62.7109 9.58242Z" stroke="#9098E9" stroke-width="2" stroke-miterlimit="10" stroke-linecap="round" stroke-linejoin="round"/>
<circle cx="49.8311" cy="5.28906" r="0.996094" fill="#9098E9"/>
<path d="M62.7105 5.28906H54.124" stroke="#9098E9" stroke-width="2" stroke-miterlimit="10" stroke-linecap="round" stroke-linejoin="round"/>
<path d="M56.4543 18.1684H62.7098C63.8958 18.1684 64.9689 17.6876 65.7459 16.9106C66.5228 16.1337 67.0036 15.0605 67.0036 13.8759C67.0036 11.5038 65.0818 9.58203 62.7098 9.58203H49.8309C48.6463 9.58203 47.5718 10.0628 46.7948 10.8398C46.0179 11.6167 45.5371 12.6898 45.5371 13.8759C45.5371 16.2466 47.4602 18.1684 49.8309 18.1684H51.7926" stroke="#9098E9" stroke-width="2" stroke-miterlimit="10" stroke-linecap="round" stroke-linejoin="round"/>
<circle cx="49.8311" cy="13.876" r="0.996094" fill="#9098E9"/>
<path d="M62.7105 13.876H54.124" stroke="#9098E9" stroke-width="2" stroke-miterlimit="10" stroke-linecap="round" stroke-linejoin="round"/>
<path d="M10.7485 0.996094H18.1688C20.5395 0.996094 22.4626 2.91789 22.4626 5.28992C22.4626 6.47594 21.9818 7.54906 21.2048 8.32469C20.4279 9.10164 19.3534 9.58242 18.1688 9.58242H5.28992C2.91789 9.58242 0.996094 7.66063 0.996094 5.28992C0.996094 4.10391 1.47687 3.03078 2.25383 2.25383C3.03078 1.47687 4.10391 0.996094 5.28992 0.996094H6.0868" stroke="#9098E9" stroke-width="2" stroke-miterlimit="10" stroke-linecap="round" stroke-linejoin="round"/>
<circle cx="5.28906" cy="5.28906" r="0.996094" fill="#9098E9"/>
<path d="M18.1685 5.28906H9.58203" stroke="#9098E9" stroke-width="2" stroke-miterlimit="10" stroke-linecap="round" stroke-linejoin="round"/>
<path d="M18.1689 18.1693H5.28926C2.91816 18.1693 0.996094 16.2473 0.996094 13.8762C0.996094 11.5051 2.91816 9.58301 5.28926 9.58301H18.1689C20.54 9.58301 22.462 11.5051 22.462 13.8762C22.462 16.2471 20.54 18.1693 18.1689 18.1693Z" stroke="#9098E9" stroke-width="2" stroke-miterlimit="10" stroke-linecap="round" stroke-linejoin="round"/>
<circle cx="5.28906" cy="13.876" r="0.996094" fill="#9098E9"/>
<path d="M18.1685 13.876H9.58203" stroke="#9098E9" stroke-width="2" stroke-miterlimit="10" stroke-linecap="round" stroke-linejoin="round"/>
<path d="M18.1689 58.4174H5.28926C2.91816 58.4174 0.996094 56.4953 0.996094 54.1242C0.996094 51.7531 2.91816 49.8311 5.28926 49.8311H18.1689C20.54 49.8311 22.462 51.7531 22.462 54.1242C22.462 56.4952 20.54 58.4174 18.1689 58.4174Z" stroke="#9098E9" stroke-width="2" stroke-miterlimit="10" stroke-linecap="round" stroke-linejoin="round"/>
<circle cx="5.28906" cy="54.124" r="0.996094" fill="#9098E9"/>
<path d="M18.1685 54.124H9.58203" stroke="#9098E9" stroke-width="2" stroke-miterlimit="10" stroke-linecap="round" stroke-linejoin="round"/>
<path d="M11.2014 67.0043H18.1688C19.3534 67.0043 20.4279 66.5235 21.2048 65.7466C21.9818 64.9696 22.4626 63.8965 22.4626 62.7105C22.4626 60.3398 20.5395 58.418 18.1688 58.418H5.28992C4.10391 58.418 3.03078 58.8988 2.25383 59.6757C1.47687 60.4513 0.996094 61.5245 0.996094 62.7105C0.996094 65.0825 2.91789 67.0043 5.28992 67.0043H6.53969" stroke="#9098E9" stroke-width="2" stroke-miterlimit="10" stroke-linecap="round" stroke-linejoin="round"/>
<circle cx="5.28906" cy="62.7109" r="0.996094" fill="#9098E9"/>
<path d="M18.1685 62.7109H9.58203" stroke="#9098E9" stroke-width="2" stroke-miterlimit="10" stroke-linecap="round" stroke-linejoin="round"/>
<path d="M36.6828 30.7796C37.8683 30.7796 38.8294 29.8185 38.8294 28.633C38.8294 27.4474 37.8683 26.4863 36.6828 26.4863C35.4972 26.4863 34.5361 27.4474 34.5361 28.633C34.5361 29.8185 35.4972 30.7796 36.6828 30.7796Z" stroke="#9098E9" stroke-width="2" stroke-miterlimit="10" stroke-linecap="round" stroke-linejoin="round"/>
<path d="M36.6828 41.513C37.8683 41.513 38.8294 40.5519 38.8294 39.3664C38.8294 38.1808 37.8683 37.2197 36.6828 37.2197C35.4972 37.2197 34.5361 38.1808 34.5361 39.3664C34.5361 40.5519 35.4972 41.513 36.6828 41.513Z" stroke="#9098E9" stroke-width="2" stroke-miterlimit="10" stroke-linecap="round" stroke-linejoin="round"/>
<path d="M28.0968 36.1468C29.2824 36.1468 30.2435 35.1857 30.2435 34.0002C30.2435 32.8146 29.2824 31.8535 28.0968 31.8535C26.9113 31.8535 25.9502 32.8146 25.9502 34.0002C25.9502 35.1857 26.9113 36.1468 28.0968 36.1468Z" stroke="#9098E9" stroke-width="2" stroke-miterlimit="10" stroke-linecap="round" stroke-linejoin="round"/>
<path d="M34.8621 29.7715L29.917 32.8626" stroke="#9098E9" stroke-width="2" stroke-miterlimit="10" stroke-linecap="round" stroke-linejoin="round"/>
<path d="M29.917 35.1377L34.8621 38.2288" stroke="#9098E9" stroke-width="2" stroke-miterlimit="10" stroke-linecap="round" stroke-linejoin="round"/>
<path d="M34.0002 46.3431C40.817 46.3431 46.3431 40.817 46.3431 34.0002C46.3431 27.1833 40.817 21.6572 34.0002 21.6572C27.1833 21.6572 21.6572 27.1833 21.6572 34.0002C21.6572 40.817 27.1833 46.3431 34.0002 46.3431Z" stroke="#9098E9" stroke-width="2" stroke-miterlimit="10" stroke-linecap="round" stroke-linejoin="round"/>
<path d="M56.2713 22.4619V29.7067H50.3682" stroke="#9098E9" stroke-width="2" stroke-miterlimit="10" stroke-linecap="round" stroke-linejoin="round"/>
<path d="M56.2713 45.5378V38.293H50.3682" stroke="#9098E9" stroke-width="2" stroke-miterlimit="10" stroke-linecap="round" stroke-linejoin="round"/>
<path d="M11.7295 22.4619V29.7067H17.6326" stroke="#9098E9" stroke-width="2" stroke-miterlimit="10" stroke-linecap="round" stroke-linejoin="round"/>
<path d="M11.7295 45.5378V38.293H17.6326" stroke="#9098E9" stroke-width="2" stroke-miterlimit="10" stroke-linecap="round" stroke-linejoin="round"/>
</g>
<defs>
<clipPath id="clip0_16679_1023">
<rect width="68" height="68" fill="white"/>
</clipPath>
</defs>
</svg>
