<svg width="68" height="68" viewBox="0 0 68 68" fill="none" xmlns="http://www.w3.org/2000/svg">
<g clip-path="url(#clip0_16684_1132)">
<path d="M22.2837 22.284C26.9257 17.642 26.9257 10.1158 22.2837 5.47381C17.6416 0.8318 10.1155 0.8318 5.47346 5.47381C0.83145 10.1158 0.83145 17.642 5.47346 22.284C10.1155 26.926 17.6416 26.926 22.2837 22.284Z" stroke="#9098E9" stroke-width="2" stroke-miterlimit="22.9256" stroke-linecap="round" stroke-linejoin="round"/>
<path d="M7.76953 23.7073V23.4033C7.76953 20.0432 10.5188 17.2939 13.8789 17.2939C17.2391 17.2939 19.9883 20.0434 19.9883 23.4033V23.7073" stroke="#9098E9" stroke-width="2" stroke-miterlimit="22.9256" stroke-linecap="round" stroke-linejoin="round"/>
<path d="M14.0187 17.2923C16.2179 17.2153 17.9383 15.37 17.8612 13.1709C17.7842 10.9717 15.939 9.2513 13.7398 9.32832C11.5406 9.40534 9.82025 11.2506 9.89727 13.4498C9.97428 15.6489 11.8195 17.3693 14.0187 17.2923Z" stroke="#9098E9" stroke-width="2" stroke-miterlimit="22.9256" stroke-linecap="round" stroke-linejoin="round"/>
<path d="M22.2837 62.5262C26.9257 57.8842 26.9257 50.358 22.2837 45.716C17.6416 41.074 10.1155 41.074 5.47346 45.716C0.83145 50.358 0.83145 57.8842 5.47346 62.5262C10.1155 67.1682 17.6416 67.1682 22.2837 62.5262Z" stroke="#9098E9" stroke-width="2" stroke-miterlimit="22.9256" stroke-linecap="round" stroke-linejoin="round"/>
<path d="M7.76953 63.9495V63.6455C7.76953 60.2854 10.5188 57.5361 13.8789 57.5361C17.2391 57.5361 19.9883 60.2856 19.9883 63.6455V63.9495" stroke="#9098E9" stroke-width="2" stroke-miterlimit="22.9256" stroke-linecap="round" stroke-linejoin="round"/>
<path d="M14.0177 57.5345C16.2169 57.4575 17.9373 55.6122 17.8603 53.413C17.7832 51.2138 15.938 49.4935 13.7388 49.5705C11.5396 49.6475 9.81927 51.4928 9.89629 53.6919C9.97331 55.8911 11.8185 57.6115 14.0177 57.5345Z" stroke="#9098E9" stroke-width="2" stroke-miterlimit="22.9256" stroke-linecap="round" stroke-linejoin="round"/>
<path d="M62.5258 42.4051C67.1679 37.7631 67.1679 30.2369 62.5258 25.5949C57.8838 20.9529 50.3577 20.9529 45.7156 25.5949C41.0736 30.2369 41.0736 37.7631 45.7156 42.4051C50.3577 47.0471 57.8838 47.0471 62.5258 42.4051Z" stroke="#9098E9" stroke-width="2" stroke-miterlimit="22.9256" stroke-linecap="round" stroke-linejoin="round"/>
<path d="M48.0117 43.8284V43.5244C48.0117 40.1643 50.7609 37.415 54.1211 37.415C57.4812 37.415 60.2305 40.1645 60.2305 43.5244V43.8283" stroke="#9098E9" stroke-width="2" stroke-miterlimit="22.9256" stroke-linecap="round" stroke-linejoin="round"/>
<path d="M54.1211 37.415C56.3216 37.415 58.1055 35.6312 58.1055 33.4307C58.1055 31.2302 56.3216 29.4463 54.1211 29.4463C51.9206 29.4463 50.1367 31.2302 50.1367 33.4307C50.1367 35.6312 51.9206 37.415 54.1211 37.415Z" stroke="#9098E9" stroke-width="2" stroke-miterlimit="22.9256" stroke-linecap="round" stroke-linejoin="round"/>
<path d="M13.8125 26.5625V41.4374" stroke="#9098E9" stroke-width="2" stroke-miterlimit="22.9256" stroke-linecap="round" stroke-linejoin="round"/>
<path d="M25.7656 52.3281L43.6953 40.9062" stroke="#9098E9" stroke-width="2" stroke-miterlimit="22.9256" stroke-linecap="round" stroke-linejoin="round"/>
<path d="M43.6953 27.0939L26.1641 16.4688" stroke="#9098E9" stroke-width="2" stroke-miterlimit="22.9256" stroke-linecap="round" stroke-linejoin="round"/>
<path d="M42.4223 7.50129C43.2644 5.46824 42.299 3.13744 40.266 2.2953C38.2329 1.45317 35.9021 2.4186 35.06 4.45165C34.2178 6.4847 35.1833 8.8155 37.2163 9.65763C39.2494 10.4998 41.5802 9.53434 42.4223 7.50129Z" stroke="#9098E9" stroke-width="2" stroke-miterlimit="22.9256" stroke-linecap="round" stroke-linejoin="round"/>
<path d="M54.1211 66.0078C56.3216 66.0078 58.1055 64.2239 58.1055 62.0234C58.1055 59.8229 56.3216 58.0391 54.1211 58.0391C51.9206 58.0391 50.1367 59.8229 50.1367 62.0234C50.1367 64.2239 51.9206 66.0078 54.1211 66.0078Z" stroke="#9098E9" stroke-width="2" stroke-miterlimit="22.9256" stroke-linecap="round" stroke-linejoin="round"/>
<path d="M34.3984 6.64062L25.5 8.36719" stroke="#9098E9" stroke-width="2" stroke-miterlimit="22.9256" stroke-linecap="round" stroke-linejoin="round"/>
<path d="M54.1211 57.7734V46.6172" stroke="#9098E9" stroke-width="2" stroke-miterlimit="22.9256" stroke-linecap="round" stroke-linejoin="round"/>
</g>
<defs>
<clipPath id="clip0_16684_1132">
<rect width="68" height="68" fill="white"/>
</clipPath>
</defs>
</svg>
