<svg xmlns="http://www.w3.org/2000/svg" width="20.44" height="20.449" xmlns:v="https://vecta.io/nano"><defs><clipPath id="A"><path d="M20.553,9.844a10.216,10.216,0,1,1-20.4,1.084,6.879,6.879,0,0,1,0-1.084,10.215,10.215,0,0,1,20.4,0Z" transform="translate(5317.433 -11762.203)" fill="#fff"/></clipPath></defs><g transform="translate(-5317.561 11762.05)" clip-path="url(#A)"><path fill="#f93" d="M5312.25-11762.5h31v21h-31z"/><path fill="#fff" d="M5312.25-11756.5h31v9h-31z"/><path fill="#128807" d="M5312.25-11747.5h31v6h-31z"/><g fill="#008"><ellipse cx="5327.846" cy="-11752.066" rx="2.859" ry="2.869"/><circle cx="5328.25" cy="-11752.499" r="1"/></g><ellipse cx="5327.846" cy="-11752.065" rx="2.445" ry="2.454" fill="#fff"/><g fill="#008"><ellipse cx="5330.27" cy="-11751.745" rx=".122" ry=".123"/><path d="M5327.846-11749.612l.084-1.472-.084-.7-.084.7z"/><ellipse cx="5330.105" cy="-11751.127" rx=".122" ry=".123"/><path d="M5327.213-11749.696l.461-1.4.1-.7-.262.655z"/><ellipse cx="5329.785" cy="-11750.571" rx=".122" ry=".123"/><path d="M5326.623-11749.94l.806-1.233.277-.649-.422.565z"/><ellipse cx="5329.334" cy="-11750.118" rx=".122" ry=".123"/><path d="M5326.117-11750.33l1.1-.982.435-.555-.553.436z"/><ellipse cx="5328.781" cy="-11749.798" rx=".122" ry=".123"/><path d="M5325.728-11750.838l1.313-.663.563-.423-.647.278z"/><ellipse cx="5328.165" cy="-11749.632" rx=".122" ry=".123"/><path d="M5325.484-11751.431l1.439-.3.653-.263-.7.1z"/><ellipse cx="5327.527" cy="-11749.633" rx=".122" ry=".123"/><path d="M5325.401-11752.066l1.467.084.7-.084-.7-.084z"/><ellipse cx="5326.91" cy="-11749.799" rx=".122" ry=".123"/><path d="M5325.484-11752.701l1.4.462.7.1-.653-.263z"/><ellipse cx="5326.358" cy="-11750.119" rx=".122" ry=".123"/><path d="M5325.729-11753.293l1.229.809.647.278-.563-.423z"/><ellipse cx="5325.906" cy="-11750.572" rx=".122" ry=".123"/><path d="M5326.117-11753.801l.978 1.1.553.436-.435-.555z"/><ellipse cx="5325.587" cy="-11751.127" rx=".122" ry=".123"/><path d="M5326.624-11754.191l.661 1.317.422.565-.277-.649z"/><ellipse cx="5325.422" cy="-11751.745" rx=".122" ry=".123"/><path d="M5327.214-11754.436l.3 1.444.262.655-.1-.7z"/><ellipse cx="5325.422" cy="-11752.386" rx=".122" ry=".123"/><path d="M5327.847-11754.52l-.084 1.472.084.7.084-.7z"/><ellipse cx="5325.587" cy="-11753.005" rx=".122" ry=".123"/><path d="M5328.48-11754.436l-.461 1.4-.1.7.262-.655z"/><ellipse cx="5325.906" cy="-11753.559" rx=".122" ry=".123"/><path d="M5329.069-11754.191l-.806 1.233-.277.649.422-.565z"/><ellipse cx="5326.357" cy="-11754.012" rx=".122" ry=".123"/><path d="M5329.574-11753.801l-1.1.982-.435.555.553-.436z"/><ellipse cx="5326.91" cy="-11754.333" rx=".122" ry=".123"/><path d="M5329.964-11753.293l-1.313.663-.563.423.647-.278z"/><ellipse cx="5327.527" cy="-11754.499" rx=".122" ry=".123"/><path d="M5330.208-11752.702l-1.439.3-.653.263.7-.1z"/><ellipse cx="5328.165" cy="-11754.499" rx=".122" ry=".123"/><path d="M5330.292-11752.067l-1.466-.084-.7.084.7.084z"/><ellipse cx="5328.782" cy="-11754.333" rx=".122" ry=".123"/><path d="M5330.208-11751.432l-1.4-.462-.7-.1.653.263z"/><ellipse cx="5329.333" cy="-11754.013" rx=".122" ry=".123"/><path d="M5329.963-11750.839l-1.229-.809-.647-.278.563.423z"/><ellipse cx="5329.785" cy="-11753.56" rx=".122" ry=".123"/><path d="M5329.574-11750.331l-.978-1.1-.553-.436.435.555z"/><ellipse cx="5330.104" cy="-11753.005" rx=".122" ry=".123"/><path d="M5329.068-11749.941l-.661-1.317-.422-.565.277.649z"/><ellipse cx="5330.27" cy="-11752.386" rx=".122" ry=".123"/><path d="M5328.479-11749.696l-.3-1.444-.262-.655.1.7z"/></g></g></svg>