<svg width="62" height="67" viewBox="0 0 62 67" fill="none" xmlns="http://www.w3.org/2000/svg">
<path d="M23.8 47.6C36.9444 47.6 47.6 36.9444 47.6 23.8C47.6 10.6556 36.9444 0 23.8 0C10.6556 0 0 10.6556 0 23.8C0 36.9444 10.6556 47.6 23.8 47.6Z" fill="url(#paint0_linear_16130_398)"/>
<path d="M30.3999 15.8999C29.5999 15.8999 28.8999 16.5999 28.8999 17.3999C28.8999 18.1999 29.5999 18.8999 30.3999 18.8999C31.1999 18.8999 31.8999 18.1999 31.8999 17.3999C31.8999 16.4999 31.1999 15.8999 30.3999 15.8999Z" fill="white"/>
<path d="M23.8998 17.6997C20.4998 17.6997 17.7998 20.3997 17.7998 23.7997C17.7998 27.1997 20.4998 29.8997 23.8998 29.8997C27.2998 29.8997 29.9998 27.1997 29.9998 23.7997C29.9998 20.4997 27.2998 17.6997 23.8998 17.6997ZM23.8998 27.6997C21.6998 27.6997 19.9998 25.8997 19.9998 23.7997C19.9998 21.6997 21.7998 19.8997 23.8998 19.8997C26.0998 19.8997 27.7998 21.6997 27.7998 23.7997C27.7998 25.8997 26.0998 27.6997 23.8998 27.6997Z" fill="white"/>
<path d="M28.7999 36.1998H18.8999C14.7999 36.1998 11.3999 32.8998 11.3999 28.6998V18.7998C11.3999 14.6998 14.6999 11.2998 18.8999 11.2998H28.7999C32.8999 11.2998 36.2999 14.5998 36.2999 18.7998V28.6998C36.1999 32.8998 32.8999 36.1998 28.7999 36.1998ZM18.8999 13.7998C16.0999 13.7998 13.7999 16.0998 13.7999 18.8998V28.7998C13.7999 31.5998 16.0999 33.8998 18.8999 33.8998H28.7999C31.5999 33.8998 33.8999 31.5998 33.8999 28.7998V18.8998C33.8999 16.0998 31.5999 13.7998 28.7999 13.7998H18.8999Z" fill="white"/>
<defs>
<linearGradient id="paint0_linear_16130_398" x1="6.9801" y1="6.9801" x2="40.6829" y2="40.6829" gradientUnits="userSpaceOnUse">
<stop offset="0.0011048" stop-color="#FFE185"/>
<stop offset="0.2094" stop-color="#FFBB36"/>
<stop offset="0.3765" stop-color="#FF5176"/>
<stop offset="0.5238" stop-color="#F63395"/>
<stop offset="0.7394" stop-color="#A436D2"/>
<stop offset="1" stop-color="#5F4EED"/>
</linearGradient>
</defs>
</svg>
