<svg xmlns="http://www.w3.org/2000/svg" viewBox="0 0 20.4 20.4" xmlns:v="https://vecta.io/nano"><defs><path id="A" d="M20.4 9.7c.4 5.6-3.8 10.5-9.5 10.9S.4 16.8 0 11.1v-.4-1.1C.3 4.1 5.1-.3 10.8 0c5.2.3 9.3 4.5 9.6 9.7z"/></defs><clipPath id="B"><use href="#A"/></clipPath><g clip-path="url(#B)"><path d="M-3.8,0h28.1v20.4H-3.8V0z" fill="#fff"/><g fill="#0038b8"><path d="M-3.8 1.9h28.1v3.2H-3.8V1.9zm0 13.4h28.1v3.2H-3.8v-3.2zm14-.7l-1.3-2.2H6.4l1.3-2.2L6.4 8H9l1.3-2.2L11.5 8H14l-1.3 2.2 1.3 2.2h-2.6l-1.2 2.2zm-.4-2.2l.5.8.5-.8h-1zm2.1-.7h.9l-.5-.8-.4.8zm-2.6 0H11l.9-1.5-.9-1.5H9.3l-.9 1.5.9 1.5zm-1.7 0h.9l-.5-.8-.4.8zm4.3-3l.5.8.5-.8h-1zm-4.3 0l.5.8.5-.8h-1zM9.8 8h.9l-.5-.8-.4.8z"/></g></g></svg>