<svg width="40" height="40" viewBox="0 0 40 40" fill="none" xmlns="http://www.w3.org/2000/svg">
<g clip-path="url(#clip0_14096_64)">
<path d="M39.7928 5.51339C39.7928 2.62853 37.4542 0.289917 34.5694 0.289917C31.9353 0.289917 29.7578 2.23997 29.399 4.77503C29.3655 4.75727 29.3461 4.74723 29.3461 4.74723C25.0744 2.8205 21.476 6.23306 21.476 6.23306L11.958 15.7977L15.7188 19.4194L23.3797 11.893C26.9571 8.31547 28.905 10.7369 28.905 10.7369C31.598 13.0118 28.9978 15.7049 28.9978 15.7049L32.8516 19.4194C35.9985 16.0206 36.1811 13.0542 35.2245 10.6944C37.7999 10.3719 39.7928 8.17617 39.7928 5.51339Z" fill="#F9AE41"/>
<path d="M35.2733 29.536C35.291 29.5027 35.3011 29.4832 35.3011 29.4832C37.2279 25.2114 33.8152 21.6132 33.8152 21.6132L24.2504 12.0948L20.6289 15.8558L28.1553 23.5167C31.7328 27.0942 29.3114 29.0421 29.3114 29.0421C27.0364 31.7352 24.3434 29.135 24.3434 29.135L20.6289 32.9886C24.0276 36.1355 26.9941 36.3181 29.3537 35.3615C29.6762 37.937 31.8721 39.93 34.5349 39.93C37.4198 39.93 39.7582 37.5914 39.7582 34.7065C39.7582 32.0725 37.8083 29.8949 35.2733 29.536Z" fill="#EE4035"/>
<path d="M24.332 20.6265L16.6711 28.1527C13.0936 31.7304 11.1457 29.3091 11.1457 29.3091C8.45262 27.034 11.0529 24.3411 11.0529 24.3411L7.19922 20.6266C4.05229 24.0253 3.86975 26.9917 4.82617 29.3515C2.25065 29.6739 0.257812 31.8695 0.257812 34.5325C0.257812 37.4173 2.59643 39.7558 5.48128 39.7558C8.11534 39.7559 10.2929 37.806 10.6516 35.271C10.6851 35.2887 10.7046 35.2986 10.7046 35.2986C14.9764 37.2257 18.5746 33.8128 18.5746 33.8128L28.0928 24.248L24.332 20.6265Z" fill="#4F91CD"/>
<path d="M11.896 16.5291C8.31852 12.9516 10.7396 11.0037 10.7396 11.0037C13.0149 8.31066 15.7078 10.9109 15.7078 10.9109L19.4223 7.05741C16.0236 3.91048 13.0572 3.72794 10.6976 4.68436C10.375 2.10868 8.17937 0.115845 5.51629 0.115845C2.63159 0.115845 0.293123 2.45446 0.292969 5.33932C0.292969 7.97352 2.24287 10.1511 4.77793 10.5098C4.76017 10.5433 4.75029 10.5628 4.75029 10.5628C2.82309 14.8345 6.23596 18.4325 6.23596 18.4325L15.8009 27.9508L19.4224 24.19L11.896 16.5291Z" fill="#7AC043"/>
</g>
<defs>
<clipPath id="clip0_14096_64">
<rect width="40" height="40" fill="white"/>
</clipPath>
</defs>
</svg>
