<svg width="48" height="48" viewBox="0 0 48 48" fill="none" xmlns="http://www.w3.org/2000/svg">
<path d="M9.6076 24.2025L8.7436 23.337C6.9406 21.534 5.8246 19.044 5.8246 16.293C5.8246 15.27 5.9791 14.283 6.2656 13.3545L6.2476 13.425C3.5446 12.795 1.5631 10.407 1.5631 7.55551C1.5631 4.23151 4.2586 1.53601 7.5826 1.53601C10.5631 1.53601 13.0366 3.70201 13.5181 6.54451L13.5226 6.58051C14.2081 6.41251 14.9971 6.31501 15.8071 6.31501C18.5596 6.31501 21.0511 7.42951 22.8556 9.23251L23.2006 9.57901L18.7576 14.022L18.4141 13.683C17.7466 13.02 16.8256 12.6105 15.8101 12.6105C13.7671 12.6105 12.1126 14.2665 12.1126 16.308C12.1126 17.3235 12.5221 18.2445 13.1851 18.912L14.0566 19.785L23.1946 28.9215L18.7576 33.3645L9.60911 24.2265L9.6076 24.2025ZM14.5816 19.2405L24.5911 9.24001C26.3881 7.43701 28.8736 6.32101 31.6201 6.32101C32.6326 6.32101 33.6091 6.47251 34.5301 6.75451L34.4596 6.73651C34.8766 3.78451 37.3861 1.53901 40.4206 1.53901C43.7431 1.53901 46.4371 4.23301 46.4371 7.55551C46.4371 10.6005 44.1751 13.1175 41.2381 13.518L41.2066 13.521C41.4556 14.349 41.5981 15.3015 41.5981 16.287C41.5981 19.0395 40.4806 21.531 38.6761 23.3325L38.3356 23.6775L33.8956 19.2375L34.2406 18.8925C34.9066 18.225 35.3191 17.304 35.3191 16.287C35.3191 14.2515 33.6691 12.6015 31.6336 12.6015C30.6151 12.6015 29.6941 13.014 29.0266 13.6815L28.1611 14.5455L19.0231 23.676L14.5816 19.2405ZM34.5781 41.64C33.6976 41.922 32.6851 42.084 31.6351 42.084C28.8841 42.084 26.3941 40.9695 24.5911 39.1695L24.2536 38.823L28.6861 34.383L29.0236 34.728C29.6911 35.4 30.6166 35.817 31.6396 35.817C33.6766 35.817 35.3266 34.1655 35.3266 32.13C35.3266 31.1085 34.9111 30.1845 34.2406 29.5155L33.3676 28.644L24.2446 19.509L28.6876 15.069L38.6791 25.077C40.4911 26.871 41.6131 29.361 41.6131 32.1105C41.6131 32.955 41.5081 33.774 41.3086 34.557L41.3236 34.488C44.2726 34.908 46.5151 37.416 46.5151 40.449C46.5151 43.773 43.8211 46.467 40.4971 46.467C37.6021 46.467 35.1841 44.4225 34.6096 41.6985L34.6021 41.6595L34.5781 41.64ZM32.8456 29.172L22.8526 39.1755C21.0466 40.977 18.5551 42.09 15.8041 42.09C14.9476 42.09 14.1166 41.982 13.3231 41.7795L13.3921 41.7945C12.7561 44.49 10.3711 46.4655 7.5256 46.4655C4.2016 46.4655 1.5061 43.77 1.5061 40.446C1.5061 37.6155 3.4606 35.241 6.0931 34.5975L6.1336 34.5885C5.9356 33.8475 5.8231 32.997 5.8231 32.1195C5.8231 29.364 6.9421 26.8695 8.7496 25.065L9.0856 24.7275L13.5286 29.1705L13.1836 29.5095C12.5161 30.1785 12.1021 31.1025 12.1021 32.124C12.1021 33.1455 12.5146 34.068 13.1836 34.7385C13.8481 35.415 14.7736 35.835 15.7951 35.835C16.8166 35.835 17.7421 35.415 18.4066 34.7385L19.2781 33.867L28.4056 24.7245L32.8456 29.172Z" fill="#8D88A3"/>
</svg>
