<svg width="40" height="40" viewBox="0 0 40 40" fill="none" xmlns="http://www.w3.org/2000/svg">
<g clip-path="url(#clip0_14096_53)">
<path d="M39.3725 9.03327C39.3868 9.0865 39.3943 9.14139 39.3943 9.19653V17.7675C39.3943 17.9914 39.2745 18.1982 39.0803 18.3096L31.8866 22.4513V30.6606C31.8866 30.884 31.7678 31.0902 31.5741 31.2027L16.5578 39.847C16.5234 39.8666 16.4859 39.8791 16.4484 39.8923C16.4344 39.897 16.4211 39.9056 16.4063 39.9095C16.3013 39.9372 16.1909 39.9372 16.086 39.9095C16.0688 39.9048 16.0532 39.8955 16.0368 39.8892C16.0024 39.8767 15.9665 39.8658 15.9336 39.847L0.920473 31.2027C0.72635 31.0912 0.606445 30.8844 0.606445 30.6606V4.94779C0.606445 4.89154 0.614257 4.83686 0.628318 4.78374C0.633005 4.76578 0.643941 4.74937 0.65019 4.7314C0.661908 4.6986 0.672844 4.66501 0.69003 4.63454C0.701747 4.61423 0.718933 4.59783 0.732994 4.57908C0.750961 4.55408 0.767365 4.5283 0.788456 4.50643C0.806423 4.48846 0.829858 4.47518 0.850168 4.45956C0.872822 4.44081 0.893132 4.4205 0.918911 4.40566H0.919692L8.42667 0.0834839C8.62011 -0.027828 8.85816 -0.027828 9.0516 0.0834839L16.5586 4.40566H16.5601C16.5851 4.42128 16.6062 4.44081 16.6289 4.45878C16.6492 4.4744 16.6718 4.48846 16.6898 4.50565C16.7117 4.5283 16.7273 4.55408 16.7461 4.57908C16.7593 4.59783 16.7773 4.61423 16.7882 4.63454C16.8062 4.66579 16.8164 4.6986 16.8289 4.7314C16.8351 4.74937 16.846 4.76578 16.8507 4.78452C16.8651 4.83776 16.8725 4.89265 16.8726 4.94779V21.0077L23.1282 17.4058V9.19575C23.1282 9.14107 23.136 9.08561 23.15 9.03327C23.1555 9.01452 23.1657 8.99812 23.1719 8.98015C23.1844 8.94734 23.1953 8.91375 23.2125 8.88329C23.2242 8.86298 23.2414 8.84657 23.2547 8.82783C23.2735 8.80283 23.2891 8.77705 23.311 8.75518C23.3289 8.73721 23.3516 8.72393 23.3719 8.70831C23.3953 8.68956 23.4156 8.66925 23.4406 8.65441H23.4414L30.9492 4.33223C31.1426 4.22076 31.3807 4.22076 31.5741 4.33223L39.0811 8.65441C39.1076 8.67003 39.1279 8.68956 39.1514 8.70753C39.1709 8.72315 39.1936 8.73721 39.2115 8.7544C39.2334 8.77705 39.249 8.80283 39.2678 8.82783C39.2818 8.84657 39.299 8.86298 39.31 8.88329C39.3279 8.91375 39.3381 8.94734 39.3506 8.98015C39.3576 8.99812 39.3678 9.01452 39.3725 9.03327ZM38.1429 17.4058V10.2784L35.5159 11.7908L31.8866 13.8804V21.0077L38.1437 17.4058H38.1429ZM30.6359 30.2989V23.1669L27.066 25.2057L16.8718 31.0238V38.223L30.6359 30.2989ZM1.85787 6.0297V30.2989L15.6204 38.2222V31.0246L8.43058 26.9555L8.42823 26.9539L8.42511 26.9524C8.40089 26.9383 8.38058 26.918 8.35793 26.9008C8.3384 26.8852 8.31575 26.8727 8.29856 26.8555L8.297 26.8532C8.27669 26.8336 8.26263 26.8094 8.24544 26.7875C8.22982 26.7665 8.21107 26.7485 8.19857 26.7266L8.19779 26.7243C8.18373 26.7008 8.17514 26.6727 8.16498 26.6462C8.15483 26.6227 8.14155 26.6009 8.1353 26.5759V26.5751C8.12749 26.5454 8.12592 26.5141 8.1228 26.4837C8.11967 26.4602 8.11342 26.4368 8.11342 26.4134V26.4118V9.63164L4.48492 7.54125L1.85787 6.03048V6.0297ZM8.73992 1.34741L2.48514 4.94779L8.73835 8.54817L14.9923 4.94701L8.73835 1.34741H8.73992ZM11.9927 23.8168L15.6212 21.728V6.0297L12.9941 7.54203L9.36485 9.63164V25.3299L11.9927 23.8168ZM31.2616 5.59615L25.0076 9.19653L31.2616 12.7969L37.5148 9.19575L31.2616 5.59615ZM30.6359 13.8804L27.0066 11.7908L24.3796 10.2784V17.4058L28.0081 19.4946L30.6359 21.0077V13.8804ZM16.2453 29.9419L25.4185 24.705L30.004 22.0881L23.7547 18.49L16.5594 22.6325L10.0015 26.4079L16.2453 29.9419Z" fill="#FF2D20"/>
</g>
<defs>
<clipPath id="clip0_14096_53">
<rect width="40" height="40" fill="white"/>
</clipPath>
</defs>
</svg>
