<svg width="48" height="48" viewBox="0 0 48 48" fill="none" xmlns="http://www.w3.org/2000/svg">
<g clip-path="url(#clip0_14100_87)">
<path d="M47.2879 10.86C47.3059 10.924 47.3159 10.99 47.3159 11.058V21.358C47.3159 21.628 47.1699 21.878 46.9379 22.01L38.2919 26.99V36.858C38.2919 37.128 38.1479 37.374 37.9159 37.51L19.8619 47.9C19.8199 47.924 19.7759 47.94 19.7299 47.954C19.7139 47.958 19.6979 47.97 19.6819 47.974C19.5559 48.01 19.4219 48.01 19.2979 47.974C19.2759 47.97 19.2579 47.958 19.2399 47.95C19.1979 47.934 19.1539 47.922 19.1139 47.9L1.06794 37.51C0.833941 37.374 0.689941 37.128 0.689941 36.858V5.94801C0.689941 5.88201 0.699941 5.81601 0.717941 5.75201C0.723941 5.72801 0.737941 5.71001 0.745941 5.68801C0.757941 5.64801 0.773941 5.60801 0.791941 5.57201C0.799941 5.54601 0.821941 5.52801 0.837941 5.50601C0.861941 5.47401 0.879941 5.44401 0.903941 5.41601C0.927941 5.39601 0.953941 5.38001 0.977941 5.36201C1.00594 5.33801 1.03194 5.31401 1.05994 5.29401H1.06194L10.0879 0.100012C10.3179 -0.0339883 10.6059 -0.0339883 10.8379 0.100012L19.8619 5.29401H19.8659C19.8959 5.31401 19.9199 5.33601 19.9479 5.36001C19.9719 5.37801 19.9979 5.39601 20.0219 5.41401C20.0479 5.44201 20.0639 5.47201 20.0879 5.50401C20.1039 5.52601 20.1279 5.54601 20.1379 5.57001C20.1599 5.60801 20.1719 5.64601 20.1859 5.68601C20.1919 5.70801 20.2079 5.72801 20.2119 5.75001C20.2319 5.81201 20.2399 5.87801 20.2399 5.94601V25.25L27.7599 20.922V11.054C27.7599 10.988 27.7699 10.922 27.7879 10.858C27.7939 10.836 27.8059 10.816 27.8139 10.794C27.8279 10.754 27.8419 10.716 27.8619 10.676C27.8759 10.652 27.8979 10.634 27.9119 10.61C27.9359 10.58 27.9539 10.55 27.9779 10.524C28.0019 10.5 28.0279 10.484 28.0519 10.468C28.0799 10.446 28.1039 10.422 28.1339 10.404L37.1619 5.20801C37.3939 5.07401 37.6799 5.07401 37.9119 5.20801L46.9379 10.404C46.9699 10.424 46.9919 10.446 47.0219 10.466C47.0459 10.486 47.0719 10.502 47.0939 10.522C47.1199 10.55 47.1379 10.58 47.1619 10.61C47.1779 10.634 47.1999 10.652 47.2099 10.676C47.2319 10.716 47.2459 10.754 47.2579 10.794C47.2699 10.816 47.2819 10.838 47.2879 10.86ZM45.8079 20.924V12.358L42.6519 14.174L38.2879 16.686V25.252L45.8079 20.924ZM36.7859 36.424V27.85L32.4939 30.3L20.2399 37.296V45.948L36.7859 36.424ZM2.18994 7.24801V36.424L18.7359 45.948V37.296L10.0919 32.406L10.0879 32.4H10.0839C10.0559 32.38 10.0339 32.358 10.0039 32.338C9.98194 32.318 9.95594 32.302 9.93394 32.284L9.93194 32.28C9.90594 32.256 9.88994 32.23 9.86994 32.202C9.84994 32.178 9.82794 32.156 9.81394 32.128H9.80994C9.79394 32.1 9.78394 32.066 9.76994 32.034C9.75794 32.002 9.74194 31.98 9.73394 31.948C9.72594 31.912 9.72194 31.874 9.71794 31.834C9.71394 31.806 9.70594 31.78 9.70594 31.752V11.578L5.34594 9.06401L2.18994 7.24801ZM10.4619 1.62001L2.94194 5.94801L10.4619 10.276L17.9779 5.94801L10.4619 1.62001ZM14.3739 28.63L18.7379 26.118V7.24801L15.5779 9.06601L11.2139 11.578V30.448L14.3739 28.63ZM37.5379 6.72801L30.0179 11.056L37.5379 15.382L45.0559 11.054L37.5379 6.72801ZM36.7859 16.686L32.4219 14.174L29.2639 12.358V20.924L33.6279 23.436L36.7859 25.252V16.686ZM19.4859 35.994L30.5139 29.698L36.0259 26.554L28.5119 22.228L19.8639 27.206L11.9819 31.746L19.4859 35.994Z" fill="#8D88A3"/>
</g>
<defs>
<clipPath id="clip0_14100_87">
<rect width="48" height="48" fill="white"/>
</clipPath>
</defs>
</svg>
