<svg width="24" height="24" viewBox="0 0 24 24" fill="none" xmlns="http://www.w3.org/2000/svg">
<g id="line-md:twitter">
<path id="Vector" d="M19.8898 7.33989C19.7998 7.66989 19.3998 8.49989 18.7198 9.28989C18.2698 17.9699 9.84975 20.7899 4.07975 17.8799C3.28975 16.8299 6.92975 17.2599 8.25975 15.2499C3.22975 12.6799 3.62975 5.80989 4.63975 6.08989C7.00975 9.27989 10.8298 9.56989 11.4498 9.27989C11.4498 8.54989 11.1398 6.95989 12.8598 5.62989C13.8498 4.91989 15.9198 4.28989 17.7898 6.31989C18.1098 6.52989 18.5698 6.61989 19.2598 6.46989C19.6698 6.25989 20.2098 6.39989 19.9298 7.12989L19.8898 7.33989Z" stroke="white" stroke-width="2" stroke-linecap="round" stroke-linejoin="round"/>
</g>
</svg>
