<svg width="158" height="158" viewBox="0 0 158 158" fill="none" xmlns="http://www.w3.org/2000/svg">
<g clip-path="url(#clip0_16137_165)">
<path d="M29.3 140C30 140.5 30.6 141 31.3 141.5L141.6 31.3C141.1 30.6 140.6 30 140.1 29.3L29.3 140Z" fill="#5952B9"/>
<path d="M56.3 154.2C57.2 154.5 58.1 154.7 59.1 155L154.9 59C154.7 58.1 154.4 57.2 154.1 56.2L56.3 154.2Z" fill="#5952B9"/>
<path d="M37.3 145.7C38 146.2 38.8 146.6 39.5 147L147 39.5C146.6 38.8 146.1 38 145.7 37.3L37.3 145.7Z" fill="#5952B9"/>
<path d="M46.3 150.5C47.1 150.9 47.9 151.2 48.8 151.6L151.5 48.7C151.2 47.9 150.8 47.1 150.4 46.2L46.3 150.5Z" fill="#5952B9"/>
<path d="M67.5 156.6C68.5 156.7 69.6 156.9 70.6 157L157 70.6C156.9 69.6 156.8 68.5 156.6 67.5L67.5 156.6Z" fill="#5952B9"/>
<path d="M23 134.4C23.3 134.7 23.6 135 23.9 135.3L135.2 23.9C134.9 23.6 134.6 23.3 134.3 23C134 22.7 133.7 22.4 133.4 22.1L22.2 133.5C22.5 133.8 22.7 134.1 23 134.4Z" fill="#5952B9"/>
<path d="M80.3999 157.4C81.5999 157.4 82.8999 157.3 84.0999 157.2L157.2 84.1C157.3 82.9 157.3 81.6 157.4 80.4L80.3999 157.4Z" fill="#5952B9"/>
<path d="M155.5 96L96 155.5C97.6 155.1 99.2 154.7 100.7 154.3L154.2 100.8C154.7 99.2 155.2 97.6 155.5 96Z" fill="#5952B9"/>
<path d="M0.2 73.3C0.1 74.5 0 75.8 0 77L77 0C75.8 0 74.5 0.1 73.3 0.2L0.2 73.3Z" fill="#5952B9"/>
<path d="M0.399902 86.8C0.499902 87.8 0.599902 88.9 0.799902 89.9L89.8999 0.800024C88.8999 0.700024 87.7999 0.500024 86.7999 0.400024L0.399902 86.8Z" fill="#5952B9"/>
<path d="M118.7 146.5C124.3 143.2 129.6 139.1 134.4 134.3C139.2 129.5 143.3 124.2 146.6 118.6L118.7 146.5Z" fill="#5952B9"/>
<path d="M3.0999 56.7C2.5999 58.3 2.1999 59.8 1.8999 61.4L61.3999 1.90002C59.7999 2.30002 58.1999 2.70002 56.6999 3.10002L3.0999 56.7Z" fill="#5952B9"/>
<path d="M38.7001 10.9C33.1001 14.2 27.8 18.2 23 23C18.2 27.8 14.1 33.1 10.8 38.7L38.7001 10.9Z" fill="#5952B9"/>
<path d="M10.3999 117.9C10.7999 118.6 11.2999 119.4 11.6999 120.1L120.1 11.7C119.4 11.2 118.6 10.8 117.9 10.4L10.3999 117.9Z" fill="#5952B9"/>
<path d="M15.8 126.1C16.3 126.8 16.8 127.4 17.3 128.1L128.1 17.4C127.4 16.9 126.8 16.4 126.1 15.9L15.8 126.1Z" fill="#5952B9"/>
<path d="M2.5 98.4C2.7 99.3 3 100.2 3.3 101.2L101.2 3.3C100.3 3 99.4 2.8 98.4 2.5L2.5 98.4Z" fill="#5952B9"/>
<path d="M5.8999 108.7C6.1999 109.5 6.5999 110.3 6.9999 111.2L111.1 6.90005C110.3 6.50005 109.5 6.20005 108.6 5.80005L5.8999 108.7Z" fill="#5952B9"/>
</g>
<defs>
<clipPath id="clip0_16137_165">
<rect width="157.4" height="157.4" fill="white"/>
</clipPath>
</defs>
</svg>
