<svg width="62" height="65" viewBox="0 0 62 65" fill="none" xmlns="http://www.w3.org/2000/svg">
<path d="M23.8 47.6C36.9444 47.6 47.6 36.9444 47.6 23.8C47.6 10.6556 36.9444 0 23.8 0C10.6556 0 0 10.6556 0 23.8C0 36.9444 10.6556 47.6 23.8 47.6Z" fill="url(#paint0_linear_16130_408)"/>
<path d="M14.2999 18.3002H18.3999V31.5002H14.2999V18.3002ZM16.2999 11.7002C17.5999 11.7002 18.6999 12.8002 18.6999 14.1002C18.6999 15.4002 17.5999 16.5002 16.2999 16.5002C14.9999 16.5002 13.8999 15.4002 13.8999 14.1002C13.9999 12.8002 14.9999 11.7002 16.2999 11.7002Z" fill="white"/>
<path d="M20.8999 18.3H24.7999V20.1H24.8999C25.3999 19.1 26.7999 18 28.7999 18C32.8999 18 33.6999 20.7 33.6999 24.3V31.5H29.5999V25C29.5999 23.5 29.5999 21.5 27.4999 21.5C25.3999 21.5 24.9999 23.2 24.9999 24.9V31.4H20.8999V18.3Z" fill="white"/>
<defs>
<linearGradient id="paint0_linear_16130_408" x1="6.9801" y1="6.9801" x2="40.6829" y2="40.6829" gradientUnits="userSpaceOnUse">
<stop stop-color="#007BB8"/>
<stop offset="1" stop-color="#0044E9"/>
</linearGradient>
</defs>
</svg>
