<svg width="1522" height="972" viewBox="0 0 1522 972" fill="none" xmlns="http://www.w3.org/2000/svg">
<path d="M136.191 821C126.246 821 117.054 818.589 108.616 813.767C100.479 808.644 93.8489 802.014 88.7257 793.877C83.9038 785.439 81.4928 776.247 81.4928 766.302V613.508C81.4928 603.563 83.9038 594.522 88.7257 586.385C93.8489 577.946 100.479 571.316 108.616 566.494C117.054 561.371 126.246 558.81 136.191 558.81H347.752V595.878H136.191C131.369 595.878 127.15 597.686 123.534 601.303C120.219 604.618 118.561 608.686 118.561 613.508V766.302C118.561 771.124 120.219 775.343 123.534 778.959C127.15 782.274 131.369 783.932 136.191 783.932H348.656V821H136.191ZM460.002 821C450.057 821 440.865 818.589 432.427 813.767C424.29 808.644 417.66 802.014 412.536 793.877C407.715 785.439 405.304 776.247 405.304 766.302V472.92H442.372V766.302C442.372 771.124 444.029 775.343 447.345 778.959C450.961 782.274 455.18 783.932 460.002 783.932H504.303V821H460.002ZM600.587 821C590.642 821 581.45 818.589 573.012 813.767C564.875 808.644 558.245 802.014 553.121 793.877C548.299 785.439 545.888 776.247 545.888 766.302V613.508C545.888 603.563 548.299 594.522 553.121 586.385C558.245 577.946 564.875 571.316 573.012 566.494C581.45 561.371 590.642 558.81 600.587 558.81H757.901C768.148 558.81 777.339 561.371 785.476 566.494C793.915 571.316 800.545 577.946 805.366 586.385C810.49 594.522 813.051 603.563 813.051 613.508V766.302C813.051 776.247 810.49 785.439 805.366 793.877C800.545 802.014 793.915 808.644 785.476 813.767C777.339 818.589 768.148 821 757.901 821H600.587ZM600.587 783.932H757.901C762.723 783.932 766.791 782.274 770.106 778.959C773.723 775.343 775.531 771.124 775.531 766.302V613.508C775.531 608.686 773.723 604.618 770.106 601.303C766.791 597.686 762.723 595.878 757.901 595.878H600.587C595.765 595.878 591.546 597.686 587.929 601.303C584.614 604.618 582.957 608.686 582.957 613.508V766.302C582.957 771.124 584.614 775.343 587.929 778.959C591.546 782.274 595.765 783.932 600.587 783.932ZM912.93 821C902.985 821 893.793 818.589 885.355 813.767C877.218 808.644 870.588 802.014 865.465 793.877C860.643 785.439 858.232 776.247 858.232 766.302V558.81H895.3V766.302C895.3 771.124 896.958 775.343 900.273 778.959C903.889 782.274 908.108 783.932 912.93 783.932H1070.24C1075.07 783.932 1079.29 782.274 1082.9 778.959C1086.52 775.343 1088.33 771.124 1088.33 766.302V558.81H1125.39V766.302C1125.39 776.247 1122.83 785.439 1117.71 793.877C1112.89 802.014 1106.26 808.644 1097.82 813.767C1089.68 818.589 1080.49 821 1070.24 821H912.93ZM1227.59 821C1217.35 821 1208.01 818.589 1199.57 813.767C1191.43 808.644 1184.8 802.014 1179.68 793.877C1174.85 785.439 1172.44 776.247 1172.44 766.302V613.508C1172.44 603.563 1174.85 594.522 1179.68 586.385C1184.8 577.946 1191.43 571.316 1199.57 566.494C1208.01 561.371 1217.35 558.81 1227.59 558.81H1402.54V472.92H1439.61V821H1227.59ZM1227.59 783.932H1384.91C1389.73 783.932 1393.8 782.274 1397.11 778.959C1400.73 775.343 1402.54 771.124 1402.54 766.302V613.508C1402.54 608.686 1400.73 604.618 1397.11 601.303C1393.8 597.686 1389.73 595.878 1384.91 595.878H1227.59C1222.77 595.878 1218.55 597.686 1214.94 601.303C1211.62 604.618 1209.96 608.686 1209.96 613.508V766.302C1209.96 771.124 1211.62 775.343 1214.94 778.959C1218.55 782.274 1222.77 783.932 1227.59 783.932Z" fill="url(#paint0_linear_23_41)"/>
<path d="M760.238 345.052L665.7 462.861L638.793 446.135L843.141 188.701L869.684 208.336L779.873 320.327L883.137 439.954L855.503 461.407L760.238 345.052ZM670.427 190.519L748.239 280.694L726.786 305.783L646.429 209.063L670.427 190.519Z" fill="url(#paint1_linear_23_41)"/>
<path d="M981.294 888.798V953H974.599V923.376H934.427V953H927.64V888.798H934.427V917.414H974.599V888.798H981.294ZM1049.02 953.459C1044.38 953.459 1040.19 952.419 1036.46 950.34C1032.73 948.2 1029.79 945.265 1027.65 941.535C1025.51 937.806 1024.44 933.587 1024.44 928.879C1024.44 924.17 1025.51 919.951 1027.65 916.222C1029.79 912.492 1032.73 909.588 1036.46 907.509C1040.19 905.43 1044.38 904.39 1049.02 904.39C1053.67 904.39 1057.86 905.43 1061.59 907.509C1065.32 909.588 1068.22 912.492 1070.3 916.222C1072.44 919.951 1073.51 924.17 1073.51 928.879C1073.51 933.587 1072.44 937.806 1070.3 941.535C1068.22 945.265 1065.32 948.2 1061.59 950.34C1057.86 952.419 1053.67 953.459 1049.02 953.459ZM1049.02 947.68C1052.45 947.68 1055.51 946.916 1058.2 945.388C1060.95 943.798 1063.09 941.566 1064.62 938.692C1066.15 935.818 1066.91 932.547 1066.91 928.879C1066.91 925.21 1066.15 921.939 1064.62 919.065C1063.09 916.191 1060.95 913.99 1058.2 912.461C1055.51 910.872 1052.45 910.077 1049.02 910.077C1045.6 910.077 1042.51 910.872 1039.76 912.461C1037.07 913.99 1034.93 916.191 1033.34 919.065C1031.81 921.939 1031.05 925.21 1031.05 928.879C1031.05 932.547 1031.81 935.818 1033.34 938.692C1034.93 941.566 1037.07 943.798 1039.76 945.388C1042.51 946.916 1045.6 947.68 1049.02 947.68ZM1128.17 953.459C1124.26 953.459 1120.5 952.908 1116.89 951.808C1113.34 950.646 1110.56 949.209 1108.54 947.497L1111.48 942.361C1113.5 943.951 1116.03 945.265 1119.09 946.305C1122.15 947.283 1125.33 947.772 1128.63 947.772C1133.03 947.772 1136.27 947.1 1138.35 945.754C1140.49 944.348 1141.56 942.391 1141.56 939.885C1141.56 938.111 1140.98 936.736 1139.82 935.757C1138.66 934.718 1137.19 933.954 1135.42 933.464C1133.64 932.914 1131.29 932.394 1128.36 931.905C1124.44 931.171 1121.29 930.438 1118.91 929.704C1116.52 928.909 1114.48 927.595 1112.76 925.76C1111.11 923.926 1110.29 921.388 1110.29 918.148C1110.29 914.112 1111.97 910.81 1115.33 908.242C1118.69 905.674 1123.37 904.39 1129.36 904.39C1132.48 904.39 1135.6 904.818 1138.72 905.674C1141.84 906.469 1144.41 907.539 1146.42 908.884L1143.58 914.112C1139.61 911.361 1134.87 909.985 1129.36 909.985C1125.21 909.985 1122.06 910.719 1119.92 912.186C1117.84 913.654 1116.8 915.58 1116.8 917.964C1116.8 919.799 1117.38 921.266 1118.54 922.367C1119.76 923.467 1121.26 924.293 1123.04 924.843C1124.81 925.332 1127.25 925.852 1130.37 926.402C1134.23 927.136 1137.31 927.87 1139.64 928.603C1141.96 929.337 1143.95 930.591 1145.6 932.364C1147.25 934.137 1148.07 936.583 1148.07 939.701C1148.07 943.92 1146.3 947.283 1142.75 949.79C1139.27 952.236 1134.41 953.459 1128.17 953.459ZM1212.3 950.065C1211.08 951.166 1209.58 952.022 1207.81 952.633C1206.03 953.183 1204.17 953.459 1202.21 953.459C1197.69 953.459 1194.2 952.236 1191.75 949.79C1189.31 947.344 1188.09 943.889 1188.09 939.426V894.21H1194.6V904.757H1209.18V910.26H1194.6V939.059C1194.6 941.933 1195.3 944.134 1196.71 945.663C1198.11 947.13 1200.16 947.864 1202.85 947.864C1205.79 947.864 1208.17 947.038 1210.01 945.388L1212.3 950.065ZM1252.54 904.757H1259.05V953H1252.54V904.757ZM1255.84 894.21C1254.49 894.21 1253.36 893.751 1252.44 892.834C1251.53 891.917 1251.07 890.816 1251.07 889.532C1251.07 888.309 1251.53 887.239 1252.44 886.322C1253.36 885.405 1254.49 884.946 1255.84 884.946C1257.18 884.946 1258.31 885.405 1259.23 886.322C1260.15 887.178 1260.61 888.218 1260.61 889.44C1260.61 890.786 1260.15 891.917 1259.23 892.834C1258.31 893.751 1257.18 894.21 1255.84 894.21ZM1330.18 904.39C1336.23 904.39 1341.03 906.163 1344.58 909.71C1348.19 913.195 1349.99 918.301 1349.99 925.026V953H1343.48V925.668C1343.48 920.655 1342.22 916.833 1339.72 914.204C1337.21 911.575 1333.63 910.26 1328.99 910.26C1323.79 910.26 1319.66 911.819 1316.6 914.938C1313.61 917.995 1312.11 922.244 1312.11 927.686V953H1305.6V904.757H1311.83V913.654C1313.61 910.719 1316.05 908.456 1319.17 906.867C1322.35 905.216 1326.02 904.39 1330.18 904.39ZM1440.95 904.757V947.13C1440.95 955.323 1438.93 961.377 1434.89 965.29C1430.92 969.264 1424.89 971.252 1416.82 971.252C1412.36 971.252 1408.11 970.579 1404.08 969.234C1400.1 967.95 1396.86 966.146 1394.35 963.823L1397.65 958.87C1399.98 960.949 1402.79 962.569 1406.09 963.731C1409.46 964.893 1412.97 965.473 1416.64 965.473C1422.75 965.473 1427.25 964.037 1430.12 961.163C1433 958.35 1434.43 953.948 1434.43 947.956V941.811C1432.42 944.868 1429.76 947.191 1426.45 948.781C1423.21 950.371 1419.61 951.166 1415.63 951.166C1411.11 951.166 1406.98 950.187 1403.25 948.231C1399.58 946.213 1396.68 943.431 1394.54 939.885C1392.46 936.277 1391.42 932.211 1391.42 927.686C1391.42 923.162 1392.46 919.126 1394.54 915.58C1396.68 912.033 1399.58 909.282 1403.25 907.325C1406.92 905.369 1411.05 904.39 1415.63 904.39C1419.73 904.39 1423.43 905.216 1426.73 906.867C1430.03 908.517 1432.69 910.902 1434.71 914.02V904.757H1440.95ZM1416.27 945.388C1419.76 945.388 1422.91 944.654 1425.72 943.186C1428.53 941.658 1430.7 939.548 1432.23 936.858C1433.82 934.168 1434.62 931.11 1434.62 927.686C1434.62 924.262 1433.82 921.236 1432.23 918.606C1430.7 915.916 1428.53 913.837 1425.72 912.37C1422.97 910.841 1419.82 910.077 1416.27 910.077C1412.79 910.077 1409.64 910.81 1406.83 912.278C1404.08 913.745 1401.9 915.824 1400.31 918.515C1398.79 921.205 1398.02 924.262 1398.02 927.686C1398.02 931.11 1398.79 934.168 1400.31 936.858C1401.9 939.548 1404.08 941.658 1406.83 943.186C1409.64 944.654 1412.79 945.388 1416.27 945.388Z" fill="#001234"/>
<path d="M1097.7 494.306C1238.47 373.592 1089.51 211.694 934.812 211.694C825.847 -212.454 186.64 138.362 469.903 458.061" stroke="url(#paint2_linear_23_41)" stroke-width="30.6452" stroke-linecap="round" stroke-linejoin="round"/>
<defs>
<linearGradient id="paint0_linear_23_41" x1="-110.145" y1="591.152" x2="40.8688" y2="184.019" gradientUnits="userSpaceOnUse">
<stop offset="0.00238898" stop-color="#023CA9"/>
<stop offset="0.566667" stop-color="#39454A"/>
<stop offset="1" stop-color="#0059FF"/>
</linearGradient>
<linearGradient id="paint1_linear_23_41" x1="571.785" y1="292.472" x2="949.742" y2="292.472" gradientUnits="userSpaceOnUse">
<stop stop-color="#001234"/>
<stop offset="1" stop-color="#0349B0"/>
</linearGradient>
<linearGradient id="paint2_linear_23_41" x1="398.129" y1="255.153" x2="1154.04" y2="255.153" gradientUnits="userSpaceOnUse">
<stop stop-color="#001234"/>
<stop offset="1" stop-color="#0349B0"/>
</linearGradient>
</defs>
</svg>
