<svg width="289" height="298" viewBox="0 0 289 298" fill="none" xmlns="http://www.w3.org/2000/svg">
<g clip-path="url(#clip0_16137_437)">
<path d="M144.474 148.21C144.412 148.435 144.362 148.664 144.324 148.895C144.386 148.67 144.436 148.44 144.474 148.21ZM65.478 190.725L60.918 184.312C60.388 184.37 59.8552 184.399 59.322 184.398H53.965V190.725H51.855V170.775H59.322C64.395 170.775 67.473 173.34 67.473 177.615C67.5414 179.023 67.1266 180.413 66.2973 181.553C65.468 182.693 64.2739 183.516 62.913 183.885L67.787 190.725H65.478ZM65.364 177.615C65.364 174.423 63.256 172.599 59.265 172.599H53.965V182.602H59.265C63.255 182.602 65.365 180.75 65.365 177.614L65.364 177.615ZM86.57 188.9V190.725H72.461V170.775H86.141V172.599H74.571V179.695H84.888V181.491H74.57V188.901L86.57 188.9ZM108.202 170.775V190.725H106.463L93.638 174.537V190.725H91.53V170.775H93.269L106.122 186.963V170.775H108.202ZM128.808 188.9V190.725H114.701V170.775H128.381V172.599H116.81V179.695H127.126V181.491H116.81V188.901L128.808 188.9ZM160.872 170.775L154.146 190.725H151.923L146.08 173.71L140.209 190.725H138.015L131.289 170.775H133.455L139.212 187.932L145.168 170.775H147.135L153.005 188.017L158.848 170.775H160.872ZM176.634 185.395H165.52L163.126 190.725H160.932L170.052 170.775H172.132L181.252 190.725H179.029L176.634 185.395ZM175.864 183.685L171.076 172.969L166.289 183.685H175.864ZM201.23 185.395C201.23 188.787 198.722 190.725 193.735 190.725H184.558V170.775H193.165C197.611 170.775 200.176 172.655 200.176 175.905C200.213 176.886 199.938 177.853 199.39 178.668C198.842 179.482 198.049 180.101 197.126 180.436C198.307 180.599 199.383 181.199 200.143 182.117C200.903 183.035 201.29 184.205 201.23 185.395ZM186.667 172.513V179.753H193.022C196.215 179.753 198.067 178.527 198.067 176.133C198.067 173.739 196.215 172.513 193.022 172.513H186.667ZM199.122 185.224C199.122 182.631 197.212 181.491 193.706 181.491H186.667V188.986H193.707C197.212 188.986 199.122 187.846 199.122 185.224ZM206.048 170.775H208.158V188.9H219.329V190.724H206.049L206.048 170.775ZM236.943 188.9V190.725H222.835V170.775H236.515V172.599H224.945V179.695H235.261V181.491H224.945V188.901L236.943 188.9ZM99.125 223.103V224.927H85.017V204.977H98.697V206.801H87.126V213.897H97.443V215.692H87.126V223.102L99.125 223.103ZM120.757 204.977V224.927H119.018L106.194 208.739V224.927H104.084V204.977H105.823L118.677 221.164V204.977H120.757ZM141.364 223.103V224.927H127.256V204.977H140.936V206.801H129.366V213.897H139.682V215.692H129.365V223.102L141.364 223.103ZM159.946 224.927L155.386 218.514C154.856 218.572 154.323 218.601 153.79 218.6H148.432V224.927H146.323V204.977H153.79C158.863 204.977 161.941 207.542 161.941 211.817C162.009 213.225 161.595 214.615 160.765 215.755C159.936 216.895 158.742 217.718 157.381 218.087L162.255 224.927H159.946ZM159.832 211.817C159.832 208.625 157.723 206.801 153.733 206.801H148.433V216.804H153.733C157.723 216.804 159.833 214.952 159.833 211.816L159.832 211.817ZM180.98 214.952H183.004V222.561C180.951 224.267 178.347 225.168 175.679 225.098C169.609 225.098 165.163 220.794 165.163 214.952C165.163 209.11 169.608 204.806 175.708 204.806C177.075 204.743 178.441 204.967 179.717 205.463C180.993 205.958 182.151 206.715 183.118 207.684L181.806 209.024C180.847 208.003 179.648 207.237 178.319 206.796C176.989 206.355 175.571 206.252 174.191 206.498C172.812 206.743 171.516 207.328 170.42 208.2C169.324 209.072 168.462 210.204 167.914 211.493C167.365 212.782 167.146 214.187 167.278 215.582C167.409 216.977 167.886 218.317 168.665 219.481C169.445 220.644 170.502 221.596 171.742 222.248C172.982 222.9 174.364 223.233 175.765 223.217C177.624 223.278 179.453 222.738 180.98 221.677V214.952ZM195.801 218.03V224.927H193.721V218.03L185.741 204.977H187.992L194.832 216.177L201.672 204.977H203.782L195.801 218.03ZM83.734 105.992C83.734 110.239 80.656 112.804 75.583 112.804H70.225V119.102H68.115V99.1519H75.583C80.656 99.1519 83.734 101.717 83.734 105.992ZM81.624 105.992C81.624 102.8 79.516 100.976 75.526 100.976H70.225V110.951H75.525C79.516 110.951 81.625 109.127 81.625 105.991L81.624 105.992ZM86.813 109.127C86.813 103.313 91.258 98.9819 97.301 98.9819C103.286 98.9819 107.761 103.285 107.761 109.127C107.761 114.97 103.286 119.274 97.301 119.274C91.258 119.274 86.813 114.941 86.813 109.127ZM105.651 109.127C105.674 107.464 105.201 105.831 104.293 104.437C103.385 103.043 102.082 101.951 100.551 101.3C99.0206 100.649 97.3306 100.469 95.6967 100.781C94.0628 101.094 92.5589 101.886 91.3766 103.056C90.1943 104.226 89.3871 105.722 89.0577 107.353C88.7283 108.983 88.8917 110.675 89.5271 112.213C90.1624 113.75 91.241 115.064 92.6254 115.986C94.0098 116.908 95.6374 117.398 97.301 117.392C98.4002 117.429 99.4954 117.241 100.52 116.839C101.544 116.438 102.475 115.832 103.257 115.058C104.038 114.285 104.654 113.36 105.066 112.34C105.477 111.32 105.677 110.227 105.651 109.127ZM139.283 99.1519L132.556 119.102H130.333L124.491 102.088L118.619 119.102H116.426L109.699 99.1519H111.865L117.622 116.309L123.579 99.1519H125.546L131.416 116.394L137.259 99.1519H139.283ZM157.239 117.278V119.102H143.132V99.1519H156.812V100.976H145.24V108.073H155.556V109.868H145.24V117.278H157.239ZM175.822 119.102L171.262 112.69C170.732 112.748 170.199 112.776 169.666 112.775H164.308V119.102H162.198V99.1519H169.666C174.739 99.1519 177.816 101.717 177.816 105.992C177.884 107.4 177.47 108.79 176.64 109.93C175.811 111.07 174.617 111.893 173.256 112.262L178.13 119.102H175.822ZM175.708 105.992C175.708 102.8 173.598 100.976 169.608 100.976H164.308V110.98H169.608C173.598 110.98 175.708 109.127 175.708 105.992ZM196.913 117.278V119.102H182.805V99.1519H196.485V100.976H184.915V108.073H195.231V109.868H184.915V117.278H196.913ZM201.873 99.1519H209.995C216.379 99.1519 220.682 103.256 220.682 109.127C220.682 114.998 216.379 119.102 209.995 119.102H201.873V99.1519ZM209.881 117.278C215.182 117.278 218.602 113.916 218.602 109.128C218.602 104.34 215.182 100.976 209.882 100.976H203.982V117.278H209.881ZM133.694 130.946V156.523H127.775V135.696H122.66V130.946H133.694Z" fill="#D0D2D3"/>
<path d="M138.153 143.734C138.153 135.294 142.829 130.508 149.114 130.508C155.435 130.508 160.075 135.294 160.075 143.734C160.075 152.174 155.435 156.961 149.115 156.961C142.829 156.961 138.153 152.175 138.153 143.734ZM154.12 143.734C154.12 137.925 152.073 135.514 149.114 135.514C146.191 135.514 144.145 137.925 144.145 143.734C144.145 149.544 146.191 151.956 149.115 151.956C152.073 151.956 154.12 149.544 154.12 143.734ZM162.963 143.734C162.963 135.294 167.64 130.508 173.925 130.508C180.245 130.508 184.885 135.294 184.885 143.734C184.885 152.174 180.245 156.961 173.925 156.961C167.64 156.961 162.963 152.175 162.963 143.734ZM178.931 143.734C178.931 137.925 176.884 135.514 173.925 135.514C171.002 135.514 168.955 137.925 168.955 143.734C168.955 149.544 171.002 151.956 173.925 151.956C176.884 151.956 178.931 149.544 178.931 143.734ZM187.336 137.706C187.336 133.394 189.966 130.654 193.693 130.654C197.42 130.654 200.014 133.358 200.014 137.706C200.014 142.054 197.42 144.758 193.693 144.758C189.966 144.758 187.336 142.018 187.336 137.706ZM196.36 137.706C196.36 134.966 195.301 133.65 193.693 133.65C192.123 133.65 191.026 135.002 191.026 137.706C191.026 140.41 192.122 141.761 193.693 141.761C195.301 141.761 196.36 140.446 196.36 137.706ZM208.93 130.946H213.277L195.812 156.523H191.464L208.93 130.946ZM204.728 149.763C204.728 145.452 207.358 142.712 211.048 142.712C214.775 142.712 217.406 145.452 217.406 149.763C217.406 154.074 214.776 156.815 211.049 156.815C207.359 156.815 204.728 154.075 204.728 149.763ZM213.716 149.763C213.716 147.06 212.656 145.708 211.049 145.708C209.477 145.708 208.381 147.023 208.381 149.763C208.381 152.503 209.477 153.819 211.049 153.819C212.656 153.819 213.716 152.467 213.716 149.763ZM88.0641 149.713C88.0641 153.103 85.5571 155.042 80.5691 155.042H71.3921V135.092H80.0001C84.4461 135.092 87.0111 136.974 87.0111 140.222C87.0487 141.203 86.7735 142.171 86.2253 142.985C85.6771 143.8 84.8842 144.419 83.9611 144.754C85.1415 144.917 86.2178 145.517 86.9776 146.435C87.7373 147.353 88.1244 148.523 88.0641 149.713ZM73.5011 136.83V144.07H79.8571C83.0491 144.07 84.9021 142.843 84.9021 140.449C84.9021 138.056 83.0491 136.829 79.8571 136.829L73.5011 136.83ZM85.9561 149.541C85.9561 146.948 84.0461 145.807 80.5411 145.807H73.5001V153.302H80.5401C84.0451 153.302 85.9551 152.162 85.9551 149.542L85.9561 149.541ZM99.2951 148.146V155.042H97.2151V148.146L89.2351 135.092H91.4851L98.3261 146.293L105.166 135.093H107.276L99.2951 148.146Z" fill="#D0D2D3"/>
<path d="M258.813 64.6C239.734 39.9191 213.222 22.0309 183.193 13.579C182.364 13.322 178.587 12.266 170.354 11.444C169.439 11.3548 168.541 11.1311 167.691 10.78C160.018 7.58596 150.1 -2.32004 140.836 0.58296C138.871 1.19796 137.202 1.85296 135.4 2.48696C135.141 2.5777 134.867 2.61538 134.593 2.59777C134.319 2.58016 134.051 2.50761 133.806 2.38445C133.561 2.26129 133.343 2.09003 133.165 1.88087C132.987 1.67171 132.853 1.42892 132.771 1.16696L132.541 0.43196C132.492 0.276003 132.383 0.145959 132.238 0.0702554C132.093 -0.00544837 131.923 -0.0206547 131.767 0.0279603L119.692 3.81196C119.536 3.86142 119.406 3.97053 119.33 4.11552C119.254 4.26051 119.239 4.42961 119.287 4.58596L120.907 9.75296C120.971 9.95493 120.994 10.1674 120.975 10.3783C120.956 10.5892 120.896 10.7944 120.798 10.982C120.7 11.1696 120.566 11.3361 120.404 11.4718C120.241 11.6075 120.053 11.7099 119.851 11.773C115.687 13.074 104.506 16.576 104.506 16.576C103.59 16.8488 102.8 17.4391 102.279 18.2411C101.758 19.0431 101.539 20.0045 101.662 20.953C101.748 21.5143 101.954 22.0506 102.265 22.5251C102.577 22.9997 102.988 23.4013 103.469 23.7026C103.951 24.0038 104.491 24.1976 105.055 24.2707C105.618 24.3437 106.19 24.2944 106.732 24.126C106.732 24.126 119.376 20.162 122.859 19.066C122.975 19.0296 123.097 19.0165 123.218 19.0275C123.339 19.0384 123.456 19.0731 123.564 19.1296C123.671 19.1861 123.766 19.2633 123.844 19.3567C123.921 19.4501 123.98 19.5579 124.015 19.674L127.757 31.614C127.794 31.7296 127.808 31.8515 127.797 31.9725C127.787 32.0934 127.753 32.2112 127.697 32.3189C127.641 32.4266 127.564 32.5222 127.471 32.6001C127.378 32.678 127.27 32.7368 127.154 32.773C123.685 33.856 111.15 37.782 111.15 37.782C110.234 38.055 109.444 38.6454 108.923 39.4474C108.402 40.2494 108.184 41.2106 108.307 42.159C108.393 42.7203 108.599 43.2566 108.91 43.7311C109.222 44.2057 109.633 44.6073 110.114 44.9086C110.596 45.2098 111.136 45.4036 111.7 45.4767C112.263 45.5497 112.835 45.5004 113.377 45.332C113.377 45.332 124.663 41.793 128.847 40.479C129.049 40.4156 129.262 40.3926 129.472 40.4114C129.683 40.4302 129.888 40.4903 130.076 40.5884C130.263 40.6865 130.43 40.8206 130.565 40.983C130.701 41.1454 130.803 41.333 130.866 41.535L132.762 47.585C132.812 47.7409 132.921 47.8711 133.066 47.9469C133.211 48.0228 133.38 48.0383 133.536 47.99L145.611 44.207C145.767 44.1573 145.897 44.0481 145.973 43.9031C146.048 43.7582 146.064 43.5892 146.015 43.433L145.815 42.793C145.731 42.5232 145.701 42.2391 145.729 41.9578C145.757 41.6764 145.84 41.4035 145.976 41.1553C146.111 40.907 146.295 40.6886 146.517 40.513C146.738 40.3373 146.993 40.2081 147.265 40.133C149.121 39.622 151.69 38.906 152.752 38.573C161.782 35.738 158.395 23.439 166.637 20.833C167.799 20.4817 169.02 20.3737 170.225 20.516C173.696 20.7952 177.137 21.3598 180.515 22.204C180.578 22.224 180.64 22.243 180.703 22.26C208.881 30.1776 233.761 46.9571 251.661 70.115C269.975 93.7423 279.868 122.812 279.767 152.706C279.767 194.005 261.397 232.48 228.525 258.802C208.812 274.578 185.023 284.431 159.928 287.214C118.073 291.844 77.8802 277.627 48.6792 248.426C36.0698 235.885 26.073 220.968 19.2674 204.537C12.4618 188.107 8.98263 170.49 9.03123 152.706C8.88408 134.595 12.5061 116.652 19.6672 100.016C20.8962 97.21 23.1172 96.809 27.1172 97.404C37.7312 98.985 45.7172 94.328 55.0752 77.752C64.0232 61.903 78.3452 44.247 86.3152 38.096C86.4112 38.0237 86.4854 37.9264 86.5296 37.8147C86.5739 37.7031 86.5864 37.5813 86.566 37.463C86.5455 37.3446 86.4928 37.2342 86.4136 37.1439C86.3344 37.0535 86.2319 36.9868 86.1172 36.951C79.4772 34.921 48.4892 26.965 24.9142 46.819C0.327229 67.526 2.50123 87.767 8.26723 97.487C39.0622 40.785 77.2822 39.607 77.2822 39.607C38.0202 48.603 17.0642 83.86 11.4072 96.38C11.3882 96.42 11.3672 96.457 11.3502 96.498L11.3182 96.576C10.902 97.4911 10.5217 98.4221 10.1782 99.367C3.42208 116.337 -0.0324132 134.441 0.000229189 152.707C0.000229189 196.76 19.5942 237.802 54.6602 265.88C75.6888 282.708 101.064 293.218 127.833 296.187C172.48 301.127 215.355 285.962 246.505 254.812C271.306 230.009 286.232 197.027 288.497 162.025C290.762 127.023 280.211 92.3925 258.813 64.6Z" fill="#3C854A"/>
</g>
<defs>
<clipPath id="clip0_16137_437">
<rect width="288.798" height="297.105" fill="white"/>
</clipPath>
</defs>
</svg>
