<svg xmlns="http://www.w3.org/2000/svg" width="20.44" height="20.449" xmlns:v="https://vecta.io/nano"><defs><clipPath id="A"><path d="M20.553,9.844a10.216,10.216,0,1,1-20.4,1.084,6.879,6.879,0,0,1,0-1.084,10.215,10.215,0,0,1,20.4,0Z" transform="translate(409.336 10142.407)" fill="#f5f5f5"/></clipPath></defs><g transform="translate(-409.464 -10142.561)" clip-path="url(#A)"><path d="M404.347 10142.561h30.674v20.449h-30.674z" fill="#006c35"/><g fill="#fff"><path d="M423.58 10156.62a.34.34 0 0 0-.187.189c0 .038.068.115.124.16v.115h-9.585c.34.34.846.349 1.864.349h7.722v.115c-.059.048-.124.122-.124.16a.34.34 0 0 0 .187.189c.041 0 .115-.074.163-.137h.426a.22.22 0 0 0 .328 0h.506a.24.24 0 0 0 .2.074c.145 0 .237-.062.237-.4 0-.319-.142-.349-.491-.349h-1.3v-.115c.056-.045.124-.122.124-.16-.036-.087-.106-.156-.194-.19zm.062.813h1.3a.35.35 0 0 0 0 .222h-.447a.22.22 0 0 0-.328 0h-.426a.6.6 0 0 0-.1-.106zm1.094-4.887l1.078-.415c-.014.059-.054.108-.108.135l-.994.381c-.022.01-.044.018-.067.023l.063-.105c.007-.011.017-.015.028-.019zm-1.12-.479a.82.82 0 0 1 .2.158.36.36 0 0 1 .058.381.1.1 0 0 1-.024.026.34.34 0 0 0 0-.211c-.045-.106-.13-.189-.237-.231 0-.043.007-.087.01-.124zm-2.968-.06a.32.32 0 0 1 .176-.035.47.47 0 0 1 .178.031c.025.023 0 .051-.025.065a1.63 1.63 0 0 0-.306.191c-.023.021-.011.052.018.064a.37.37 0 0 0 .144.017.79.79 0 0 0 .323-.089l.079-.043a1.15 1.15 0 0 1-.2.155.55.55 0 0 1-.21.079c-.061.008-.123-.001-.18-.026s-.085-.083-.065-.14a.24.24 0 0 1 .063-.075 1.17 1.17 0 0 1 .228-.139 1.25 1.25 0 0 0-.164 0c-.031.006-.06.02-.084.041-.012-.034-.002-.073.026-.096zm-2.164-.083a.16.16 0 0 1 .152.016c.027.029.039.068.033.107a.85.85 0 0 0-.076.081c-.044.006-.091 0-.135.011-.022.01-.05.016-.061.036-.01.026-.01.056 0 .082.033.092.054.188.063.285a.2.2 0 0 1-.026.1.69.69 0 0 0-.046-.157 1.02 1.02 0 0 1-.063-.291c.001-.039.02-.076.051-.1a.3.3 0 0 1 .18-.069c-.017-.016-.039-.024-.062-.024-.031.006-.059.023-.078.049-.007-.053.02-.104.068-.127zm3.139-.018c-.003.018-.018.037-.03.057a.3.3 0 0 0-.077.2c0 .042.033.076.075.077.024-.01.031-.034.043-.052a.15.15 0 0 1-.074.146.1.1 0 0 1-.093-.084c-.005-.133.053-.261.156-.345zm-9.291-.7c.027-.047.064-.086.109-.115a1.13 1.13 0 0 0-.156.314c-.015.043-.007.092.021.128.031.022.07.029.107.02.047-.014.086-.048.105-.093.018.027 0 .057-.009.084a.29.29 0 0 1-.115.158.18.18 0 0 1-.167-.008c-.052-.037-.073-.104-.053-.165a.96.96 0 0 1 .158-.324zm4.566-.449a.09.09 0 0 1 .1-.046c.053.013.116.046.107.1-.014.017-.032.031-.048.047-.014-.032-.043-.056-.077-.064-.046.014-.083.049-.1.094a.97.97 0 0 0-.052.267l-.038.015c.004-.088-.03-.173-.093-.234-.016-.021-.051-.011-.075-.021-.037-.013-.064-.045-.071-.084-.005-.022-.015-.049 0-.069.039-.009.07.018.1.036a.62.62 0 0 1 .163.2.66.66 0 0 1 .085-.241zm7.514-.218c.054-.01.11 0 .157.03a.57.57 0 0 1 .178.167.17.17 0 0 1 .042.12c-.002.031-.013.06-.031.085a.1.1 0 0 1-.1.007l-.1-.047a.64.64 0 0 1-.266.255 1.81 1.81 0 0 1-.244.119c-.054.02-.11.037-.166.049s-.114.025-.172.024c.035-.005.069-.016.1-.034a3.53 3.53 0 0 0 .469-.252.85.85 0 0 0 .208-.178l-.1-.014c-.034-.064-.021-.142.031-.192a.1.1 0 0 1-.038-.077c-.006-.027.01-.054.037-.061m.146.156a.67.67 0 0 1 .015.141.68.68 0 0 0 .139.016c.024 0 .023-.028.01-.04-.048-.047-.104-.087-.164-.117m-.156.076c.023.035.077.043.121.054a.13.13 0 0 0 .016-.069.1.1 0 0 0-.077-.056.12.12 0 0 0-.064.072zm-3.023-.3c.032-.028.074-.043.117-.042.025.002.046.02.052.045.016.046.012.097-.013.139l.044.025a.89.89 0 0 0-.007.089.49.49 0 0 1-.079-.05.74.74 0 0 1-.342.257c-.079.031-.165.044-.25.036a1.14 1.14 0 0 0 .437-.213.64.64 0 0 0 .1-.114.46.46 0 0 1-.068-.058.1.1 0 0 1 0-.112m.044.035a.21.21 0 0 0 .058.068c.01-.023.023-.047.009-.071a.2.2 0 0 0-.062.003zm-9.083.285l.977-.482a.18.18 0 0 1-.1.149l-.9.443-.024.008.053-.118zm6.8-.853a.62.62 0 0 1 .085-.081c-.017.042-.017.088 0 .13a1.1 1.1 0 0 0 .047.138c.013.034.063.046.1.053.024.006.053-.008.044-.03a1.12 1.12 0 0 0-.082-.162l.035-.1h.046a.59.59 0 0 0 .088.182c.003.065-.008.129-.033.189-.019.042-.082.056-.133.052-.061-.015-.115-.05-.153-.1a.2.2 0 0 1-.142.112c-.055.015-.114-.004-.151-.047-.029-.043-.042-.094-.038-.145-.007-.08.032-.158.1-.2h.023l-.015.005c-.049.069-.053.16-.009.233.016.026.047.039.077.034.038-.009.072-.027.1-.054.015-.067.015-.138.019-.209zm-6.411-.148c.069-.006.138.016.191.06a.58.58 0 0 1 .164.189c.012.021.016.045.012.068-.001.033-.013.064-.033.09-.033.019-.073.019-.106 0a.58.58 0 0 0-.1-.043.65.65 0 0 1-.264.254c-.09.053-.184.098-.281.134l-.216.054a.39.39 0 0 1-.09.005.23.23 0 0 0 .052-.011c.159-.07.313-.15.462-.239a1.13 1.13 0 0 0 .266-.214l-.1-.014c-.034-.064-.022-.142.029-.193-.023-.02-.036-.048-.037-.078-.003-.015.001-.03.01-.042s.022-.02.037-.021m.136.157a.63.63 0 0 1 .017.143.53.53 0 0 0 .146.013c.023-.01.007-.033 0-.045a.82.82 0 0 0-.158-.111m-.119.02c-.019.016-.03.039-.032.064.034.027.076.043.119.046 0-.013.009-.027.012-.04s-.015-.052-.037-.071c-.017-.011-.04-.009-.055.005zm5.411-.231a.47.47 0 0 1 .109.118 3.78 3.78 0 0 1 .221.355 2.61 2.61 0 0 1 .3.814c.019.086.028.174.028.262.001.179.044.355.127.514a1.19 1.19 0 0 0 .273.277c.043.024.062.018.073.008s0-.083.019-.119a.41.41 0 0 1 .117-.155.67.67 0 0 1 .193-.122c.149-.06.3-.111.459-.158l.359-.087-1.572.011.08-.3a1.23 1.23 0 0 1 .194-.152c.315-.193.65-.351 1-.471-.041-.051-.1-.1-.107-.161a.3.3 0 0 1 .083-.248c.032-.046.073-.085.12-.115.057-.028.123-.032.183-.01a2.24 2.24 0 0 1 .544.3c.016.01.031.023.043.038l-.106.269-.462.093c.028.074.028.157 0 .231-.015 0-.034 0-.036-.017-.012-.065-.041-.126-.084-.176a5.57 5.57 0 0 0-.566.2c-.146.056-.281.136-.4.237h2.416l-.159.268-1.565.355a3.23 3.23 0 0 0-.62.232c-.02.012-.031.034-.017.052.037.033.081.057.129.071.102.04.207.071.315.092l.23.054-.016.323c-.063 0-.127-.009-.19-.013-.124-.007-.247-.024-.369-.05a1.04 1.04 0 0 1-.424-.217 1.12 1.12 0 0 1-.282-.374c-.087-.197-.14-.407-.156-.621-.008 0-.01.039-.018.039a1.5 1.5 0 0 1-.086.252c-.01.02-.025.038-.043.052-.121.111-.249.216-.381.314a3.75 3.75 0 0 1-.434.282 1.74 1.74 0 0 1-.532.2.5.5 0 0 1-.314-.03c-.09-.053-.154-.141-.178-.243l-.282.164c-.086.05-.176.091-.271.122-.248.073-.5.12-.761.169l-.552.094.516-.228 1.354-.673c.053-.238.171-.456.341-.631h.009c-.015.025-.022.052-.037.077a1.19 1.19 0 0 0-.219.5l.573-.363a2.77 2.77 0 0 0 .314-.257c.027-.026.063-.048.073-.083.004-.028-.001-.057-.014-.082l-.378-.769.107-.328a.48.48 0 0 1 .115.1 2.92 2.92 0 0 1 .2.255.43.43 0 0 1 .052.158 1.4 1.4 0 0 0-.135-.11.1.1 0 0 0 .01.023 1.45 1.45 0 0 1 .18.419.78.78 0 0 1 .027.262.55.55 0 0 1-.076.279 1.2 1.2 0 0 1-.184.21 5.72 5.72 0 0 1-.787.585c0 .01.016.013.024.019a.59.59 0 0 0 .335.029 1.19 1.19 0 0 0 .248-.06 2.9 2.9 0 0 0 .547-.318 8.13 8.13 0 0 0 .632-.509l-.207-.561-.12-.291-.216-.382.089-.295m2.027.507c-.024.008-.045.029-.035.05s.026.022.038.034c.049.044.095.091.138.14l.321-.085a.78.78 0 0 0-.274-.145c-.062-.015-.126-.012-.186.008zm2.345-.13l.978-.481c-.006.055-.034.105-.079.137l-.951.467.055-.121zm-1.647-.6c.031-.017.069-.012.095.012.028.032.036.076.021.116a.5.5 0 0 1-.162.2.63.63 0 0 1-.3.14c.023-.018.048-.033.075-.044a1.28 1.28 0 0 0 .207-.133.19.19 0 0 0 .074-.1c0-.034-.037-.063-.077-.069a.33.33 0 0 0-.137.076c-.01-.025.017-.042.033-.06a.57.57 0 0 1 .174-.139zm-4.252-.166l.3-.147c-.005.058-.04.109-.092.134l-.661.323.076-.119.378-.19zm9.616-.313a.77.77 0 0 1 .331.318c.063.125.067.271.012.4-.009.015-.021.028-.035.038.027-.086.027-.179 0-.265a.57.57 0 0 0-.323-.319l.018-.173zm-3.507.056l.077-.071a.2.2 0 0 0 .006.149.88.88 0 0 0 .049.133c.032.028.073.043.116.041.008 0 .015-.003.02-.01s.005-.015.002-.022a1 1 0 0 0-.079-.157c.009-.037.021-.074.036-.109h.045a.56.56 0 0 0 .088.184.67.67 0 0 1-.017.143c-.006.038-.031.07-.066.085s-.076.012-.113 0a.3.3 0 0 1-.123-.091.2.2 0 0 1-.136.11c-.053.017-.111.003-.15-.036a.21.21 0 0 1-.046-.144.3.3 0 0 1 .033-.141c.017-.033.047-.058.083-.069-.052.067-.06.159-.02.234.013.025.038.041.066.042a.2.2 0 0 0 .116-.054v-.183c.007-.007.002-.024.016-.035zm-7.908-.494a.55.55 0 0 1 .259.261c.035.086.035.182 0 .268a.09.09 0 0 1-.03.035.32.32 0 0 0-.022-.249.47.47 0 0 0-.221-.189l.012-.126zm3.844-.091c.025-.029.054-.055.087-.076-.024.028-.014.063-.008.095a1.06 1.06 0 0 0 .056.172c.007.024.038.034.063.043s.05.008.074 0c.015-.01.008-.028 0-.04a.94.94 0 0 0-.077-.146l.036-.108h.047a.53.53 0 0 0 .087.184.63.63 0 0 1-.02.152c-.007.033-.029.061-.06.075-.041.015-.086.015-.127 0a.31.31 0 0 1-.11-.087c-.029.057-.082.098-.145.112-.046.012-.096.001-.132-.03a.17.17 0 0 1-.055-.125c-.006-.057.005-.115.03-.167.018-.033.047-.059.082-.072-.04.055-.052.125-.035.19a.1.1 0 0 0 .072.087c.047 0 .092-.019.125-.052.011-.064.008-.14.013-.208zm3.962-.091l.521-.169a.1.1 0 0 1-.059.083l-.747.261c-.049.019-.095.044-.136.076.03.021.064.035.1.043v.069a.36.36 0 0 1-.144-.053.93.93 0 0 1 .007-.1c.006-.029.043-.043.071-.059a3.81 3.81 0 0 1 .383-.152zm-7.755-.285l.007.006c-.016.016-.008.036 0 .054a.56.56 0 0 0 .037.114c.006.017.027.025.046.03s.042.009.049-.008a.95.95 0 0 0-.054-.115.27.27 0 0 1 .025-.067h.021a.51.51 0 0 0 .058.121c.002.042-.006.083-.022.122-.012.026-.051.033-.082.033-.039-.009-.075-.03-.1-.062a.14.14 0 0 1-.114.074.1.1 0 0 1-.092-.058.21.21 0 0 1 0-.129.1.1 0 0 1 .067-.073c-.03.039-.038.09-.021.136.005.023.024.041.047.045.028-.003.055-.014.076-.033.006-.046 0-.093.006-.14a.48.48 0 0 1 .049-.051zm1.428-.08c.017.006.033.014.048.025a.54.54 0 0 1 .212.236.36.36 0 0 1 0 .263c-.006.015-.016.028-.027.039v-.006c.025-.079.017-.165-.021-.238a.45.45 0 0 0-.222-.193l.013-.127zm.862-.073c.031-.054.091-.084.153-.077.029.006.054.025.067.052a.26.26 0 0 1 .019.154c.043.034.077.077.1.127.022.067.014.14-.023.2a1.1 1.1 0 0 0-.111.248c-.005.024.011.048.035.053.045-.011.053-.053.062-.085.014 0 .036 0 .042.01.002.04-.009.08-.032.113-.014.033-.044.058-.079.066-.029.002-.057-.013-.071-.039a.19.19 0 0 1 .006-.191.61.61 0 0 0 .106-.3c-.002-.047-.025-.091-.062-.12a1.1 1.1 0 0 1-.255.329.69.69 0 0 1-.209.12c-.067.029-.137.054-.207.075a2.37 2.37 0 0 0 .385-.264c.096-.076.171-.175.216-.289v-.006a.32.32 0 0 1-.139-.1c-.01-.027-.01-.056 0-.083m.051.013c-.013.007 0 .02.007.024l.1.042c0-.027.005-.06-.024-.079-.029-.012-.062-.004-.083.019zm5.456-.059c.017-.03.048-.049.083-.049a.2.2 0 0 1 .109.053c.013.017.024.044 0 .059s-.021.025-.036.03c-.021-.022-.038-.061-.08-.059-.048.015-.085.052-.1.1a1.01 1.01 0 0 0-.05.259.19.19 0 0 1-.038.02c.005-.094-.034-.185-.105-.247-.038 0-.084-.007-.105-.037-.03-.035-.04-.082-.027-.126.037-.001.073.012.1.038a.63.63 0 0 1 .163.193.67.67 0 0 1 .086-.228zm-10.377.029c.021-.034.05-.063.085-.083a1.1 1.1 0 0 0-.156.325c-.012.039-.003.081.023.113.035.026.08.033.121.019s.07-.047.088-.085c.009 0 .011.009.016.014a.4.4 0 0 1-.118.211c-.075.051-.177.033-.228-.042a.22.22 0 0 1 0-.154c.039-.113.096-.218.169-.313zm6.18-.118c.114.056.205.149.26.264.023.056.03.117.022.177-.003.045-.019.088-.046.125-.004-.011-.004-.023 0-.034a.3.3 0 0 0-.053-.253.48.48 0 0 0-.2-.15 1.12 1.12 0 0 0 .018-.124zm1.648-.058a.3.3 0 0 1 .107.087 1.96 1.96 0 0 1 .191.272.24.24 0 0 1 .01.068c-.034-.033-.077-.056-.123-.066-.008.015-.008.033 0 .048l.2.472c.044.101.07.208.077.318a.77.77 0 0 1-.057.3.5.5 0 0 1-.193.24.48.48 0 0 1-.287.065.58.58 0 0 1-.326-.124.74.74 0 0 1-.118-.117h.013-.015c-.076-.1-.133-.213-.168-.333 0-.015-.033-.014-.03 0a1.24 1.24 0 0 1-.248.485.71.71 0 0 1-.284.2.74.74 0 0 1-.412.02c-.125-.027-.234-.105-.3-.214a.79.79 0 0 1-.087-.458 2.34 2.34 0 0 1 .1-.369c.018-.036.021-.078.008-.116l-.021-.009c-.018.008-.035.019-.051.031a.79.79 0 0 0-.2.306c-.034.087-.06.177-.078.269a1.08 1.08 0 0 1-.143.419c-.046.081-.125.138-.216.157-.094.011-.189-.013-.266-.067a.41.41 0 0 1-.145-.243c-.029-.159-.029-.321 0-.48a2.45 2.45 0 0 1 .063-.292h.026a1.99 1.99 0 0 0-.054.492.64.64 0 0 0 .068.277.3.3 0 0 0 .166.141c.075.027.158.025.231-.007a.3.3 0 0 0 .13-.163c.052-.135.074-.274.115-.411s.105-.274.179-.4a1.21 1.21 0 0 1 .151-.218.76.76 0 0 1 .18-.171h.023a.4.4 0 0 1-.005.139 1.15 1.15 0 0 1-.06.221l-.068.254a.64.64 0 0 0-.015.372c.039.105.123.187.228.224a.67.67 0 0 0 .238.048.74.74 0 0 0 .342-.046.56.56 0 0 0 .271-.245.78.78 0 0 0 .1-.317 1.5 1.5 0 0 0-.111-.642.15.15 0 0 1-.021-.088c.018-.085.048-.166.091-.241 0-.009.016-.01.024-.014a2.1 2.1 0 0 1 .114.318c.034.141.053.283.073.426a1.96 1.96 0 0 0 .052.3c.064.214.245.372.465.409.113.018.229-.002.33-.056.05-.027.1-.073.086-.124-.159-.331-.29-.669-.419-1.008a.43.43 0 0 1-.028-.083.91.91 0 0 1 .098-.25zm-4.439.278l.164-.291a3.36 3.36 0 0 1 .26.6.9.9 0 0 1-.006.126l-.12-.154.04.284q.112.839.2 1.681a.34.34 0 0 0 .141-.149 1.01 1.01 0 0 1 .128-.192.1.1 0 0 1 .084-.042c.018.002.032.016.034.034.01.053-.041.1-.032.15s.05.087.1.093c.089.017.182.017.271 0 .04-.007.091-.013.11-.046l-.071-.157.12-.226a.2.2 0 0 1 .034-.053 1.4 1.4 0 0 1 .047.265.62.62 0 0 1-.107.418c-.052.072-.129.123-.216.142s-.17.008-.249-.024-.143-.101-.177-.182c-.048.089-.111.169-.187.236l.026.332a.89.89 0 0 1-.081.362l-.073.149a3.05 3.05 0 0 1-.965.813 3.44 3.44 0 0 1-.838.318 2.85 2.85 0 0 1-.477.074 1.62 1.62 0 0 1-.493-.064.72.72 0 0 1-.357-.234l-.869.037.767-.24a2.02 2.02 0 0 1 .447-1.544 2.01 2.01 0 0 0-.312.866.93.93 0 0 0 .121.586 8.96 8.96 0 0 0 .9-.389c.244-.121.478-.26.7-.417a2.11 2.11 0 0 0 .286-.241c.025-.023.013-.056 0-.082l-.062-.131a1.51 1.51 0 0 1-.463.079c-.086.004-.172-.012-.251-.047-.061-.028-.108-.079-.131-.141-.022-.076-.022-.156 0-.232a.56.56 0 0 1 .175-.3c.074-.063.164-.103.26-.115a.51.51 0 0 1 .3.105c.097.076.175.172.229.282a1.02 1.02 0 0 0 .274-.174 1.04 1.04 0 0 1 .245-.164c.023-.011.064-.023.08 0 .011.038.007.079-.01.115-.031.054.006.115.052.156.075.051.168.069.256.049q-.139-1.128-.279-2.256a.2.2 0 0 0-.027-.071m-1.259 2.309c-.045.015-.1.038-.109.081.011.033.059.043.1.05.119.018.239.018.358 0l-.009-.013c-.065-.061-.146-.101-.233-.116a.25.25 0 0 0-.1 0m.771.307a.98.98 0 0 1-.076.454c-.019.054-.049.103-.087.146-.236.234-.505.432-.8.586a6.19 6.19 0 0 1-.835.383.82.82 0 0 0 .157.044 1.54 1.54 0 0 0 .442 0 3.29 3.29 0 0 0 1.258-.428 3.59 3.59 0 0 0 .665-.495c.065-.065.146-.129.162-.216l-.053-.438a.41.41 0 0 1-.32-.014c-.098-.064-.161-.17-.172-.286-.1.107-.217.198-.345.27zm5.595-2.824c.023-.038.055-.069.093-.091a1.13 1.13 0 0 0-.155.311c-.02.049-.006.106.034.141a.15.15 0 0 0 .093.009c.049-.015.088-.052.106-.1.007.015.007.032 0 .047-.017.072-.055.137-.109.186-.037.026-.084.036-.128.026s-.083-.037-.106-.076a.3.3 0 0 1 .023-.2c.04-.086.088-.168.145-.244zm-7.261.187l.179-.283a3.26 3.26 0 0 1 .227.616.55.55 0 0 1-.014.114c-.044-.047-.07-.1-.115-.15l.049.475q.026.307.051.615a.57.57 0 0 0 .332-.164.73.73 0 0 0 .189-.442c.008-.204-.024-.408-.094-.6a.37.37 0 0 1-.039-.119c.014-.078.04-.154.077-.224.009-.017.015-.038.041-.043a2.37 2.37 0 0 1 .106.292 4.25 4.25 0 0 1 .083.471 1.78 1.78 0 0 0 .05.285.58.58 0 0 0 .251.328c.105.066.229.095.352.084a.48.48 0 0 0 .241-.094c.029-.02.043-.056.035-.091-.127-.26-.231-.526-.336-.791l-.107-.277c-.01-.023 0-.048.008-.071a.93.93 0 0 1 .09-.207c.039.018.073.045.1.078.082.096.154.199.215.309 0 .013-.006.027-.008.041-.033-.035-.076-.058-.123-.067-.007.015-.007.032 0 .047l.174.4c.052.118.085.242.1.37-.008.117-.031.232-.069.342a.52.52 0 0 1-.226.238.53.53 0 0 1-.3.034c-.125-.021-.241-.082-.329-.173-.107-.113-.185-.25-.227-.4h-.025a1.31 1.31 0 0 1-.19.418.74.74 0 0 1-.353.281l.076 1.079-.017.532c-.003.024-.01.048-.022.069q-.046.116-.1.229c-.006.013-.013.025-.023.036 0-.339-.041-.677-.07-1.015q-.039-.446-.078-.893a.6.6 0 0 1-.347-.1.51.51 0 0 1-.19-.3c-.022-.098-.028-.2-.018-.3.024-.131.058-.261.1-.387.006-.023.006-.047 0-.07 0-.008-.005-.018-.017-.021s-.033.007-.045.018c-.065.053-.118.119-.157.193a1.45 1.45 0 0 0-.146.453 1.17 1.17 0 0 1-.1.3.43.43 0 0 1-.17.19.35.35 0 0 1-.449-.163.84.84 0 0 1-.065-.411c.01-.163.038-.324.083-.481h.025a1.91 1.91 0 0 0-.048.549.56.56 0 0 0 .069.233c.084.135.257.185.4.116a.33.33 0 0 0 .123-.171c.057-.159.079-.325.139-.484a2.09 2.09 0 0 1 .233-.449c.057-.076.12-.147.188-.212.019-.023.046-.038.076-.042.018.009.012.03.012.044a.88.88 0 0 1-.037.214c-.05.142-.083.287-.119.432a.5.5 0 0 0 .023.341.4.4 0 0 0 .224.186.74.74 0 0 0 .174.04l-.1-1.2a.5.5 0 0 0-.027-.188zm13.312 0l.158-.3.233.657a.92.92 0 0 1 .029.115c-.01.03-.016.061-.02.092l-.09-.136q.057.849.135 1.7l.047.545a2.38 2.38 0 0 1-.129 1.006 1.58 1.58 0 0 1-.189.338 1.2 1.2 0 0 1-.436.33 3.42 3.42 0 0 1-1.011.27c-.02.006-.028-.013-.039-.021a6.27 6.27 0 0 0 .9-.422c.141-.079.275-.171.4-.275a.93.93 0 0 0 .285-.424c.038-.159.046-.324.022-.486l-.1-1.118q-.071-.861-.144-1.723a1.17 1.17 0 0 0-.057-.114c0-.01.005-.018.008-.027zm-.794.1l.537-.466a.55.55 0 0 1-.187.382 1.28 1.28 0 0 1-.2.166l-.1.074a1.16 1.16 0 0 1 .029.114c0 .036-.01.071-.016.107a1.83 1.83 0 0 0-.113-.15l.043.483q.053.709.1 1.419c0 .012.012.02.021.028l.382.35a2.75 2.75 0 0 1 .264.316c.102.138.17.299.2.468a.6.6 0 0 1-.036.311 1.7 1.7 0 0 0-.376-.694l-.436-.429.029.506a6.47 6.47 0 0 1-.014.653c-.006.041-.018.081-.035.118a2.65 2.65 0 0 1-.108.265l-.031-.6-.082-1.078c0-.028 0-.057-.009-.085l-.309-.266-.557-.443.108 1.126.036.512v.446a.48.48 0 0 1-.348.54.91.91 0 0 1-.343.068c-.211.005-.405-.112-.5-.3a.79.79 0 0 1-.082-.22.13.13 0 0 0-.055-.092c-.031-.011-.065-.008-.094.008a.61.61 0 0 0-.188.114 1.1 1.1 0 0 0-.292.554.56.56 0 0 1-.129.24c-.051.058-.123.094-.2.1-.063-.002-.125-.017-.183-.043a.53.53 0 0 1-.267-.253c-.026-.047-.046-.097-.058-.149a1.38 1.38 0 0 1-.028-.43c.006-.016-.015-.022-.027-.031-.041-.028-.065-.075-.063-.125a.95.95 0 0 1 .119-.493 1.88 1.88 0 0 1 .287-.348c.01-.012.028-.021.032-.035l-.206-.173c-.04-.037-.089-.066-.128-.1l-.439-.385.036.566.021.525-.016.468c-.005.039-.016.077-.033.112l-.11.273c-.008-.074 0-.148-.009-.222l-.079-1.105-.065-.846-.3-.284c-.114-.109-.22-.225-.319-.348a2.99 2.99 0 0 0-.474-.542c-.011-.008-.008-.02-.008-.03l.018-.317a4.1 4.1 0 0 1 .382.225 1.69 1.69 0 0 1 .261.212c.044.03.068.082.063.135a1.41 1.41 0 0 1-.134-.044.2.2 0 0 0-.055-.014c0 .03.022.053.042.076l.432.474c.02.019.039.039.055.061l-.04-.546q-.031-.422-.063-.843c.001-.043-.007-.085-.023-.125-.01-.016 0-.03.013-.044l.149-.236c0-.005.014-.02.017-.006.09.186.163.381.216.581.008.048.004.097-.01.143-.034-.054-.073-.105-.111-.157l.113 1.482a.98.98 0 0 0 .093.089l.895.78q.336-.3.678-.587c.01-.007.017-.016.013-.027q-.1-.922-.205-1.843a.56.56 0 0 0-.036-.185l.173-.284a1.5 1.5 0 0 1 .076.156 3.18 3.18 0 0 1 .144.4c.012.029.017.061.016.092s-.009.057-.013.085l-.111-.151.156 1.577.706-.595.08-.069-.33-.376c-.037-.042-.066-.088-.1-.13-.073-.097-.158-.185-.254-.259l-.02-.359.722.5a.17.17 0 0 1 .053.057l-.06-.561c-.001-.018-.004-.035-.011-.051s-.023-.034-.009-.051l.163-.273a3.22 3.22 0 0 1 .23.557.22.22 0 0 1 .016.08c0 .027-.007.061-.011.091l-.1-.134-.016-.021.075.643.542-.438.244-.183-.02-.249c0-.026-.032-.053-.011-.078l.167-.264a2.77 2.77 0 0 1 .152.356m-1.054 1.042c0 .033.006.067.01.1l.177.166.707.613-.113-1.517q-.4.313-.78.638m-.5-.459l.234.27-.025-.243-.013.022c-.059-.038-.13-.055-.2-.048m-.476 1.308l-.147.132.048.43a.92.92 0 0 1-.227.682.72.72 0 0 0 0-.093v-.319-.306a1.66 1.66 0 0 0-.025-.22l-.189.164-.39.326a.67.67 0 0 1 .235.411c.024.17-.037.341-.163.458a.93.93 0 0 1-.463.211.6.6 0 0 1-.252 0c.01.067.023.134.04.2.025.117.074.228.144.325a.3.3 0 0 0 .173.115c.08.012.16-.01.223-.061a.3.3 0 0 0 .1-.139c.047-.153.105-.303.173-.449.06-.119.145-.224.248-.309a1.1 1.1 0 0 1 .192-.124.25.25 0 0 1 .161-.028c.048.013.089.044.114.087a2.5 2.5 0 0 1 .116.269c.03.081.085.151.156.2a.51.51 0 0 0 .282.061 1.09 1.09 0 0 0 .47-.148 2.79 2.79 0 0 0-.04-.418l-.22-2.043c0-.019-.024-.031-.034-.047l-.725.634m-1.123.977l-.148.145a2.02 2.02 0 0 0-.253.308c-.022.026-.027.062-.013.093.032.028.073.04.115.035a1.12 1.12 0 0 0 .5-.15c.049-.019.1-.062.077-.108a.65.65 0 0 0-.116-.171l-.149-.154z"/></g></g></svg>