<svg width="54" height="54" viewBox="0 0 54 54" fill="none" xmlns="http://www.w3.org/2000/svg">
<g clip-path="url(#clip0_16117_148)">
<path d="M45.9145 45.9368C56.4195 35.4318 56.4195 18.3998 45.9145 7.89478C35.4095 -2.61022 18.3776 -2.61022 7.87255 7.89478C-2.63245 18.3998 -2.63245 35.4318 7.87255 45.9368C18.3776 56.4418 35.4095 56.4418 45.9145 45.9368Z" fill="#6F67D4"/>
<path d="M26.9 0C12.1 0 0 12 0 26.9C0 41.8 12.1 53.8 26.9 53.8C41.8 53.8 53.8 41.8 53.8 26.9C53.8 12 41.8 0 26.9 0ZM26.9 8C31.8 8 35.8 12 35.8 16.9C35.8 21.8 31.8 25.8 26.9 25.8C22 25.8 18 21.8 18 16.9C18 12 22 8 26.9 8ZM26.9 46.8C22 46.8 17.5 45 14 42C13.2 41.3 12.7 40.2 12.7 39.1C12.7 34.1 16.7 30.1 21.7 30.1H32.1C37.1 30.1 41.1 34.1 41.1 39.1C41.1 40.2 40.6 41.3 39.8 42C36.3 45 31.8 46.8 26.9 46.8Z" fill="white"/>
</g>
<defs>
<clipPath id="clip0_16117_148">
<rect width="53.8" height="53.8" fill="white"/>
</clipPath>
</defs>
</svg>
