<svg xmlns="http://www.w3.org/2000/svg" width="20.44" height="20.449" xmlns:v="https://vecta.io/nano"><defs><clipPath id="A"><path d="M20.553,9.844a10.216,10.216,0,1,1-20.4,1.084,6.879,6.879,0,0,1,0-1.084,10.215,10.215,0,0,1,20.4,0Z" transform="translate(5410.433 -11762.177)" fill="#fff"/></clipPath></defs><g transform="translate(-5410.561 11762.023)" clip-path="url(#A)"><path d="M5410.561-11761.037h30.713v20.476h-30.713z" fill="#fff"/><path d="M5410.561-11764.037h30.713v13.238h-30.713z" fill="#ed2939"/><circle cx="5417.048" cy="-11755.918" r="3.768" fill="#fff"/><circle cx="5418.754" cy="-11755.918" r="3.768" fill="#ed2939"/><g fill="#fff"><path d="M5419.109-11759.061l-.577 1.775 1.51-1.1h-1.866l1.51 1.1zm2.989 2.172h-1.866l1.51 1.1-.577-1.775-.577 1.775zm-4.836 3.513l1.51-1.1h-1.866l1.51 1.1-.577-1.775zm3.695 0l-.577-1.775-.577 1.775 1.51-1.1h-1.866zm-4.836-3.513l1.51 1.1-.577-1.775-.577 1.775 1.51-1.1z"/></g></g></svg>