<svg xmlns="http://www.w3.org/2000/svg" width="20.441" height="20.45" xmlns:v="https://vecta.io/nano"><defs><clipPath id="A"><path d="M20.554,9.844a10.217,10.217,0,1,1-20.4,1.084,6.879,6.879,0,0,1,0-1.084,10.216,10.216,0,0,1,20.4,0Z" transform="translate(523.22 10135.407)" fill="#f5f5f5"/></clipPath></defs><g transform="translate(-523.348 -10135.561)" clip-path="url(#A)"><path d="M515.198 10133.397h36.786v24.524h-36.786z" fill="#fff"/><g transform="matrix(.555 -.832 .832 .555 525.113 10144.266)"><path d="M1.772 0h3.544v.591H1.772zm0 .886h3.544v.591H1.772zm0 .886h3.544v.591H1.772zm0 11.223h3.544v.591H1.772zm0 .886h3.544v.591H1.772zm0 .886h3.544v.591H1.772z"/><path d="M3.544 12.7v2.954"/><path d="M4.044 15.654h-1V12.7h1z" fill="#fff"/><path d="M3.544 4.135c1.957 0 3.544 1.587 3.544 3.544s-1.587 3.544-3.544 3.544z" fill="#cd2e3a"/><path d="M3.544 4.135C1.587 4.135 0 5.722 0 7.679s1.587 3.544 3.544 3.544a1.77 1.77 0 1 0 0-3.544z" fill="#0047a0"/><circle cx="3.544" cy="5.907" fill="#cd2e3a" r="1.772"/></g><g transform="matrix(-.555 -.832 .832 -.555 528.062 10151.311)"><path d="M0 0h3.544v.591H0zm0 .886h3.544v.591H0zm0 .886h3.544v.591H0zm0 11.223h3.544v.591H0zm0 .886h3.544v.591H0zm0 .886h3.544v.591H0z"/><path d="M1.772.738v.886m0 11.076v1.038m0 .886v.886"/><path d="M2.272 15.506h-1v-.886h1z" fill="#fff"/></g></g></svg>