<svg xmlns="http://www.w3.org/2000/svg" width="20.509" height="20.509" xmlns:v="https://vecta.io/nano"><path d="M6.451 10.244l-5.722 3.83A10.22 10.22 0 0 1 0 10.244a10.1 10.1 0 0 1 .729-3.807z"/><path d="M19.916 13.716c-1.431 4.063-5.266 6.784-9.574 6.793a9.99 9.99 0 0 1-4.855-1.254l8.3-5.539z" fill="#062493"/><path d="M19.916 6.77h-6.132l-8.3-5.539C8.097-.188 11.201-.392 13.977.674s4.947 3.293 5.939 6.096z" fill="#dd3831"/><path d="M8.867 10.244l-7.545 5.038c-.22-.391-.418-.794-.593-1.208l5.722-3.83L.729 6.437a11.85 11.85 0 0 1 .593-1.208z" fill="#feb51d"/><path d="M20.304 12.395c-.105.447-.235.889-.388 1.322h-6.132l-8.3 5.539a11.23 11.23 0 0 1-1.231-.775l9.118-6.086zm0-4.28h-6.93L4.256 2.029a11.42 11.42 0 0 1 1.231-.8l8.3 5.539h6.132a13.04 13.04 0 0 1 .385 1.347z" fill="#fff"/><path d="M20.509 10.243a10.24 10.24 0 0 1-.207 2.077h-7l-9.214 6.161a10.29 10.29 0 0 1-2.763-3.138l7.624-5.1-7.624-5.076a10.29 10.29 0 0 1 2.764-3.138L13.3 8.192h7c.139.675.209 1.362.209 2.051z" fill="#00794d"/></svg>