<svg xmlns="http://www.w3.org/2000/svg" width="20.44" height="20.449" xmlns:v="https://vecta.io/nano"><defs><clipPath id="A"><path d="M20.553,9.844a10.216,10.216,0,1,1-20.4,1.084,6.879,6.879,0,0,1,0-1.084,10.215,10.215,0,0,1,20.4,0Z" transform="translate(5348.433 -11762.177)" fill="#fff"/></clipPath></defs><g transform="translate(-5348.561 11762.023)" clip-path="url(#A)"><g fill-rule="evenodd"><path d="M5347.714-11762.023h32.134v21.423h-32.134z" fill="#fe0000"/><path d="M5347.714-11762.023h16.067v10.711h-16.067z" fill="#000095"/></g><g fill="#fff"><path d="M5355.748-11760.684l-2.009 7.5 5.492-5.492-7.5 2.008 7.5 2.008-5.487-5.487 2.008 7.5 2.008-7.5-5.487 5.487 7.5-2.008-7.5-2.008 5.483 5.492-2.008-7.5"/><ellipse cx="5355.748" cy="-11756.667" rx="2.223" ry="2.224" stroke="#000095" stroke-width=".25"/></g></g></svg>