<svg xmlns="http://www.w3.org/2000/svg" width="20.441" height="20.45" xmlns:v="https://vecta.io/nano"><defs><clipPath id="A"><path d="M20.554,9.844a10.217,10.217,0,1,1-20.4,1.084,6.879,6.879,0,0,1,0-1.084,10.216,10.216,0,0,1,20.4,0Z" transform="translate(454.22 10142.407)" fill="#f5f5f5"/></clipPath></defs><g transform="translate(-454.348 -10142.561)" clip-path="url(#A)"><path d="M448.385 10141.993h32.367v21.578h-32.367z" fill="#e30a17"/><path d="M463.831 10152.785l3.081-1-1.905 2.621v-3.239l1.905 2.621zm.209 1.822a3.4 3.4 0 0 1-3.826 1.449c-1.456-.422-2.459-1.755-2.459-3.271a3.41 3.41 0 0 1 2.459-3.272c1.456-.422 3.016.169 3.826 1.45-.754-.839-1.947-1.127-3-.723s-1.75 1.416-1.75 2.545.696 2.141 1.75 2.545 2.246.116 3-.723z" fill="#fff"/></g></svg>