<svg xmlns="http://www.w3.org/2000/svg" width="20.44" height="20.44" xmlns:v="https://vecta.io/nano"><defs><clipPath id="A"><path d="M28.155,13.05a10.558,10.558,0,0,1-.574,3.414,10.24,10.24,0,0,1-19.294,0,10.558,10.558,0,0,1-.574-3.414A10.224,10.224,0,0,1,27.581,9.659,10.317,10.317,0,0,1,28.155,13.05Z" transform="translate(-3.773 .988)" fill="#fff"/></clipPath></defs><g transform="translate(-3.941 -3.818)" clip-path="url(#A)"><path fill="#ff021b" d="M-.775 3.49H9.772v21.094H-.775z"/><path fill="#00732f" d="M9.772 3.49h31.641v6.825H9.772z"/><path fill="#fff" d="M9.772 10.315h31.641v7.445H9.772z"/><path d="M9.772 17.759h31.641v6.825H9.772z"/></g></svg>