<svg width="40" height="40" viewBox="0 0 40 40" fill="none" xmlns="http://www.w3.org/2000/svg">
<path d="M20 37.5C29.665 37.5 37.5 29.665 37.5 20C37.5 10.335 29.665 2.5 20 2.5C10.335 2.5 2.5 10.335 2.5 20C2.5 29.665 10.335 37.5 20 37.5Z" fill="#028CB0"/>
<path d="M8.06922 20C8.06922 24.7279 10.8192 28.8 14.7961 30.7356L9.10577 15.1453C8.42247 16.6725 8.06926 18.3269 8.06922 20ZM20 31.9307C21.3856 31.9307 22.7182 31.6875 23.9664 31.2539L23.8818 31.0952L20.2115 21.0471L16.6365 31.4442C17.6943 31.7615 18.826 31.9307 20 31.9307ZM21.6394 14.4047L25.9547 27.2346L27.15 23.2577C27.6577 21.6077 28.049 20.4231 28.049 19.3971C28.049 17.9164 27.5203 16.901 27.076 16.1182C26.4625 15.124 25.9019 14.2885 25.9019 13.3154C25.9019 12.2154 26.7269 11.2 27.9115 11.2H28.0596C25.8613 9.18183 22.9842 8.06426 20 8.06922C18.024 8.06886 16.079 8.55971 14.3397 9.49761C12.6006 10.4355 11.1218 11.7911 10.0365 13.4423L10.7981 13.4635C12.0462 13.4635 13.9711 13.3047 13.9711 13.3047C14.6269 13.2731 14.701 14.2144 14.0558 14.2885C14.0558 14.2885 13.4106 14.3731 12.6807 14.4047L17.0385 27.3298L19.651 19.5029L17.7894 14.4047C17.3725 14.3817 16.9562 14.3465 16.5414 14.299C15.8961 14.2568 15.9703 13.2731 16.6154 13.3047C16.6154 13.3047 18.5827 13.4635 19.7567 13.4635C21.0047 13.4635 22.9297 13.3047 22.9297 13.3047C23.575 13.2731 23.6596 14.2144 23.0144 14.2885C23.0144 14.2885 22.3693 14.3625 21.6394 14.4047ZM25.9971 30.3125C27.802 29.263 29.2999 27.7582 30.3411 25.9486C31.3824 24.139 31.9305 22.0879 31.9307 20C31.9307 17.9269 31.4019 15.9808 30.4711 14.2779C30.6601 16.1514 30.3765 18.0424 29.6461 19.7779L25.9971 30.3125ZM20 33.75C16.3533 33.75 12.8559 32.3014 10.2773 29.7228C7.69866 27.1441 6.25 23.6467 6.25 20C6.25 16.3533 7.69866 12.8559 10.2773 10.2773C12.8559 7.69866 16.3533 6.25 20 6.25C23.6467 6.25 27.1441 7.69866 29.7228 10.2773C32.3014 12.8559 33.75 16.3533 33.75 20C33.75 23.6467 32.3014 27.1441 29.7228 29.7228C27.1441 32.3014 23.6467 33.75 20 33.75Z" fill="white"/>
</svg>
