<svg width="48" height="48" viewBox="0 0 48 48" fill="none" xmlns="http://www.w3.org/2000/svg">
<g clip-path="url(#clip0_14100_82)">
<path d="M0.0480957 23.9988C0.0480957 33.4794 5.55685 41.6736 13.5487 45.5555L2.12297 14.2515C0.794252 17.2293 0.0480957 20.5275 0.0480957 23.9988ZM40.1696 22.7907C40.1696 19.8293 39.1064 17.7802 38.1953 16.186C36.9813 14.2118 35.8433 12.5416 35.8433 10.5685C35.8433 8.36616 37.5123 6.31706 39.8643 6.31706C39.9719 6.31706 40.0725 6.32991 40.1743 6.33572C35.9146 2.43169 30.2363 0.046875 24 0.046875C15.6316 0.046875 8.27025 4.34044 3.98719 10.8421C4.54978 10.8608 5.07956 10.8726 5.52872 10.8726C8.034 10.8726 11.9135 10.5684 11.9135 10.5684C13.2035 10.4913 13.3568 12.3883 12.0667 12.5415C12.0667 12.5415 10.7684 12.6936 9.32513 12.7684L18.0478 38.7134L23.2887 22.9929L19.5578 12.7684C18.2665 12.6936 17.0454 12.5415 17.0454 12.5415C15.7553 12.4643 15.9063 10.4912 17.1975 10.5684C17.1975 10.5684 21.1519 10.8726 23.5062 10.8726C26.0103 10.8726 29.8898 10.5684 29.8898 10.5684C31.1811 10.4913 31.3331 12.3883 30.0419 12.5415C30.0419 12.5415 28.7425 12.6936 27.3016 12.7684L35.9577 38.5157L38.3471 30.5344C39.5614 27.421 40.1696 24.8397 40.1696 22.7907ZM24.421 26.0935L17.234 46.9778C19.3802 47.608 21.6503 47.9531 24 47.9531C26.7908 47.9531 29.4655 47.4712 31.9544 46.5952C31.8912 46.4923 31.8316 46.3836 31.7837 46.2643L24.421 26.0935ZM45.0187 12.5088C45.1216 13.2713 45.1801 14.0901 45.1801 14.9708C45.1801 17.4011 44.7239 20.1345 43.359 23.5497L36.0432 44.7017C43.1637 40.5496 47.9519 32.8362 47.9519 23.9988C47.9519 19.8351 46.8877 15.9193 45.0187 12.5088Z" fill="#8D88A3"/>
</g>
<defs>
<clipPath id="clip0_14100_82">
<rect width="48" height="48" fill="white"/>
</clipPath>
</defs>
</svg>
