<svg width="62" height="66" viewBox="0 0 62 66" fill="none" xmlns="http://www.w3.org/2000/svg">
<path d="M23.8 47.6C36.9444 47.6 47.6 36.9444 47.6 23.8C47.6 10.6556 36.9444 0 23.8 0C10.6556 0 0 10.6556 0 23.8C0 36.9444 10.6556 47.6 23.8 47.6Z" fill="url(#paint0_linear_16130_417)"/>
<path d="M35.4002 20.8002C35.4002 18.0002 33.1002 15.7002 30.3002 15.7002H17.3002C14.5002 15.7002 12.2002 18.0002 12.2002 20.8002V26.8002C12.2002 29.6002 14.5002 31.9002 17.3002 31.9002H30.3002C33.1002 31.9002 35.4002 29.6002 35.4002 26.8002V20.8002ZM27.8002 24.3002L22.0002 27.2002C21.8002 27.3002 21.0002 27.2002 21.0002 26.9002V21.0002C21.0002 20.7002 21.8002 20.6002 22.0002 20.7002L27.6002 23.7002C27.8002 23.8002 28.0002 24.2002 27.8002 24.3002Z" fill="white"/>
<defs>
<linearGradient id="paint0_linear_16130_417" x1="6.9801" y1="6.9801" x2="40.6829" y2="40.6829" gradientUnits="userSpaceOnUse">
<stop stop-color="#FF0000"/>
<stop offset="1" stop-color="#9B0000"/>
</linearGradient>
</defs>
</svg>
