<svg width="27" height="22" viewBox="0 0 27 22" fill="none" xmlns="http://www.w3.org/2000/svg">
<g clip-path="url(#clip0_16123_160)">
<path d="M24.8 3.1C24.2 3.3 23.8 3.2 23.8 3.2V3.1C24.3 2.7 25.7 1.3 25.9 0.7C26 0.4 25.9 0.3 25.9 0.3L24.2 1L22.7 1.7C21.7 0.6 20.2 0 18.5 0C15.5 0 13 2.1 13 4.8C13 5.3 13.1 6.2 13.2 6.6C13.2 6.7 13.2 6.5 13.2 6.6C11.2 6.5 8.7 5.7 6.5 4.6C2.1 2.4 1.8 0.9 1.8 0.9C1.1 1.6 0.8 4 1.5 5.9C1.9 7.1 3.5 8.2 3.5 8.2C3.5 8.2 2.8 8.2 2.1 8C1.4 7.8 1.1 7.5 1.1 7.5C0.7 8.5 1.5 10.4 3 11.8C3.8 12.6 5.4 13 5.4 13L3 13.1C2.8 15.5 8 17 8 17C6.5 18.2 4.7 18.9 2.8 18.9C1.8 18.9 0.9 18.8 0 18.5C2.5 20.6 5.7 22 9.2 21.8C18.5 21.3 23.7 13.4 23.9 5.5C23.9 5.5 24.3 5.3 25.3 4.4C26.2 3.5 26.8 2.4 26.8 2.4C26.8 2.4 25.4 2.9 24.8 3.1Z" fill="white"/>
</g>
<defs>
<clipPath id="clip0_16123_160">
<rect width="26.8" height="21.7" fill="white"/>
</clipPath>
</defs>
</svg>
